<svg xmlns="http://www.w3.org/2000/svg" width="160" height="90" viewBox="0 0 160 90"><rect width="100%" height="100%" fill="#a64646"/><path fill="#ebc5c5" d="M44.76 37.875h1.69l-3.59 11.57h-1.95l-2.52-7.9q-.11-.29-.2-.71-.04.2-.09.38-.05.17-.11.33l-2.55 7.9h-1.95l-3.58-11.57h1.8q.28 0 .46.13.19.14.26.36l1.96 6.92q.07.26.13.56.06.3.12.62.07-.33.14-.63.08-.29.17-.55l2.27-6.92q.06-.18.25-.34.19-.15.46-.15h.63q.28 0 .46.14.17.13.26.35l2.27 6.92q.16.5.3 1.14.1-.63.23-1.14l1.97-6.92q.05-.2.24-.34.2-.15.47-.15Zm6.43 3.23q.92 0 1.66.3.75.3 1.28.84.54.54.82 1.33.29.78.29 1.75 0 .98-.29 1.76-.28.78-.82 1.34-.53.55-1.28.84-.74.3-1.66.3-.92 0-1.67-.3-.75-.29-1.28-.84-.53-.56-.83-1.34-.29-.78-.29-1.76 0-.97.29-1.75.3-.79.83-1.33t1.28-.84q.75-.3 1.67-.3Zm0 6.94q1.03 0 1.52-.69t.49-2.01q0-1.33-.49-2.03-.49-.69-1.52-.69-1.04 0-1.54.7t-.5 2.02q0 1.32.5 2.01.5.69 1.54.69Zm7.54 1.4h-1.98v-8.21h1.21q.39 0 .51.36l.12.61q.22-.24.46-.44.23-.2.5-.34.27-.15.58-.23.3-.09.67-.09.78 0 1.28.42t.75 1.12q.19-.41.48-.7.28-.29.63-.48.34-.18.73-.27.39-.09.78-.09.68 0 1.21.21.53.21.89.61t.54.98q.19.57.19 1.32v5.22h-1.97v-5.22q0-.79-.35-1.18-.34-.4-1.01-.4-.3 0-.56.1-.26.11-.46.3-.19.2-.3.5-.12.29-.12.68v5.22h-1.98v-5.22q0-.83-.33-1.2-.33-.38-.97-.38-.44 0-.81.21-.37.21-.69.58v6.01Zm13.4-5.81v3.68q.34.41.73.58.4.17.86.17.45 0 .81-.17.36-.17.61-.51.25-.35.39-.87.14-.53.14-1.24 0-.72-.12-1.22t-.33-.81q-.22-.31-.53-.46-.3-.14-.7-.14-.61 0-1.04.26-.44.26-.82.73Zm-.26-2.04.16.76q.5-.57 1.14-.92.64-.35 1.5-.35.68 0 1.23.28.56.28.96.81.41.53.63 1.31.22.78.22 1.79 0 .92-.25 1.71-.25.78-.71 1.36-.46.57-1.11.9-.65.32-1.46.32-.69 0-1.18-.21t-.87-.59v3.36h-1.98v-10.89h1.21q.39 0 .51.36Zm25.28-3.72h1.68l-3.59 11.57H93.3l-2.53-7.9q-.1-.29-.19-.71-.05.2-.1.38-.05.17-.1.33l-2.55 7.9h-1.96l-3.58-11.57h1.8q.28 0 .47.13.19.14.25.36l1.97 6.92q.06.26.12.56.06.3.13.62.06-.33.14-.63.07-.29.16-.55l2.27-6.92q.07-.18.25-.34.19-.15.46-.15h.64q.28 0 .45.14.18.13.27.35l2.26 6.92q.17.5.3 1.14.11-.63.24-1.14l1.96-6.92q.05-.2.25-.34.19-.15.47-.15Zm6.43 3.23q.91 0 1.66.3.75.3 1.28.84t.82 1.33q.29.78.29 1.75 0 .98-.29 1.76t-.82 1.34q-.53.55-1.28.84-.75.3-1.66.3-.92 0-1.67-.3-.76-.29-1.29-.84-.53-.56-.82-1.34-.29-.78-.29-1.76 0-.97.29-1.75.29-.79.82-1.33t1.29-.84q.75-.3 1.67-.3Zm0 6.94q1.02 0 1.51-.69.5-.69.5-2.01 0-1.33-.5-2.03-.49-.69-1.51-.69-1.04 0-1.54.7t-.5 2.02q0 1.32.5 2.01.5.69 1.54.69Zm7.53 1.4h-1.97v-8.21h1.21q.38 0 .5.36l.13.61q.21-.24.45-.44.24-.2.5-.34.27-.15.58-.23.31-.09.68-.09.77 0 1.27.42t.75 1.12q.19-.41.48-.7t.63-.48q.35-.18.73-.27.39-.09.78-.09.68 0 1.21.21.53.21.89.61t.55.98q.19.57.19 1.32v5.22h-1.98v-5.22q0-.79-.34-1.18-.35-.4-1.01-.4-.31 0-.57.1-.26.11-.45.3-.2.2-.31.5-.11.29-.11.68v5.22h-1.99v-5.22q0-.83-.33-1.2-.33-.38-.97-.38-.43 0-.8.21-.38.21-.7.58v6.01Zm13.4-5.81v3.68q.34.41.74.58.39.17.86.17.44 0 .8-.17.36-.17.62-.51.25-.35.38-.87.14-.53.14-1.24 0-.72-.12-1.22-.11-.5-.33-.81-.21-.31-.52-.46-.31-.14-.7-.14-.62 0-1.05.26-.43.26-.82.73Zm-.26-2.04.16.76q.5-.57 1.14-.92.64-.35 1.51-.35.67 0 1.23.28.55.28.96.81.4.53.62 1.31.22.78.22 1.79 0 .92-.25 1.71-.25.78-.71 1.36-.46.57-1.11.9-.65.32-1.46.32-.69 0-1.17-.21-.49-.21-.88-.59v3.36h-1.97v-10.89h1.21q.38 0 .5.36Z"/></svg>