<?xml version="1.0" encoding="utf-8"?>
<!-- Generator: Adobe Illustrator 28.3.0, SVG Export Plug-In . SVG Version: 6.00 Build 0)  -->
<svg version="1.1" id="Layer_1" xmlns="http://www.w3.org/2000/svg" xmlns:xlink="http://www.w3.org/1999/xlink" x="0px" y="0px"
	 viewBox="0 0 160 90" style="enable-background:new 0 0 160 90;" xml:space="preserve">
<style type="text/css">
	.st0{fill:#393939;}
	.st1{fill:none;stroke:#222222;stroke-miterlimit:10;}
	.st2{stroke:#393939;stroke-width:8;stroke-miterlimit:10;}
</style>
<rect class="st0" width="160" height="90"/>
<g>
	<rect x="6.1" y="3.4" class="st1" width="9.8" height="5.5"/>
	<rect x="16" y="3.4" class="st1" width="9.8" height="5.5"/>
	<rect x="25.8" y="3.4" class="st1" width="9.8" height="5.5"/>
	<rect x="35.7" y="3.4" class="st1" width="9.8" height="5.5"/>
	<rect x="45.5" y="3.4" class="st1" width="9.8" height="5.5"/>
	<rect x="55.4" y="3.4" class="st1" width="9.8" height="5.5"/>
	<rect x="65.2" y="3.4" class="st1" width="9.8" height="5.5"/>
	<rect x="75.1" y="3.4" class="st1" width="9.8" height="5.5"/>
	<rect x="84.9" y="3.4" class="st1" width="9.8" height="5.5"/>
	<rect x="94.8" y="3.4" class="st1" width="9.8" height="5.5"/>
	<rect x="104.6" y="3.4" class="st1" width="9.8" height="5.5"/>
	<rect x="114.5" y="3.4" class="st1" width="9.8" height="5.5"/>
	<rect x="124.3" y="3.4" class="st1" width="9.8" height="5.5"/>
	<rect x="134.2" y="3.4" class="st1" width="9.8" height="5.5"/>
	<rect x="144" y="3.4" class="st1" width="9.8" height="5.5"/>
	<rect x="6.1" y="9" class="st1" width="9.8" height="5.5"/>
	<rect x="16" y="9" class="st1" width="9.8" height="5.5"/>
	<rect x="25.8" y="9" class="st1" width="9.8" height="5.5"/>
	<rect x="35.7" y="9" class="st1" width="9.8" height="5.5"/>
	<rect x="45.5" y="9" class="st1" width="9.8" height="5.5"/>
	<rect x="55.4" y="9" class="st1" width="9.8" height="5.5"/>
	<rect x="65.2" y="9" class="st1" width="9.8" height="5.5"/>
	<rect x="75.1" y="9" class="st1" width="9.8" height="5.5"/>
	<rect x="84.9" y="9" class="st1" width="9.8" height="5.5"/>
	<rect x="94.8" y="9" class="st1" width="9.8" height="5.5"/>
	<rect x="104.6" y="9" class="st1" width="9.8" height="5.5"/>
	<rect x="114.5" y="9" class="st1" width="9.8" height="5.5"/>
	<rect x="124.3" y="9" class="st1" width="9.8" height="5.5"/>
	<rect x="134.2" y="9" class="st1" width="9.8" height="5.5"/>
	<rect x="144" y="9" class="st1" width="9.8" height="5.5"/>
	<rect x="6.1" y="14.5" class="st1" width="9.8" height="5.5"/>
	<rect x="16" y="14.5" class="st1" width="9.8" height="5.5"/>
	<rect x="25.8" y="14.5" class="st1" width="9.8" height="5.5"/>
	<rect x="35.7" y="14.5" class="st1" width="9.8" height="5.5"/>
	<rect x="45.5" y="14.5" class="st1" width="9.8" height="5.5"/>
	<rect x="55.4" y="14.5" class="st1" width="9.8" height="5.5"/>
	<rect x="65.2" y="14.5" class="st1" width="9.8" height="5.5"/>
	<rect x="75.1" y="14.5" class="st1" width="9.8" height="5.5"/>
	<rect x="84.9" y="14.5" class="st1" width="9.8" height="5.5"/>
	<rect x="94.8" y="14.5" class="st1" width="9.8" height="5.5"/>
	<rect x="104.6" y="14.5" class="st1" width="9.8" height="5.5"/>
	<rect x="114.5" y="14.5" class="st1" width="9.8" height="5.5"/>
	<rect x="124.3" y="14.5" class="st1" width="9.8" height="5.5"/>
	<rect x="134.2" y="14.5" class="st1" width="9.8" height="5.5"/>
	<rect x="144" y="14.5" class="st1" width="9.8" height="5.5"/>
	<rect x="6.1" y="20.1" class="st1" width="9.8" height="5.5"/>
	<rect x="16" y="20.1" class="st1" width="9.8" height="5.5"/>
	<rect x="25.8" y="20.1" class="st1" width="9.8" height="5.5"/>
	<rect x="35.7" y="20.1" class="st1" width="9.8" height="5.5"/>
	<rect x="45.5" y="20.1" class="st1" width="9.8" height="5.5"/>
	<rect x="55.4" y="20.1" class="st1" width="9.8" height="5.5"/>
	<rect x="65.2" y="20.1" class="st1" width="9.8" height="5.5"/>
	<rect x="75.1" y="20.1" class="st1" width="9.8" height="5.5"/>
	<rect x="84.9" y="20.1" class="st1" width="9.8" height="5.5"/>
	<rect x="94.8" y="20.1" class="st1" width="9.8" height="5.5"/>
	<rect x="104.6" y="20.1" class="st1" width="9.8" height="5.5"/>
	<rect x="114.5" y="20.1" class="st1" width="9.8" height="5.5"/>
	<rect x="124.3" y="20.1" class="st1" width="9.8" height="5.5"/>
	<rect x="134.2" y="20.1" class="st1" width="9.8" height="5.5"/>
	<rect x="144" y="20.1" class="st1" width="9.8" height="5.5"/>
	<rect x="6.1" y="25.6" class="st1" width="9.8" height="5.5"/>
	<rect x="16" y="25.6" class="st1" width="9.8" height="5.5"/>
	<rect x="25.8" y="25.6" class="st1" width="9.8" height="5.5"/>
	<rect x="35.7" y="25.6" class="st1" width="9.8" height="5.5"/>
	<rect x="45.5" y="25.6" class="st1" width="9.8" height="5.5"/>
	<rect x="55.4" y="25.6" class="st1" width="9.8" height="5.5"/>
	<rect x="65.2" y="25.6" class="st1" width="9.8" height="5.5"/>
	<rect x="75.1" y="25.6" class="st1" width="9.8" height="5.5"/>
	<rect x="84.9" y="25.6" class="st1" width="9.8" height="5.5"/>
	<rect x="94.8" y="25.6" class="st1" width="9.8" height="5.5"/>
	<rect x="104.6" y="25.6" class="st1" width="9.8" height="5.5"/>
	<rect x="114.5" y="25.6" class="st1" width="9.8" height="5.5"/>
	<rect x="124.3" y="25.6" class="st1" width="9.8" height="5.5"/>
	<rect x="134.2" y="25.6" class="st1" width="9.8" height="5.5"/>
	<rect x="144" y="25.6" class="st1" width="9.8" height="5.5"/>
	<rect x="6.1" y="31.1" class="st1" width="9.8" height="5.5"/>
	<rect x="16" y="31.1" class="st1" width="9.8" height="5.5"/>
	<rect x="25.8" y="31.1" class="st1" width="9.8" height="5.5"/>
	<rect x="35.7" y="31.1" class="st1" width="9.8" height="5.5"/>
	<rect x="45.5" y="31.1" class="st1" width="9.8" height="5.5"/>
	<rect x="55.4" y="31.1" class="st1" width="9.8" height="5.5"/>
	<rect x="65.2" y="31.1" class="st1" width="9.8" height="5.5"/>
	<rect x="75.1" y="31.1" class="st1" width="9.8" height="5.5"/>
	<rect x="84.9" y="31.1" class="st1" width="9.8" height="5.5"/>
	<rect x="94.8" y="31.1" class="st1" width="9.8" height="5.5"/>
	<rect x="104.6" y="31.1" class="st1" width="9.8" height="5.5"/>
	<rect x="114.5" y="31.1" class="st1" width="9.8" height="5.5"/>
	<rect x="124.3" y="31.1" class="st1" width="9.8" height="5.5"/>
	<rect x="134.2" y="31.1" class="st1" width="9.8" height="5.5"/>
	<rect x="144" y="31.1" class="st1" width="9.8" height="5.5"/>
	<rect x="6.1" y="36.7" class="st1" width="9.8" height="5.5"/>
	<rect x="16" y="36.7" class="st1" width="9.8" height="5.5"/>
	<rect x="25.8" y="36.7" class="st1" width="9.8" height="5.5"/>
	<rect x="35.7" y="36.7" class="st1" width="9.8" height="5.5"/>
	<rect x="45.5" y="36.7" class="st1" width="9.8" height="5.5"/>
	<rect x="55.4" y="36.7" class="st1" width="9.8" height="5.5"/>
	<rect x="65.2" y="36.7" class="st1" width="9.8" height="5.5"/>
	<rect x="75.1" y="36.7" class="st1" width="9.8" height="5.5"/>
	<rect x="84.9" y="36.7" class="st1" width="9.8" height="5.5"/>
	<rect x="94.8" y="36.7" class="st1" width="9.8" height="5.5"/>
	<rect x="104.6" y="36.7" class="st1" width="9.8" height="5.5"/>
	<rect x="114.5" y="36.7" class="st1" width="9.8" height="5.5"/>
	<rect x="124.3" y="36.7" class="st1" width="9.8" height="5.5"/>
	<rect x="134.2" y="36.7" class="st1" width="9.8" height="5.5"/>
	<rect x="144" y="36.7" class="st1" width="9.8" height="5.5"/>
	<rect x="6.1" y="42.2" class="st1" width="9.8" height="5.5"/>
	<rect x="16" y="42.2" class="st1" width="9.8" height="5.5"/>
	<rect x="25.8" y="42.2" class="st1" width="9.8" height="5.5"/>
	<rect x="35.7" y="42.2" class="st1" width="9.8" height="5.5"/>
	<rect x="45.5" y="42.2" class="st1" width="9.8" height="5.5"/>
	<rect x="55.4" y="42.2" class="st1" width="9.8" height="5.5"/>
	<rect x="65.2" y="42.2" class="st1" width="9.8" height="5.5"/>
	<rect x="75.1" y="42.2" class="st1" width="9.8" height="5.5"/>
	<rect x="84.9" y="42.2" class="st1" width="9.8" height="5.5"/>
	<rect x="94.8" y="42.2" class="st1" width="9.8" height="5.5"/>
	<rect x="104.6" y="42.2" class="st1" width="9.8" height="5.5"/>
	<rect x="114.5" y="42.2" class="st1" width="9.8" height="5.5"/>
	<rect x="124.3" y="42.2" class="st1" width="9.8" height="5.5"/>
	<rect x="134.2" y="42.2" class="st1" width="9.8" height="5.5"/>
	<rect x="144" y="42.2" class="st1" width="9.8" height="5.5"/>
	<rect x="6.1" y="47.8" class="st1" width="9.8" height="5.5"/>
	<rect x="16" y="47.8" class="st1" width="9.8" height="5.5"/>
	<rect x="25.8" y="47.8" class="st1" width="9.8" height="5.5"/>
	<rect x="35.7" y="47.8" class="st1" width="9.8" height="5.5"/>
	<rect x="45.5" y="47.8" class="st1" width="9.8" height="5.5"/>
	<rect x="55.4" y="47.8" class="st1" width="9.8" height="5.5"/>
	<rect x="65.2" y="47.8" class="st1" width="9.8" height="5.5"/>
	<rect x="75.1" y="47.8" class="st1" width="9.8" height="5.5"/>
	<rect x="84.9" y="47.8" class="st1" width="9.8" height="5.5"/>
	<rect x="94.8" y="47.8" class="st1" width="9.8" height="5.5"/>
	<rect x="104.6" y="47.8" class="st1" width="9.8" height="5.5"/>
	<rect x="114.5" y="47.8" class="st1" width="9.8" height="5.5"/>
	<rect x="124.3" y="47.8" class="st1" width="9.8" height="5.5"/>
	<rect x="134.2" y="47.8" class="st1" width="9.8" height="5.5"/>
	<rect x="144" y="47.8" class="st1" width="9.8" height="5.5"/>
	<rect x="6.1" y="53.3" class="st1" width="9.8" height="5.5"/>
	<rect x="16" y="53.3" class="st1" width="9.8" height="5.5"/>
	<rect x="25.8" y="53.3" class="st1" width="9.8" height="5.5"/>
	<rect x="35.7" y="53.3" class="st1" width="9.8" height="5.5"/>
	<rect x="45.5" y="53.3" class="st1" width="9.8" height="5.5"/>
	<rect x="55.4" y="53.3" class="st1" width="9.8" height="5.5"/>
	<rect x="65.2" y="53.3" class="st1" width="9.8" height="5.5"/>
	<rect x="75.1" y="53.3" class="st1" width="9.8" height="5.5"/>
	<rect x="84.9" y="53.3" class="st1" width="9.8" height="5.5"/>
	<rect x="94.8" y="53.3" class="st1" width="9.8" height="5.5"/>
	<rect x="104.6" y="53.3" class="st1" width="9.8" height="5.5"/>
	<rect x="114.5" y="53.3" class="st1" width="9.8" height="5.5"/>
	<rect x="124.3" y="53.3" class="st1" width="9.8" height="5.5"/>
	<rect x="134.2" y="53.3" class="st1" width="9.8" height="5.5"/>
	<rect x="144" y="53.3" class="st1" width="9.8" height="5.5"/>
	<rect x="6.1" y="58.9" class="st1" width="9.8" height="5.5"/>
	<rect x="16" y="58.9" class="st1" width="9.8" height="5.5"/>
	<rect x="25.8" y="58.9" class="st1" width="9.8" height="5.5"/>
	<rect x="35.7" y="58.9" class="st1" width="9.8" height="5.5"/>
	<rect x="45.5" y="58.9" class="st1" width="9.8" height="5.5"/>
	<rect x="55.4" y="58.9" class="st1" width="9.8" height="5.5"/>
	<rect x="65.2" y="58.9" class="st1" width="9.8" height="5.5"/>
	<rect x="75.1" y="58.9" class="st1" width="9.8" height="5.5"/>
	<rect x="84.9" y="58.9" class="st1" width="9.8" height="5.5"/>
	<rect x="94.8" y="58.9" class="st1" width="9.8" height="5.5"/>
	<rect x="104.6" y="58.9" class="st1" width="9.8" height="5.5"/>
	<rect x="114.5" y="58.9" class="st1" width="9.8" height="5.5"/>
	<rect x="124.3" y="58.9" class="st1" width="9.8" height="5.5"/>
	<rect x="134.2" y="58.9" class="st1" width="9.8" height="5.5"/>
	<rect x="144" y="58.9" class="st1" width="9.8" height="5.5"/>
	<rect x="6.1" y="64.4" class="st1" width="9.8" height="5.5"/>
	<rect x="16" y="64.4" class="st1" width="9.8" height="5.5"/>
	<rect x="25.8" y="64.4" class="st1" width="9.8" height="5.5"/>
	<rect x="35.7" y="64.4" class="st1" width="9.8" height="5.5"/>
	<rect x="45.5" y="64.4" class="st1" width="9.8" height="5.5"/>
	<rect x="55.4" y="64.4" class="st1" width="9.8" height="5.5"/>
	<rect x="65.2" y="64.4" class="st1" width="9.8" height="5.5"/>
	<rect x="75.1" y="64.4" class="st1" width="9.8" height="5.5"/>
	<rect x="84.9" y="64.4" class="st1" width="9.8" height="5.5"/>
	<rect x="94.8" y="64.4" class="st1" width="9.8" height="5.5"/>
	<rect x="104.6" y="64.4" class="st1" width="9.8" height="5.5"/>
	<rect x="114.5" y="64.4" class="st1" width="9.8" height="5.5"/>
	<rect x="124.3" y="64.4" class="st1" width="9.8" height="5.5"/>
	<rect x="134.2" y="64.4" class="st1" width="9.8" height="5.5"/>
	<rect x="144" y="64.4" class="st1" width="9.8" height="5.5"/>
	<rect x="6.1" y="69.9" class="st1" width="9.8" height="5.5"/>
	<rect x="16" y="69.9" class="st1" width="9.8" height="5.5"/>
	<rect x="25.8" y="69.9" class="st1" width="9.8" height="5.5"/>
	<rect x="35.7" y="69.9" class="st1" width="9.8" height="5.5"/>
	<rect x="45.5" y="69.9" class="st1" width="9.8" height="5.5"/>
	<rect x="55.4" y="69.9" class="st1" width="9.8" height="5.5"/>
	<rect x="65.2" y="69.9" class="st1" width="9.8" height="5.5"/>
	<rect x="75.1" y="69.9" class="st1" width="9.8" height="5.5"/>
	<rect x="84.9" y="69.9" class="st1" width="9.8" height="5.5"/>
	<rect x="94.8" y="69.9" class="st1" width="9.8" height="5.5"/>
	<rect x="104.6" y="69.9" class="st1" width="9.8" height="5.5"/>
	<rect x="114.5" y="69.9" class="st1" width="9.8" height="5.5"/>
	<rect x="124.3" y="69.9" class="st1" width="9.8" height="5.5"/>
	<rect x="134.2" y="69.9" class="st1" width="9.8" height="5.5"/>
	<rect x="144" y="69.9" class="st1" width="9.8" height="5.5"/>
	<rect x="6.1" y="75.5" class="st1" width="9.8" height="5.5"/>
	<rect x="16" y="75.5" class="st1" width="9.8" height="5.5"/>
	<rect x="25.8" y="75.5" class="st1" width="9.8" height="5.5"/>
	<rect x="35.7" y="75.5" class="st1" width="9.8" height="5.5"/>
	<rect x="45.5" y="75.5" class="st1" width="9.8" height="5.5"/>
	<rect x="55.4" y="75.5" class="st1" width="9.8" height="5.5"/>
	<rect x="65.2" y="75.5" class="st1" width="9.8" height="5.5"/>
	<rect x="75.1" y="75.5" class="st1" width="9.8" height="5.5"/>
	<rect x="84.9" y="75.5" class="st1" width="9.8" height="5.5"/>
	<rect x="94.8" y="75.5" class="st1" width="9.8" height="5.5"/>
	<rect x="104.6" y="75.5" class="st1" width="9.8" height="5.5"/>
	<rect x="114.5" y="75.5" class="st1" width="9.8" height="5.5"/>
	<rect x="124.3" y="75.5" class="st1" width="9.8" height="5.5"/>
	<rect x="134.2" y="75.5" class="st1" width="9.8" height="5.5"/>
	<rect x="144" y="75.5" class="st1" width="9.8" height="5.5"/>
	<rect x="6.1" y="81" class="st1" width="9.8" height="5.5"/>
	<rect x="16" y="81" class="st1" width="9.8" height="5.5"/>
	<rect x="25.8" y="81" class="st1" width="9.8" height="5.5"/>
	<rect x="35.7" y="81" class="st1" width="9.8" height="5.5"/>
	<rect x="45.5" y="81" class="st1" width="9.8" height="5.5"/>
	<rect x="55.4" y="81" class="st1" width="9.8" height="5.5"/>
	<rect x="65.2" y="81" class="st1" width="9.8" height="5.5"/>
	<rect x="75.1" y="81" class="st1" width="9.8" height="5.5"/>
	<rect x="84.9" y="81" class="st1" width="9.8" height="5.5"/>
	<rect x="94.8" y="81" class="st1" width="9.8" height="5.5"/>
	<rect x="104.6" y="81" class="st1" width="9.8" height="5.5"/>
	<rect x="114.5" y="81" class="st1" width="9.8" height="5.5"/>
	<rect x="124.3" y="81" class="st1" width="9.8" height="5.5"/>
	<rect x="134.2" y="81" class="st1" width="9.8" height="5.5"/>
	<rect x="144" y="81" class="st1" width="9.8" height="5.5"/>
</g>
<g>
	<g>
		<path class="st2" d="M34.4,44.1l12.2-8V42l-6,4.2l6,4.2v5.8l-12.2-7.6V44.1z"/>
		<path class="st2" d="M61.3,47.8H49.5V43h11.8V47.8z"/>
		<path class="st2" d="M88.2,40.6c0,5.6-6,5.4-6,8.4h-5.7c0-5.2,6.4-4.9,6.4-7.5c0-1.5-1.3-2.6-3-2.6c-1.7,0-2.9,1.2-2.9,2.5h-5.3
			c0-4.4,3.2-7.3,8.5-7.3C85.7,34.2,88.2,37.1,88.2,40.6z M82.6,53.6c0,1.7-1.4,3.1-3.2,3.1c-1.7,0-3.1-1.4-3.1-3.1
			c0-1.8,1.4-3.2,3.1-3.2C81.2,50.4,82.6,51.9,82.6,53.6z"/>
		<path class="st2" d="M110.5,47.8H98.7V43h11.8V47.8z"/>
		<path class="st2" d="M119.4,46.1l-6-4.2v-5.9l12.2,8v4.4l-12.2,7.6v-5.8L119.4,46.1z"/>
	</g>
</g>
<g>
	<g>
		<path d="M34.4,44.1l12.2-8V42l-6,4.2l6,4.2v5.8l-12.2-7.6V44.1z"/>
		<path d="M61.3,47.8H49.5V43h11.8V47.8z"/>
		<path d="M88.2,40.6c0,5.6-6,5.4-6,8.4h-5.7c0-5.2,6.4-4.9,6.4-7.5c0-1.5-1.3-2.6-3-2.6c-1.7,0-2.9,1.2-2.9,2.5h-5.3
			c0-4.4,3.2-7.3,8.5-7.3C85.7,34.2,88.2,37.1,88.2,40.6z M82.6,53.6c0,1.7-1.4,3.1-3.2,3.1c-1.7,0-3.1-1.4-3.1-3.1
			c0-1.8,1.4-3.2,3.1-3.2C81.2,50.4,82.6,51.9,82.6,53.6z"/>
		<path d="M110.5,47.8H98.7V43h11.8V47.8z"/>
		<path d="M119.4,46.1l-6-4.2v-5.9l12.2,8v4.4l-12.2,7.6v-5.8L119.4,46.1z"/>
	</g>
</g>
</svg>
