<?xml version="1.0" encoding="utf-8"?>
<!-- Generator: Adobe Illustrator 28.3.0, SVG Export Plug-In . SVG Version: 6.00 Build 0)  -->
<svg version="1.1" id="Layer_1" xmlns="http://www.w3.org/2000/svg" xmlns:xlink="http://www.w3.org/1999/xlink" x="0px" y="0px"
	 viewBox="0 0 512.5 499.7" style="enable-background:new 0 0 512.5 499.7;" xml:space="preserve">
<g>
	<path d="M421.8,20c39,0,70.8,31.7,70.8,70.8v318.2c0,39-31.7,70.8-70.8,70.8h-331c-39,0-70.8-31.7-70.8-70.8V90.8
		C20,51.7,51.7,20,90.8,20H421.8 M421.8,0h-331C40.6,0,0,40.6,0,90.8v318.2c0,50.1,40.6,90.8,90.8,90.8h331
		c50.1,0,90.8-40.6,90.8-90.8V90.8C512.5,40.6,471.9,0,421.8,0L421.8,0z"/>
</g>
<path d="M110.8,350.4V130.7c0-1.6,0.7-2.4,2.1-2.4c3.7,0,8-0.1,13.1-0.2c5-0.1,10.5-0.2,16.3-0.3l18.6-0.3c6.5-0.1,13-0.2,19.4-0.2
	c17.4,0,32.1,2.2,44,6.5c10.8,3.6,20.6,9.6,28.7,17.5c6.9,6.9,12.2,15.1,15.6,24.2c3.2,8.9,4.9,18.2,4.8,27.7
	c0,18.3-4.2,33.5-12.7,45.4c-8.5,12-20.5,21-34.4,26c-15.4,5.6-31.7,8.3-48.1,8.1c-5,0-8.6-0.1-10.7-0.2c-2.1-0.1-5.2-0.2-9.3-0.2
	v67.7c0.2,1.5-0.8,2.9-2.3,3.1c-0.3,0-0.5,0-0.8,0h-41.9C111.7,353.1,110.8,352.2,110.8,350.4z M158.3,169.6v71.2
	c3,0.2,5.7,0.3,8.2,0.3h11.3c8.3,0.1,16.6-1,24.6-3.4c6.8-2,12.9-6,17.5-11.3c4.5-5.3,6.7-12.6,6.7-22c0.2-6.6-1.6-13.2-5-18.9
	c-3.6-5.5-8.9-9.8-15-12.2c-8-3.1-16.5-4.6-25.1-4.3c-5.5,0-10.4,0.1-14.6,0.2C162.8,169.2,159.8,169.3,158.3,169.6L158.3,169.6z"/>
<path d="M401,319.1v28.2c0,2.5-0.9,4-2.8,4.5c-4.5,1.4-9.1,2.6-13.8,3.4c-5.4,1-11,1.4-16.5,1.4c-14.9,0-26.6-3.9-35.1-11.7
	s-12.7-20.3-12.7-37.5v-85.3h-20.3c-1.8,0-2.8-1-2.8-3.1V185c0-1.8,1-2.8,3.1-2.8h20.3c0.2-3.9,0.5-8.4,0.9-13.6
	c0.4-5.1,0.8-10.3,1.4-15.5s1.1-9.3,1.5-12.5c0.2-0.7,0.6-1.3,1-1.9c0.4-0.6,1-1,1.7-1.2l40.9-5.1c0.6-0.2,1.3-0.2,1.9,0.1
	c0.5,0.2,0.5,0.8,0.5,2c-0.5,5.3-0.8,12.4-1,21.5c-0.2,9.1-0.4,17.8-0.7,26.3h32c1.4,0,2.1,0.9,2.1,2.8v34.7
	c0.2,1.1-0.6,2.2-1.7,2.4h-32.7v73.6c0,7.8,1.3,13.4,4,16.7c2.7,3.3,7.5,5,14.6,5c2.1,0,4,0,5.9-0.2s3.7-0.3,5.5-0.5
	c0.6-0.2,1.3-0.2,1.9,0.2C400.8,317.5,401.1,318.3,401,319.1z"/>
</svg>
