<?xml version="1.0" encoding="utf-8"?>
<!-- Generator: Adobe Illustrator 28.3.0, SVG Export Plug-In . SVG Version: 6.00 Build 0)  -->
<svg version="1.1" id="Layer_1" xmlns="http://www.w3.org/2000/svg" xmlns:xlink="http://www.w3.org/1999/xlink" x="0px" y="0px"
	 viewBox="0 0 700 700" style="enable-background:new 0 0 700 700;" xml:space="preserve">
<g>
	<path d="M446.7,20c85.4,0,128.2,0,157.8,15.1c26.2,13.3,47.1,34.3,60.5,60.5C680,125.1,680,168,680,253.3v193.3
		c0,85.4,0,128.2-15.1,157.8c-13.3,26.2-34.3,47.1-60.5,60.5C574.9,680,532,680,446.7,680H253.3c-85.4,0-128.2,0-157.8-15.1
		c-26.2-13.3-47.1-34.3-60.5-60.5C20,574.9,20,532,20,446.7V253.3c0-85.4,0-128.2,15.1-157.8c13.3-26.2,34.3-47.1,60.5-60.5
		C125.1,20,168,20,253.3,20H446.7 M446.7,0H253.3c-88.7,0-133,0-166.9,17.3c-29.8,15.2-54,39.4-69.2,69.2C0,120.3,0,164.7,0,253.3
		v193.3c0,88.7,0,133,17.3,166.9c15.2,29.8,39.4,54,69.2,69.2C120.3,700,164.7,700,253.3,700h193.3c88.7,0,133,0,166.9-17.3
		c29.8-15.2,54-39.4,69.2-69.2C700,579.7,700,535.3,700,446.7V253.3c0-88.7,0-133-17.3-166.9c-15.2-29.8-39.4-54-69.2-69.2
		C579.7,0,535.3,0,446.7,0L446.7,0z"/>
</g>
<path d="M294.7,439.1H186.3l-22.1,70.5c-0.6,2.6-3,4.5-5.6,4.3h-54.9c-3.1,0-4.2-1.8-3.3-5.3l93.9-276.3c0.9-2.9,1.9-5.7,2.8-9.4
	c1.2-6.4,1.9-13,1.9-19.5c-0.3-1.9,1.4-3.6,3.3-3.4h74.7c2.2,0,3.4,0.8,3.8,2.4l106.6,306.6c0.9,3.2,0,4.8-2.8,4.8h-61
	c-2.1,0.2-4.2-1.2-4.7-3.4L294.7,439.1z M203.2,379.7h74.2c-12.2-41.7-25.9-82.8-37.1-124.7C227.6,298.5,216,338.9,203.2,379.7z"/>
<path d="M466.5,411.9c4.3,35.8,34.4,52.8,67.6,52.1c18.8-0.4,38.8-3.3,56.3-10.4c1.6-1.3,2.3-0.5,2.3,2.4v45.8
	c0.1,2.4-0.8,4.5-2.8,5.8c-21.8,9.9-46.8,12.9-70.4,12.5c-70.4,0-118.8-49.6-118.8-121.9C400.6,329.8,445,272,513.9,272
	c58.5-1.5,98.9,45.3,99.1,103.5c0,10.6-0.6,21.3-1.9,31.8c-0.2,2.2-2.1,3.9-4.2,3.9C560.2,411.2,513.3,411.9,466.5,411.9z
	 M466.5,368c26,0,52.2,0.9,78.2-0.2c3.9-0.4,6.8-1.1,6.8-5.2c-0.5-21.6-18.8-39.4-39.9-38.5C486,322.5,469.7,344,466.5,368z"/>
</svg>
