<?xml version="1.0" encoding="utf-8"?>
<!-- Generator: Adobe Illustrator 28.3.0, SVG Export Plug-In . SVG Version: 6.00 Build 0)  -->
<svg version="1.1" id="Layer_1" xmlns="http://www.w3.org/2000/svg" xmlns:xlink="http://www.w3.org/1999/xlink" x="0px" y="0px"
	 viewBox="0 0 700 700" style="enable-background:new 0 0 700 700;" xml:space="preserve">
<g>
	<path d="M446.7,20c85.4,0,128.2,0,157.8,15.1c26.2,13.3,47.1,34.3,60.5,60.5C680,125.1,680,168,680,253.3v193.3
		c0,85.4,0,128.2-15.1,157.8c-13.3,26.2-34.3,47.1-60.5,60.5C574.9,680,532,680,446.7,680H253.3c-85.4,0-128.2,0-157.8-15.1
		c-26.2-13.3-47.1-34.3-60.5-60.5C20,574.9,20,532,20,446.7V253.3c0-85.4,0-128.2,15.1-157.8c13.3-26.2,34.3-47.1,60.5-60.5
		C125.1,20,168,20,253.3,20H446.7 M446.7,0H253.3c-88.7,0-133,0-166.9,17.3c-29.8,15.2-54,39.4-69.2,69.2C0,120.3,0,164.7,0,253.3
		v193.3c0,88.7,0,133,17.3,166.9c15.2,29.8,39.4,54,69.2,69.2C120.3,700,164.7,700,253.3,700h193.3c88.7,0,133,0,166.9-17.3
		c29.8-15.2,54-39.4,69.2-69.2C700,579.7,700,535.3,700,446.7V253.3c0-88.7,0-133-17.3-166.9c-15.2-29.8-39.4-54-69.2-69.2
		C579.7,0,535.3,0,446.7,0L446.7,0z"/>
</g>
<path d="M150,494.9V180.2c0-2.1,0.9-3.4,2.9-3.4c30.2,0,60.4-1.8,90.7-1.8c49.1,0,102.2,17.1,120.8,69.4c4.4,12.8,6.7,26,6.7,39.8
	c0,26.3-5.8,48-17.6,65.1c-32.7,47.8-89.3,47.1-140.1,47.1v98.2c0.4,2.9-2,4.3-4.4,4.3h-55.6C151.2,498.9,150,497.6,150,494.9z
	 M213.8,235.9v102.8c20.1,1.5,41.2,1.7,60.6-4.9c21.4-6.3,33.1-25.1,33.1-47.7c0.6-19.2-9.7-37.7-27.2-44.7
	C261.1,233.3,234.4,232.8,213.8,235.9z"/>
<path d="M410.8,255.3h51.3c2.8,0,5.4,2.1,6.1,4.9c3.8,8.7,4.2,19.3,4.2,28.7c8.8-10.7,19.4-19.6,31.3-26.3
	c12.8-7.5,27.2-11.4,41.9-11.1c2.4-0.4,4.6,1.9,4.2,4.4v59.6c0,2.3-1.6,3.4-4.7,3.4c-21.7-1.6-55.6,3.8-71.3,21.7v154.9
	c0,3-1.3,4.4-3.8,4.4h-55.1c-2.7,0.4-5.1-2.1-4.7-4.9V326.8c0-22.5,0.5-45.8-2.8-68.1C407,256.7,408.9,254.8,410.8,255.3z"/>
</svg>
