<?xml version="1.0" encoding="utf-8"?>
<!-- Generator: Adobe Illustrator 28.3.0, SVG Export Plug-In . SVG Version: 6.00 Build 0)  -->
<svg version="1.1"
	 id="Layer_1" xmlns:cc="http://creativecommons.org/ns#" xmlns:svg="http://www.w3.org/2000/svg" xmlns:dc="http://purl.org/dc/elements/1.1/" xmlns:rdf="http://www.w3.org/1999/02/22-rdf-syntax-ns#"
	 xmlns="http://www.w3.org/2000/svg" xmlns:xlink="http://www.w3.org/1999/xlink" x="0px" y="0px" viewBox="0 0 700 700"
	 style="enable-background:new 0 0 700 700;" xml:space="preserve">
<path d="M362.6,58.1C340.9,59,324,77.3,324.9,99c0.5,12,6.4,23.2,16.2,30.3l45.9,34.4c-18.3,4.4-35.8,11-52.2,19.5H144.1
	c-24.8-0.4-45.3,19.5-45.6,44.3c-0.4,24.8,19.5,45.3,44.3,45.6c0.4,0,0.8,0,1.3,0h96.8c-3.9,6.8-7.5,13.9-10.7,21.1L42.8,444
	c-19.4,15.5-22.6,43.8-7,63.3c15.5,19.4,43.8,22.6,63.3,7l113.9-91C230,533.7,325.6,618.5,440.8,618.5
	c127.3,0,230.5-103.2,230.5-230.5c0-92.3-54.4-171.9-132.7-208.7L388.3,66.4C381,60.7,371.9,57.8,362.6,58.1z M445.6,241.4
	c75.6,0,136.9,56.9,136.9,127.2S521.2,496,445.6,496c-75.6,0-136.9-57.1-136.9-127.4S370,241.4,445.6,241.4z M445.6,279.9
	c-52.8,0-95.6,39.7-95.6,88.7s42.8,88.9,95.6,88.9s95.6-39.8,95.6-88.9S498.4,279.9,445.6,279.9z"/>
</svg>
