<?xml version="1.0" encoding="utf-8"?>
<!-- Generator: Adobe Illustrator 28.3.0, SVG Export Plug-In . SVG Version: 6.00 Build 0)  -->
<svg version="1.1" id="Layer_1" xmlns="http://www.w3.org/2000/svg" xmlns:xlink="http://www.w3.org/1999/xlink" x="0px" y="0px"
	 viewBox="0 0 700 700" style="enable-background:new 0 0 700 700;" xml:space="preserve">
<style type="text/css">
	.st0{fill:#020202;}
</style>
<g>
	<path d="M446.7,20c85.4,0,128.2,0,157.8,15.1c26.2,13.3,47.1,34.3,60.5,60.5c15,29.5,15,72.4,15,157.7v193.3
		c0,85.4,0,128.2-15.1,157.8c-13.3,26.2-34.3,47.1-60.5,60.5C574.9,680,532,680,446.7,680H253.3c-85.4,0-128.2,0-157.8-15.1
		c-26.2-13.3-47.1-34.3-60.5-60.5C20,574.9,20,532,20,446.7V253.3c0-85.4,0-128.2,15.1-157.8C48.4,69.3,69.4,48.4,95.6,35
		c29.5-15,72.4-15,157.7-15H446.7 M446.7,0H253.3c-88.7,0-133,0-166.9,17.3c-29.8,15.2-54,39.4-69.2,69.2C0,120.3,0,164.7,0,253.3
		v193.3c0,88.7,0,133,17.3,166.9c15.2,29.8,39.4,54,69.2,69.2C120.3,700,164.7,700,253.3,700h193.3c88.7,0,133,0,166.9-17.3
		c29.8-15.2,54-39.4,69.2-69.2C700,579.7,700,535.3,700,446.7V253.3c0-88.7,0-133-17.3-166.9c-15.2-29.8-39.4-54-69.2-69.2
		C579.7,0,535.3,0,446.7,0L446.7,0z"/>
</g>
<path class="st0" d="M264.4,350.1c-21.4-10.6-41.5-20.6-61.5-30.5c-18.7-9.2-37.3-18.6-56-27.6c-6.2-3-9-7.3-8.6-14.1
	c0.8-12.7-1.3-25.4,1.2-38c5.5-27.3,28-46.5,56.1-46.6c78.5-0.3,157.1-0.2,235.6,0c23.9,0.1,45.9,16.8,53.3,40.1
	c1.8,5.8,3.6,6.1,8.7,3.5c20.2-10.4,40.7-20.3,61.1-30.4c6.5-3.2,7.8-2.4,7.9,5.1c0.1,10.1-0.4,20.2,0.2,30.3
	c0.4,7.1-2.5,10.8-8.7,13.8c-61,30.1-121.8,60.3-182.7,90.6c-2.3,1.1-4.6,2.4-7.9,4.3c12.1,6,23.3,11.6,34.5,17.2
	c52.1,25.8,104.2,51.7,156.4,77.3c5.9,2.9,8.8,6.4,8.4,13.2c-0.5,9.6-0.1,19.2-0.1,28.8c0,9.9-0.8,10.4-9.4,6.2
	c-19.9-9.9-40-19.6-59.7-29.8c-5.3-2.8-6.3-1.6-8.1,3.5c-8.7,25.2-30.4,40.4-56.9,40.3c-76.4,0-152.7,0-229.1-0.1
	c-31.7,0-54.3-18-59.8-48.9c-2.4-13.4-0.7-27.3-0.5-41c0.1-5,4.6-6.9,8.5-8.8c34.1-16.9,68.2-33.8,102.3-50.7
	C253.8,355.3,258.3,353.1,264.4,350.1z M312.5,236.5c-37.2,0-74.5,0-111.7,0c-3.4,0-6.7,0-9.9,1.2c-7.2,2.7-8.9,8.8-9.3,15.6
	c-0.2,3.7-0.6,6.9,4.2,9.3c41.3,20.1,82.4,40.7,123.6,61.2c2.8,1.4,5,1.7,8,0.2c40.7-20.3,81.5-40.5,122.3-60.6
	c3.2-1.6,4.5-3.3,4.5-7c0.1-14.2-5-19.7-19.2-19.8C387.4,236.5,350,236.5,312.5,236.5z M312.8,463.6c37.2,0,74.5,0,111.7,0
	c3.1,0,6.3-0.1,9.3-0.9c7.5-2,9.4-8,10.3-14.8c0.8-6.2-1.2-9.7-7.3-12.6c-39.5-19-78.7-38.5-117.9-58c-4-2-7-2.2-11.1-0.1
	c-38.9,19.5-78,38.8-117.1,58.1c-10.4,5.2-11,6.3-8.1,17.5c2,7.7,6.8,10.8,17.1,10.9C237.4,463.6,275.1,463.6,312.8,463.6z"/>
</svg>
