<?xml version="1.0" encoding="utf-8"?>
<!-- Generator: Adobe Illustrator 28.3.0, SVG Export Plug-In . SVG Version: 6.00 Build 0)  -->
<svg version="1.1" id="Layer_1" xmlns="http://www.w3.org/2000/svg" xmlns:xlink="http://www.w3.org/1999/xlink" x="0px" y="0px"
	 viewBox="0 0 429.5 429.5" style="enable-background:new 0 0 429.5 429.5;" xml:space="preserve">
<path d="M214.8,0.1c40.9,0,81.9-0.2,122.8,0c43,0.2,79.1,28.8,89.2,70.5c1.6,6.6,2.5,13.5,2.5,20.2c0.2,82.5,0.3,165,0,247.6
	c-0.1,49.8-40.8,90.7-90.5,90.9c-82.7,0.3-165.4,0.3-248.1,0C41,429,0.3,388,0.2,338.4c-0.2-82.4-0.2-164.7,0-247.1
	C0.3,41.3,40.9,0.5,91,0.2C132.2-0.1,173.5,0.1,214.8,0.1z M237.5,296.7c2.1-0.9,3.6-1.6,5.1-2.3c16-6.6,31.8-13.5,47.9-19.7
	c57.5-22.1,74.1-90.3,44.5-137.9c-32.8-52.9-98.5-60.8-140.8-45.3c-24.3,8.9-48,19.4-71.8,29.6c-6.6,2.9-13.1,6.7-18.7,11.2
	c-18.8,14.8-27.1,34.5-22.5,58.1c4.5,23,19.5,37.1,41.4,44.2c14.2,4.6,28.7,4.8,42.8,0.3c16.1-5.2,31.8-11.7,47.5-17.8
	c10.8-4.2,21.6-8.7,32.2-13.5c9.7-4.3,13-11,11-20.8c-2.9-14-17.3-21.5-31.4-16.1c-10.2,3.9-20.2,8.4-30.4,12.5
	c-13.4,5.3-26.7,11.2-40.4,15.4c-5.2,1.6-12.1,0.9-17.3-1.1c-12-4.7-13.1-18.7-2.6-26c2.8-2,6-3.6,9.2-4.9
	c21.3-8.9,42.6-17.8,64.1-26.3c14.7-5.8,29.7-9.2,45.8-6.5c27.6,4.6,49.2,28,50,54.8c0.6,21.1-8.7,39.7-30.7,47.4
	c-6.4,2.2-12.6,5.1-18.9,7.7c-24.3,10-48.5,19.9-72.8,30c-7.4,3.1-9.6,8.3-5.7,14.5c10.5,16.8,20.9,33.6,31.9,50
	c7.8,11.7,23,14,34.3,6.1c9.6-6.6,11.4-20.1,4.2-31.7C242.9,304.8,240.4,301.1,237.5,296.7z"/>
</svg>
