<?xml version="1.0" encoding="utf-8"?>
<!-- Generator: Adobe Illustrator 28.3.0, SVG Export Plug-In . SVG Version: 6.00 Build 0)  -->
<svg version="1.1" id="Layer_1" xmlns="http://www.w3.org/2000/svg" xmlns:xlink="http://www.w3.org/1999/xlink" x="0px" y="0px"
	 viewBox="0 0 700 700" style="enable-background:new 0 0 700 700;" xml:space="preserve">
<g>
	<path d="M350,5C159.6,5,5.1,159.5,5,349.8C4.9,540.2,159.3,694.8,349.9,695C540.2,695.1,695,540.5,695,350
		C695,159.6,540.4,4.9,350,5z M587,220.3c-37.3,59.8-74.7,119.7-112,179.5c-0.3,0.5-0.7,1-1,1.5c0,0-0.1,0-0.1-0.1
		c-12.2,19.5-24.3,39.1-36.5,58.6c-28.3,45.4-56.7,90.8-85,136.2c-2.4,3.8-2.4,3.8-4.8,0c-40.1-64.2-80.2-128.5-120.3-192.7
		c-0.4-0.6-0.7-1.3-1.1-2c0,0-0.1,0-0.1,0.1c-15.6-25-31.2-50-46.8-74.9c-20.8-33.2-41.5-66.5-62.3-99.7c-4.4-7-8.8-14.1-13.2-21.2
		c-0.3-0.5-0.8-0.9-0.3-1.8c6.4,2.6,12.2,6.2,18.2,9.4c19.4,10.3,38.7,20.7,58.1,31.1c37.6,20.1,75.2,40.2,112.8,60.3
		c17.8,9.5,35.6,19,53.4,28.5c1,0.6,2.1,1.3,3.1,2c0.1,0,0.1,0,0.2,0c0.5,0,0.9,0,1.4,0l0,0c6.3-4.2,13.2-7.4,19.9-11
		c47.5-25.4,95.1-50.8,142.7-76.2c26.6-14.2,53.2-28.5,79.8-42.7c1.1-0.6,2.1-1.6,4.1-1.3C593.7,209.5,590.4,214.9,587,220.3z"/>
	<path d="M350.1,537.1c-1.2-0.3-1.5-1.5-2-2.3c-9.5-15.2-19-30.4-28.5-45.6c-15-24-29.9-48-45-71.9c-1.8-2.9-1.3-4,1.5-5.5
		c23.5-12.4,47-25,70.4-37.6c2.4-1.3,4.3-1.5,6.9-0.1c23.5,12.7,47.1,25.3,70.7,37.7c2.8,1.5,3.1,2.5,1.4,5.3
		c-24.6,39.1-49,78.3-73.5,117.5C351.5,535.5,351.1,536.6,350.1,537.1z"/>
	<path d="M254.5,385.8c-4-8.2-9.3-15.7-14.1-23.4c-14.2-22.9-28.5-45.7-42.8-68.6c-0.6-0.9-1-1.8-1.2-3.3c4.4,2.3,8.8,4.6,13.2,6.9
		c23,12.3,46,24.6,69,36.9c11.1,5.9,22.2,11.8,33.3,17.7c0.9,0.5,1.9,1,2.3,2.1c-19.3,10.3-38.5,20.6-57.8,30.9
		C255.9,385.4,255.2,385.5,254.5,385.8z"/>
	<path d="M385.7,354.2c0.5-1.6,2-1.9,3.2-2.6c37.6-20.1,75.2-40.2,112.8-60.2c0.6-0.3,1.1-0.9,2.3-0.5c-0.9,1.4-1.7,2.8-2.5,4.2
		c-17.9,28.7-35.9,57.4-53.8,86.2c-0.9,1.4-2,2.7-2.3,4.4c-1.4,0-2.4-0.9-3.6-1.5C423.2,374.2,404.4,364.2,385.7,354.2z"/>
</g>
</svg>
