<?xml version="1.0" encoding="utf-8"?>
<!-- Generator: Adobe Illustrator 28.3.0, SVG Export Plug-In . SVG Version: 6.00 Build 0)  -->
<svg version="1.1" id="Layer_1" xmlns="http://www.w3.org/2000/svg" xmlns:xlink="http://www.w3.org/1999/xlink" x="0px" y="0px"
	 viewBox="0 0 700 700" style="enable-background:new 0 0 700 700;" xml:space="preserve">
<path d="M350,5.5C159.7,5.5,5.5,159.7,5.5,350S159.7,694.5,350,694.5S694.5,540.3,694.5,350S540.3,5.5,350,5.5z M542.5,334.9
	c-4,2.4-8.1,4.9-12.1,7.3c-21.5,13.2-36.1,22.1-46.2,28.2c-65.2,40.3-133.4,76.8-200.8,114.4c-24.6,15.3-48.7,31.1-72.3,47.8
	c-21,13.4-42.7,25.9-43.6,24c-1.5-3-3.1-7.1-1.5-13.2c1.5-6.1,13.3-51.2,14.3-65.9c1-14.7-6.7-55.3-6.7-63.9S158.3,260,158.3,260
	c-3.1-16.9,5.4-27.8,25.6-32.5c84.3-23.8,151.6-52.1,221.5-80.7c6.4-2.3,9.4-3.2,19.7-3.3c10.3-0.1,24.8,4.3,33.3,16.3
	c23.6,38.4,43.6,68.6,58.2,94.4c1.5-1.3,2.6-2.3,3.4-2.9c5.6-4.4,11.4-10.6,16.5-14.3c9.4-6.3,11.4-6.5,15.6,2.5
	c9.6,21,18.4,51.7,19,77.7c-10.5,6.5-19.9,12.3-28.5,17.6C542.5,334.7,542.5,334.8,542.5,334.9z"/>
<path vector-effect="non-scaling-stroke" d="M485,272.1c-145.9,77.2-224.6,108.7-318.3,149.4c-1.3,0.6-2.2,2-2,3.4
	c0.5,4,1.1,8.8,1.9,14.4c0.3,2.2,2.6,3.5,4.6,2.6c91.1-37.7,169.1-74.1,284.6-134.8c1.6-0.8,20-16.6,19.2-18.2
	c-0.9-1.8,14.2-9.9,13.3-11.7l5.8-7.7l8.2-8.3C501.4,259.7,486.6,271.3,485,272.1z M400.1,357.8C252.5,436,266.6,421.7,171.9,463
	c-1.3,0.6-2.1,1.9-2,3.4c0.5,5.4,0.7,10.3,0.5,13.7c0,0.3-0.1,0.6-0.1,1c-0.3,2.6,2.2,4.5,4.6,3.5c91.6-38.1,62-21.5,177.2-82.2
	c1.1-0.6,14.6-5.6,14.6-6.8l29.3-34.7c0,0,7.8-4.7,7.8-4.8L400.1,357.8z"/>
<path d="M277.2,494.5l-6.6-8.7c1.4-1.3,136.4-134.8,159.9-159.3c22.5-23.3,71-66.6,82.7-76.9c0.9-0.7,1.5-1.3,2.1-1.8
	c0.4-0.3,0.7-0.6,1-0.8l0.2-0.1c2.4-1.9,5-4.3,7.5-6.6c3-2.8,6.2-5.7,9.1-7.8l0.2-0.1c5.7-3.8,10.1-6.4,14.8-5.1
	c4.5,1.3,6.9,5.6,8.9,9.9c8.6,18.8,18.8,51,19.5,79.9l0.1,3.1l-2.7,1.7c-36.3,22.5-65.6,40.5-86.9,53.3
	c-50.2,31-103,60.2-154.1,88.5C314.7,473.6,295.7,484.1,277.2,494.5z M523.4,255.3c-0.2,0.2-0.5,0.4-0.8,0.7
	c-0.6,0.5-1.3,1.2-2.2,1.9c-11.6,10.2-59.8,53.2-82,76.2c-16.8,17.5-90.1,90.3-131.5,131.2c6.9-3.9,13.9-7.7,20.7-11.5
	c51-28.2,103.7-57.3,153.6-88.2c20.8-12.5,49-29.9,84.1-51.6c-1.3-26.4-10.6-55.3-18.4-72.4c-0.9-2-1.6-3-1.9-3.6
	c-1.5,0.7-4.4,2.6-5.5,3.3c-2.4,1.8-5.2,4.3-8.1,7C528.9,250.7,526.1,253.2,523.4,255.3z"/>
</svg>
