<?xml version="1.0" encoding="utf-8"?>
<!-- Generator: Adobe Illustrator 28.3.0, SVG Export Plug-In . SVG Version: 6.00 Build 0)  -->
<svg version="1.1" id="Layer_1" xmlns="http://www.w3.org/2000/svg" xmlns:xlink="http://www.w3.org/1999/xlink" x="0px" y="0px"
	 viewBox="0 0 700 700" style="enable-background:new 0 0 700 700;" xml:space="preserve">
<path d="M548.5,532.4l-108-181.9l108-181.9l52.1,181.9L548.5,532.4L548.5,532.4z M307.8,514.9L171.9,380.1h216l108,181.9
	L307.8,514.9L307.8,514.9z M307.8,186.1l188.1-47L387.9,321h-216L307.8,186.1z M650,288.6L584.1,49.5l-245.9,64.1l-36.4,62.5
	l-73.9-0.5l-180,175l180,175l73.8-0.6l36.5,62.5l245.8,64.1l65.9-239l-37.4-62L650,288.6z"/>
</svg>
