<?xml version="1.0" encoding="UTF-8"?><svg id="Layer_1" xmlns="http://www.w3.org/2000/svg" viewBox="0 0 500 500"><defs><style>.cls-1{fill:#000;stroke-width:0px;}</style></defs><path class="cls-1" d="M298.96,178.43c-1.2,4.44-2.49,9.21-3.81,14.12,7.71-1.38,15.11-2.7,22.43-4.01.05-.33.1-.42.08-.48-.85-2.77-.34-3.42,2.58-3.78,7.01-.86,14.02-1.7,20.99-2.78,2-.31,3.57.18,5.15,1.12,11.47,6.87,23.68,12.32,35.58,18.37,1.52.77,3.31,1.19,4.24,2.88.12.22.5.3.77.43,3.78,1.86,7.56,3.71,11.34,5.56.26.13.54.26.82.34,1.54.42,3.12.7,4.6,1.25,1.9.71,3.72,1.65,5.57,2.48.18.08.42.17.58.12,1.12-.36,1.77.32,2.38,1.05.53.62,1.17.87,1.95,1.17,1.73.67,3.28,1.79,4.89,2.77.18.11.33.44.34.66.02,2.13,1.63,3.64,2.18,5.56.07.24.34.58.55.61,1.28.16,1.69,1.15,2.15,2.12,3.34,7.1,7.23,13.87,11.75,20.28,1.02,1.45,2.05,2.9,2.97,4.41.33.54.49,1.25.54,1.9.19,2.43.09,4.91.51,7.3.39,2.23,1.33,4.37,1.97,6.56,1.1,3.79,2.15,7.6,3.22,11.39,1.92-.32,2.46-.08,3,1.72,1.21,4.03,2.31,8.1,3.45,12.15.15.53.3,1.06.48,1.69,1.71-.5,1.84.85,2.22,1.88,3.64,9.95,6.72,20.08,9.04,30.43.25,1.11.74,2.17,1.03,3.28.46,1.76.91,3.53,1.2,5.32.09.54-.21,1.38-.62,1.71-.65.53-1.36.12-1.84-.54-.07-.09-.2-.14-.56-.38,0,.79.07,1.4-.02,1.99-.12.77-.26,1.58-.59,2.27-2.48,5.18-5.19,10.25-7.47,15.51-2.31,5.33-4.29,10.82-6.29,16.28-3.56,9.71-7.36,19.31-12.68,28.24-.96,1.61-1.3,3.59-1.98,5.37-.82,2.14-1.64,4.29-2.57,6.39-.73,1.66-2.41,2.39-4.21,1.99-.39.68-.7,1.44-1.21,2.05-.48.58-1.16.99-1.74,1.49-.31.27-.64.54-.9.86-1.99,2.38-3.93,4.81-5.95,7.16-1.01,1.17-2.17,2.13-3.58,2.94-1.83,1.06-3.27,2.81-4.87,4.27-.09.08-.19.22-.18.32.11,1.93-1.36,2.85-2.57,3.86-1.76,1.48-3.62,2.83-5.43,4.23-9.67,7.45-19.36,14.87-28.98,22.39-2.07,1.62-3.8,3.66-5.79,5.38-.87.75-2,1.18-3,1.78-.32.19-.61.45-.89.69-1.15,1.01-2.27,2.05-3.45,3.03-.96.79-1.99,1.27-2.93.02-2.72,1.5-3.11,1.44-3.84-.49-2.9.31-5.76.74-8.64.9-2.83.15-5.68.03-8.55.03-.17,1.57-.82,2.25-2.66,2.2-1.43-.04-2.92-.15-4.28-.56-5.29-1.56-10.54-1.14-15.73.29-1.64.45-3.03,1.06-4.36-.45-.1-.12-.41-.07-.62-.07-2.77,0-5.46.32-8.04,1.51-2.93,1.35-5.92,2.61-8.93,3.77-6.79,2.59-13.61,5.1-20.43,7.62-1.04.38-2.1.69-3.17-.07-.22-.15-.79.08-1.13.26-1.51.81-2.89,1.27-4.79.9-2.84-.55-5.83-.29-8.74-.58-4.77-.48-9.53-1.11-14.3-1.7-2.91-.36-5.81-.78-8.72-1.15-.28-.04-.68-.06-.84.1-.88.9-1.87.64-2.86.37-2.79-.76-5.59-1.5-8.36-2.3-8.9-2.56-17.82-5.08-26.19-9.17-.31-.15-.8.05-1.2.11-.51.07-1.18.42-1.51.22-3.17-1.95-6.86-2.41-10.23-3.77-12.22-4.91-23.7-11.33-35.26-17.58-3.59-1.94-7.18-3.88-10.76-5.82-.15-.08-.35-.24-.45-.19-1.46.69-2.18-.45-3.04-1.21-.7-.62-1.29-1.14-2.42-.86-.52.13-1.4-.53-1.91-1.04-3.84-3.85-7.7-7.7-11.43-11.67-3.52-3.75-6.91-7.63-10.31-11.49-.82-.93-1.81-1.82-1.7-3.3.03-.33-.41-.71-.67-1.03-9.34-11.77-19.46-22.86-29.55-33.98-1.08-1.19-2.62-2.17-2.33-4.15-2.43-4.34-2.52-9.41-4.37-13.92.23-2.72-.85-5.2-1.44-7.77-.59-2.57-1.21-5.13-1.69-7.72-.14-.73.18-1.53.25-2.3.04-.48.1-.99,0-1.45-1.85-8.26-3.74-16.51-5.6-24.76-.68-3.02-1.48-6.03-1.96-9.08-.26-1.64-.55-3.32.35-5.05.69-1.33.62-3.04,1.02-4.54.33-1.22.81-2.4,1.29-3.58,3.49-8.56,7.81-16.71,12.1-24.89,1.91-3.64,3.36-7.52,5.05-11.29.75-1.67,1.94-3.25,2.24-4.98.66-3.82,3.1-6.69,4.75-9.97,1.69-3.33,3.69-6.51,5.59-9.73.56-.95,1.15-1.9,1.86-2.74.27-.32.9-.33,1.36-.49.03.45.23.99.06,1.35-.52,1.1-1.18,2.12-1.79,3.18.09.07.18.15.27.22.29-.34.6-.67.87-1.03,6.22-8.58,12.75-16.91,19.88-24.77.8-.88,1.6-1.78,2.49-2.56.39-.34,1.02-.4,1.54-.59.15.54.31,1.08.47,1.67.66-.41,1.7-.64,1.67-2.04,0-.4.61-.9,1.04-1.21,1.72-1.25,3.49-2.42,5.23-3.65,2.15-1.52,4.29-3.05,6.44-4.58.57-.41,1.02-1.05,1.91-.64.2.09.61-.23.9-.38,8.21-4.3,16.43-8.59,24.62-12.92,3.39-1.79,6.73-3.65,10.1-5.46.72-.39,1.48-.96,2.32-.15.11.1.41.05.6,0,1.72-.45,3.42-1.05,5.17-1.32,1.74-.27,3.52-.21,5.39-.3.51-1.72,1.12-2.12,3.27-1.59,7.72,1.88,15.44,3.79,23.15,5.72,1.06.27,2.15.51,2.58,1.8.11.31.81.52,1.27.61,6.48,1.21,12.96,2.4,19.44,3.56,5.31.95,10.62,1.94,15.96,2.75,2.28.35,4.63.19,6.93.43,1.06.11,2.07.64,3.19,1,.88-1.04.68-2.34.16-3.69-.23-.59-.38-1.22-.51-1.84-.56-2.64-1.46-5.12-2.84-7.47-.9-1.53-1.68-3.19-2.12-4.9-.49-1.92-1.76-2.35-3.38-2.62-4.14-.69-8.29-1.4-12.42-2.16-1.07-.2-1.05-.3-.68-1.31-3.9-.89-7.8-1.77-11.68-2.7-.87-.21-1.9-.29-2.13-1.51-.03-.17-.56-.32-.87-.34-5-.38-10.01-.73-15.01-1.11-4.23-.32-8.47-.67-12.7-1.04-2.41-.21-4.82-.5-7.23-.75-1.16-.12-2.31-.23-2.95-1.42-.08-.14-.23-.26-.38-.32-2.87-1.21-5.7-2.54-8.63-3.57-3.65-1.27-7.37-2.37-11.1-3.37-2.89-.77-5.87-1.22-8.79-1.91-7.86-1.84-15.45-4.5-22.72-7.95-4.93-2.34-10.06-3.85-15.36-4.96-.71-.15-1.46-.23-2.09-.56-.6-.31-1.17-.81-1.56-1.36-.6-.85-1.1-1.65-2.36-1.58-.44.02-1.02-.42-1.36-.8-.74-.85-1.35-1.82-2.05-2.71-.17-.22-.46-.37-.72-.49-.65-.31-1.33-.57-1.98-.87-2.01-.92-2.14-1.87-.44-3.17-.01-.08,0-.17-.05-.24-9.38-14.19-18.77-28.38-28.17-42.55-.25-.38-.73-.61-1.11-.91-.33-.25-.78-.43-.96-.76-2.65-4.7-5.36-9.37-7.81-14.18-.65-1.27-.44-2.97-.63-4.47-.03-.25-.08-.5-.12-.75-1.95.32-2.63-.1-2.97-2.1-.29-1.72-.54-3.46-.58-5.19-.14-6.27-1.02-12.44-2.03-18.61-.75-4.57-1.19-9.19-1.65-13.81-.28-2.78-.52-5.58-.46-8.36.03-1.55.58-3.15,1.17-4.61.2-.51,1.23-.99,1.86-.97,3.65.1,7.31.23,10.94.58,14.5,1.42,29.01,2.06,43.57,1.21,4.32-.25,8.66-.16,12.99-.29,1.53-.04,3.06-.19,4.57-.41,1.42-.21,2.62.15,3.6,1.15.52.53.82.56,1.47.09.54-.39,1.45-.61,2.1-.46,5.27,1.16,10.51,2.44,15.77,3.64,7.04,1.62,14.1,3.17,21.14,4.81,1.96.46,4.06.59,5.69,2.03.17.15.48.13.73.2,8.49,2.31,16.98,4.62,25.48,6.93,1.39.38,2.8.74,4.18,1.15,1.39.41,2.77.86,4.14,1.34.3.11.58.36.79.62,10.06,12.08,21.51,22.84,32.35,34.17,4.67,4.88,8.96,10.12,13.29,15.3,1.39,1.67,2.36,3.7,3.53,5.56.2.32.43.64.68.93,1.46,1.71,1.44,2.11-.08,3.71-.21.22-.36.72-.25.98,1.29,3.17,1.01,6.52,1.21,9.82.09,1.49.17,2.82,1.08,4.26,1.24,1.96,1.72,4.4,2.51,6.64.07.19-.04.45-.27.73-.85-1.88-1.69-3.76-2.54-5.64-.14.05-.29.09-.43.14.32,7.5,1.57,14.9,2.81,22.51.36-.44.61-.71.82-1.01,5.7-8.14,12.25-15.58,19.19-22.66,2.09-2.14,4.56-3.95,7.02-5.66,1.25-.87,2.84-1.3,4.33-1.74,1.24-.37,1.76.47,1.79,1.63,5.63.78,11.18,1.6,16.74,2.31,6.37.82,12.75,1.53,19.12,2.34.44.06.83.6,1.24.92-.47.23-.93.62-1.41.65-.95.06-1.92-.07-2.91.09,1.78.44,3.42,1.65,5.41.79.04-.02.09-.07.11-.06,1.12.64,2.23,1.28,3.34,1.93-.57,1.39.34,2.61.5,3.91.59,4.51,1.23,9.02,1.94,13.51.31,1.93.83,3.82,1.3,5.71.08.33.36.68.64.86.81.49,1.18,1.09.77,1.99.12.09.18.15.25.18.56.24,1.13.48,1.69.72-.43.45-.79,1.02-1.31,1.31-.9.5-2.1.42-2.3,1.94-.1.78-.99.84-1.64.3-.29-.24-.5-.56-.75-.85-1.39,1.44-1.92,1.58-3.1,1.08-.86.44-1.51.91-2.23,1.12-3.73,1.07-7.43,1.08-11.19-.05-1.48-.45-3.1-.5-4.66-.54-.44-.01-.93.6-1.34.99-.41.4-.69.95-1.14,1.3-1.51,1.18-3.16,2.19-4.56,3.48-1.03.95-2,2.14-2.56,3.42-3.28,7.52-6.43,15.1-9.64,22.65-.33.78-.68,1.57-1.16,2.26-.3.43-.87.67-1.32,1-.32-.47-.65-.94-.8-1.16ZM160.06,444.61c-.8-.7-1.35-1.1-1.8-1.59-3.43-3.7-6.85-7.42-10.23-11.16-.26-.29-.21-.87-.3-1.31.48.05,1.15-.08,1.41.19,3.98,4.07,7.92,8.18,11.81,12.34.65.7,1.27,1.14,2.23,1.24,9.26.96,18.51,2.08,27.84,2.12.42,0,.87-.03,1.27.07.34.09.62.37.94.55.38.22.77.6,1.17.62,1.99.12,3.99.18,5.99.19,7.95.07,15.9.12,23.85.15,1.18,0,1.51.53,1.28,1.61.31.02.56.05.82.05,2.93-.02,5.87-.08,8.8-.04.39,0,.77.45,1.15.69-.33.31-.61.7-1,.89-.35.17-.81.12-1.15.16-.16.54-.15,1.12-.44,1.38-.96.85-1.93,1.76-3.06,2.33-1.99,1.02-4.11,1.77-6.15,2.69-5.7,2.57-11.38,5.17-17.07,7.77-.74.34-1.43,1.11-2.18,0-.05-.08-.39.02-.59.07-1.66.41-1.72.36-1.82-1.31-8.01-3.08-15.71-6.78-23.23-10.87-4.38-2.38-9.01-4.04-13.89-5.04-1.53-.32-1.95-.83-1.82-2.36-.7-.07-1.4-.15-2.11-.22.07.1.15.21.22.31-.49.62-.93,1.3-1.51,1.82-.22.2-1.08.12-1.1.03-.3-1.2-1.17-.68-1.85-.65-4.16.19-8.31.39-12.47.59-.35.02-.7,0-1.06,0,.37.42.78.63,1.19.81,6.16,2.69,12.33,5.35,18.46,8.09,1.55.69,3.03,1.54,4.45,2.48.58.38.88,1.17,1.31,1.78.34.47.58,1.08,1.03,1.38,4.72,3.16,10.4,4.38,15.15,7.6,3.34,2.27,7.31,3.25,11.32,4.05,9.3,1.86,18.5,4.2,27.82,5.94,10.32,1.93,20.72,3.43,31.09,5.09.52.08,1.11.03,1.61-.13,9.3-3.02,18.6-6.06,27.89-9.12,6.66-2.19,13.3-4.45,19.97-6.62,1.2-.39,2.59-.82,3.74-.56,1.93.44,3.24-.47,4.71-1.28,9.23-5.09,18.47-10.17,27.71-15.24.82-.45,1.68-.87,2.59-.07.15.13.57.05.81-.06,1.54-.72,2.07-.55,3.09.76,1.75,2.24,3.44,4.56,6.37,5.46.45.14,1.1.71,1.09,1.07-.02.78.34,1.02.92,1.25,1.05.42,2.08.87,1.44,2.45,1.93-1.22,3.86-2.44,5.76-3.64-.63-1.81-.44-2.49.99-3.63,1.48-1.18,2.99-2.34,4.48-3.51-1.28-1.68-1.16-2.61.49-3.72,2.65-1.78,5.29-3.57,8.01-5.23,1.8-1.1,3.12-2.51,4.17-4.34,3.89-6.79,7.71-13.63,12.46-19.88.07-.09.08-.21.17-.49-.48.29-.84.49-1.18.71-2.62,1.67-5.22,3.37-7.86,5-.42.26-1.22.49-1.48.28-.64-.53-1-.16-1.44.14-2.36,1.6-4.69,3.24-7.08,4.79-.34.22-.94.05-1.42.06.12-.43.11-1.05.39-1.28,4.92-3.91,9.91-7.62,15.73-10.28,3.89-1.78,7.85-3.8,10.49-7.64.98-1.42,1.79-2.8,2.32-4.4,1.84-5.52,3.68-11.04,5.54-16.56.25-.73.5-1.44,1.61-1.14,1.14.31,1.36.94,1.02,1.96-2.01,5.87-4.01,11.74-6.02,17.61-.16.46-.35.9-.45,1.14.8.23,1.53.27,2.05.62,1.39.93,2.84,1.4,4.55,1.32,2.38-.11,4.82-.22,6.73,1.14,1.71-4.23,3.34-8.47,5.13-12.64,2.44-5.71,4.92-11.4,7.53-17.03,4.02-8.67,8.22-17.27,12.23-25.94,1.39-3,2.43-6.17,3.69-9.23,1.23-2.98,2.52-5.94,3.79-8.91.82-1.91,1.71-3.8,2.46-5.74.19-.49.14-1.19-.05-1.71-6.01-16.34-10.45-33.14-14.4-50.07-.86-3.68-1.48-7.42-2.32-11.11-.66-2.92-1.47-5.82-2.21-8.72-.56,1.02-.66,2.1-1.08,3.04-3.29,7.45-6.64,14.88-10.01,22.3-.18.39-.72.62-1.09.92-.28-.37-.73-.7-.82-1.11-.15-.7-.33-1.56-.06-2.15,3.57-7.95,7.21-15.87,10.86-23.78.39-.85.95-1.57,2.3-.9-.6-1.05-1.14-1.78-1.47-2.59-1.17-2.94-3.17-5.05-6.1-6.27-.37-.16-.67-.49-1-.74.05-.09.1-.18.14-.28.93.05,1.86.11,2.81.16-3.36-8.26-9-14.75-14.63-21.22-.52,1.08-.81,2.19-1.48,2.99-5.14,6.11-10.35,12.17-15.56,18.22-.45.52-1.12.85-1.79,1.35,0,.01.09.25.19.48,2.8,6.2,5.61,12.4,8.4,18.6.35.77.57,1.61.96,2.36,1.88,3.66,3.77,7.32,5.72,10.94.44.81,1.3,1.4,1.71,2.22.48.96.74,2.05.97,3.11.09.42-.08,1.22-.31,1.3-.41.13-1.14.01-1.42-.29-.82-.91-1.53-1.93-2.2-2.96-2.37-3.68-4.71-7.38-7.03-11.09-.88-1.41-1.76-2.82-2.45-4.32-.69-1.5-1.76-2.97-1.04-4.81.06-.15-.11-.4-.2-.59-1.97-4.24-3.95-8.48-5.89-12.73-.41-.91-1.62-2.11.49-2.61.05-.01.1-.14.11-.21.12-1.13.82-1.09,1.43-.82,1.44-1.67,2.8-3.23,3.83-4.42-.22-.91-.64-1.64-.44-1.98.97-1.62,1.98-3.26,3.21-4.68,3.26-3.75,6.66-7.4,10-11.09.33-.36.65-.73,1.12-1.26-.72-.56-1.26-1.23-1.95-1.46-1.13-.38-2.46-.24-3.52-.72-5.84-2.66-11.69-5.32-17.42-8.2-5.39-2.71-10.54-5.91-15.99-8.5-9.99-4.74-20.25-8.91-29.78-14.58-.96-.57-1.66-.67-2.43.16-.25.27-.55.48-.72.62.32.37.85.8.78.94-.22.45-.58.94-1.02,1.14-5.17,2.39-9.95,5.36-14.31,9.03-.83.7-1.91,1.11-3.14,1.81.24.32.5.86.93,1.19.87.67,1.83,1.21,2.74,1.83,1.65,1.13,3.35,2.19,4.91,3.45,3.35,2.7,6.64,5.49,9.91,8.29.32.28.32.93.47,1.4-.52-.01-1.16.16-1.55-.07-1.32-.77-2.45-1.94-3.83-2.51-3.89-1.6-7.09-4.15-10.21-6.84-.91-.79-1.88-1.52-2.81-2.29-1.62-1.35-3.11-1.23-5.13-.43-6.67,2.64-13.49,4.91-20.25,7.33-3.44,1.23-6.88,2.49-10.33,3.71-.65.23-1.49.67-1.85-.33-.33-.92.55-1.12,1.15-1.36,2.09-.84,4.19-1.64,6.38-2.49-.34-.98.26-1.37,1.08-1.63.45-.14.88-.33,1.32-.48,7.12-2.51,14.23-5.02,21.35-7.54.67-.24,1.39-.38,1.37-1.39,0-.23.54-.53.88-.71.53-.28,1.19-.37,1.64-.73,5.77-4.57,11.51-9.17,17.26-13.76.35-.28.68-.57,1-.84-.94-1.11-1.93-1.21-3.08-.71-1.59.69-3.17,1.46-4.83,1.94-10.74,3.12-21.49,6.21-32.25,9.24-3.39.96-6.83,1.77-10.27,2.58-1.31.31-2.24-.22-2.45-1.39-.18-1.03-.84-1.49-1.64-1.91-1.44-.76-1.67-2.39-.46-3.47.7-.62,1.52-1.1,2.22-1.71.46-.4.97-.87,1.19-1.41.89-2.29,1.66-4.64,2.52-6.94.7-1.87,1.46-3.71,2.19-5.57.52-1.34,1.02-2.69,1.55-4.02.48-1.22.94-2.45,1.51-3.62.46-.93,1.15-1.75,1.61-2.68.54-1.11.98-2.27,1.37-3.43.4-1.18.45-2.56,1.09-3.58,3.23-5.15,6.58-10.22,9.91-15.31,1.47-2.24,3.08-4.39,4.48-6.67,1.12-1.83,1.79-2.16,3.2-1.46,1.98-.47,3.55-.92,5.15-1.22,4.84-.9,9.72-1.61,14.53-2.64,2.68-.58,2.63-.8,2.08-3.44-.06-.29-.11-.59-.18-.87-1.32-5.23-2.62-10.47-3.97-15.7-.11-.43-.47-1-.83-1.11-1.13-.33-2.32-.47-3.48-.69-.27-.05-.55-.1-.8-.21-.47-.21-.89-.62-1.37-.67-2.45-.27-4.91-.49-7.37-.67-7.5-.54-15.01-.97-22.5-1.61-2.08-.18-3.4.31-4.69,2.06-6.37,8.67-12.91,17.22-20.19,25.17-.68.74-1.53,1.52-1.77,2.43-1.15,4.26-2.09,8.58-3.14,12.87-.62,2.51-1.25,5.02-1.99,7.49-.29.97-.93,2.1-2.1,1.88-.89-.16-1.71-.93-2.45-1.57-.33-.29-.45-.91-.51-1.4-.16-1.22-.24-2.45-.35-3.68-.75-8.09-1.5-16.17-2.24-24.26-.02-.21-.05-.42-.09-.63-.3-1.66-.75-3.3-.88-4.97-.19-2.46.08-4.96-.25-7.39-.87-6.33-2.33-12.54-4.36-18.61-.1-.3-.29-.75-.51-.79-1.05-.2-1.23-1.03-1.55-1.83-2.33-5.85-4.74-11.65-8.46-16.82-2.03-2.83-3.86-5.81-5.74-8.74-.5-.78-.66-1.82-1.27-2.46-3.33-3.46-6.55-7.06-10.17-10.18-7.19-6.18-14.64-12.07-21.94-18.12-.6-.5-1.2-1.32-1.27-2.04-.05-.58.71-1.23,1.15-1.9-.38-.19-.89-.44-1.49-.73-.06,1.6-.95,2.16-2.25,2.25-.55.04-1.14-.05-1.65.1-2.68.8-5.43.79-8.09.23-6.32-1.32-12.62-2.75-18.89-4.32-7.42-1.85-14.79-3.91-22.21-5.8-1.33-.34-2.76-.31-3.95-.43-.26.96-.47,1.72-.74,2.72.27.53.67,1.33.95,1.89,1.21.17,2.29.16,3.26.49,5.24,1.75,10.45,3.58,15.67,5.4,1.01.35,1.9.55,1.49,2.18-.4,1.58-.18,1.73-1.8,1.53-2-.25-4.01-.49-6-.73-.04.08.05-.1.13-.28-1.4-.38-2.77-.69-4.1-1.14-1.37-.46-2.87-.81-3.99-1.64-1.68-1.25-3.53-2.05-5.41-2.88-.72-.32-1.17-.81-.86-1.72.09-.26-.04-.66-.18-.92-.57-1.04-1.07-2.17-1.83-3.06-.82-.96-1.15-2.39-2.68-2.73-2.57-.57-5.11-1.29-7.68-1.89-.94-.22-1.91-.39-2.87-.42-1.96-.05-2.31-.29-2.69-2.59-2.39,0-4.85.03-7.31,0-9.7-.15-19.4-.24-29.09-.52-5.75-.17-11.42-.93-16.91-2.88-1.68-.6-3.66-.34-5.51-.48,3.12,1.47,6.29,2.57,9.38,3.87,7.22,3.02,14.29,6.41,21.63,9.1,4.09,1.5,8.04,3.2,11.91,5.14.76.38,1.54.72,2.32,1.06,7.83,3.43,15.66,6.85,23.49,10.29,1.71.75,1.78.92,1.34,2.41.3.14.69.22.88.45.28.34.42.81.62,1.22-.44.12-.91.39-1.32.32-.66-.11-1.28-.45-1.91-.7-4.54-1.83-9.09-3.65-13.63-5.48-2.82-1.14-5.65-2.26-8.47-3.42-.42-.17-1.03-.43-1.12-.77-.32-1.16-1.31-1.36-2.17-1.73-1.96-.83-3.92-1.66-5.92-2.37-7.79-2.79-15.37-6-22.43-10.36-.51-.31-1.07-.53-1.58-.82-1.06-.59-2.53-.63-2.86-2.21-.04-.17-.5-.28-.77-.38-3.55-1.32-7.08-2.67-10.65-3.95-.93-.33-1.63-.64-.93-1.83-1.73-.22-3.32-.42-5.02-.64.06.42.1.69.14.97,1.9-.82,2.56-.38,2.72,1.64.17,2.15.43,4.28.62,6.43.44,5.04.84,10.09,1.28,15.13.59,6.82,1.2,13.64,1.83,20.45.05.57.24,1.19.55,1.66,1.97,2.98,3.98,5.94,6,8.88,7.6,11.08,15.33,22.08,22.78,33.26,4.03,6.05,8.2,12.04,11.53,18.53.33.65.28,1.49.43,2.24.04.22.07.49.21.64,1.64,1.78,3.3,3.55,4.97,5.31.14.15.35.26.54.31,2.05.52,4.11,1.02,6.14,1.52.66-1.61,1.18-1.84,2.66-1.21.55.23,1.07.51,1.63.74,3.5,1.42,6.93,3.09,10.53,4.19,5.81,1.77,11.74,3.16,17.61,4.73,1.35.36,2.65.86,2.45,2.65.28.11.48.19.68.26,9.84,3.48,20.02,5.75,30.13,8.25.29.07.76.08.92-.09.81-.89,1.74-.68,2.72-.47,9.39,2.04,18.75,4.24,28.19,6.03,6.91,1.31,13.78,2.99,20.89,3.05,3.06.03,6.11.41,9.16.6,1.62.1,2.63.94,3.02,2.56,1.1,4.6,2.3,9.15,4.77,13.26.42.7.56,1.59.7,2.41.13.72-.12,1.57.15,2.21.91,2.13,1.96,4.21,2.99,6.29.73,1.47.71,1.63-.52,2.34-.09,1.12,0,2.17-.3,3.11-.71,2.24-1.66,4.41-2.37,6.65-.28.87-.6,1.05-1.43.84-1.89-.48-3.79-1.03-5.72-1.32-7.23-1.08-14.48-2.04-21.72-3.08-11.69-1.69-23.16-4.36-34.34-8.11-5.05-1.69-9.89-3.99-14.84-5.99-.19-.08-.5,0-.7.1-2.21,1.19-4.46,2.3-6.59,3.62-4.19,2.6-8.33,5.29-12.45,7.99-5.44,3.56-10.84,7.19-16.29,10.72-.57.37-1.53.62-2.09.39-.83-.35-1.3-.15-1.92.28-6.64,4.61-13.46,8.91-20.59,12.73-1,.54-2.13.82-3.12,1.37-1.39.78-2.98,1.44-4.01,2.59-6.59,7.34-13.05,14.8-19.58,22.2-.37.43-.91.9-1.43.97-2.02.28-2.95,1.6-3.6,3.4,1.01.83,1.27,1.83.64,3.04-1.78,3.39-3.58,6.77-5.27,10.2-2.67,5.41-5.23,10.88-7.89,16.3-1.51,3.07-2.28,6.37-4.45,9.28-2.78,3.73-4.52,8.25-6.66,12.45-1.23,2.42-2.35,4.89-3.51,7.3.21.46.34,1.03.67,1.42.41.46,1.26,1.19,1.45,1.07,1.18-.76,1.62.21,2.24.77.66.6,1.32,1.21,1.95,1.83,3.62,3.54,7.41,6.93,10.79,10.68,3.35,3.71,7.74,6.3,10.44,10.74,1.97,3.23,4.77,5.96,7.25,8.88.78.92,1.73,1.7,2.88,2.82.52-2.78.97-5.2,1.44-7.61.05-.23.21-.45.33-.66.27-.46.65-.89.8-1.38,3.3-10.59,6.68-21.16,9.8-31.8.73-2.51,1.94-4.46,3.81-6.11.31-.27,1.02-.54,1.23-.38.31.23.55.89.45,1.28-.38,1.61-.84,3.21-1.38,4.77-1.8,5.18-3.67,10.33-5.46,15.51-1.77,5.1-3.49,10.22-5.24,15.33-1.27,3.69-2.55,7.37-3.84,11.05-.29.82,0,1.36.49,2.06,4.34,6.09,8.63,12.23,12.88,18.39.23.34.04.97.05,1.46-.49-.13-1.14-.1-1.44-.41-1.89-2.01-3.91-3.95-5.48-6.19-2.54-3.61-4.76-7.45-7.13-11.18-.36-.56-.74-1.16-1.25-1.57-.9-.71-2.03-1.16-2.84-1.94-3.71-3.57-7.33-7.22-10.99-10.83-.62-.62-.93-1.24.08-2-.46-.23-.91-.59-1.05-.5-1.07.75-1.71-.05-2.32-.64-2.2-2.13-4.35-4.31-6.52-6.47-3.16-3.16-6.12-6.49-8.62-10.22-.84-1.24-2.16-2.16-3.26-3.22-.11.08-.21.16-.32.23.35.98.63,1.99,1.06,2.92.34.73,1.07,1.31,1.27,2.05,1.4,5.04,2.19,10.22,3.53,15.3,2.07,7.81,3.83,15.69,6.5,23.33,1.76,5.01,3.35,10.09,4.88,15.18.91,3.01,1.54,6.09,2.33,9.14.16.63.35,1.33.74,1.8,6.51,7.75,13.15,15.4,19.56,23.23,6.39,7.81,13.92,14.61,20.05,22.66,1,1.31,2.2,2.49,3.36,3.67,1.07,1.08,2.05,2.15,2.11,3.78,0,.22.18.5.37.63,1.96,1.42,2.98,4.01,5.68,4.5.24.04.44.28.67.35.27.08.56.1.84.13.99.09,1.98.12,2.96.27.75.11,1.47.53,2.21.53,6.55,0,13.09-.06,19.64-.12.87,0,1.73-.17,2.9-.28ZM204.19,464.02c8.68-3.87,17.29-7.71,25.9-11.54-.62-.16-1.17-.16-1.71-.16-6.12.07-12.24.27-18.35.17-7.61-.13-15.23-.42-22.67-2.19-2.65-.63-5.1,0-8,.18.6.33.87.52,1.17.64,6.87,2.95,13.72,5.93,20.62,8.81,1.83.77,2.74,2.04,3.05,4.09ZM355.63,464.27c.08-.13.17-.26.25-.39-1.33-1.2-2.53-2.6-4.02-3.55-2.8-1.79-6.2-2.82-7.32-6.57-.83.55-1.98.92-2.07,1.46-.21,1.28-1.15,1.54-1.96,1.95-6.68,3.41-13.39,6.76-20.09,10.14-.31.16-.58.4-.87.6,2.07,0,4.06-.14,6.03-.46,7.22-1.17,14.42-2.42,21.64-3.6.65-.11,1.34-.01,2,.06.65.07,1.29.31,1.94.34,1.48.05,2.97.02,4.46.02ZM412.82,416.16c-2.44-1.43-4.53-2.65-6.62-3.88-.06.1-.12.2-.18.3l1.14,1.28c-.11.12-.23.24-.34.36-1.07-.82-2.13-1.65-3.14-2.43-.59.63-1.17,1.24-1.74,1.86l.3.13c-.26.67-.38,1.44-.79,2-4.92,6.82-9.89,13.6-14.84,20.4-.03.04,0,.13.02.45,8.73-6.82,17.34-13.55,26.18-20.46ZM165.96,26.71c.03-.12.06-.24.09-.36-4.84-1.93-10.02-2.47-15.04-3.66l-.1.44c5.02,1.19,10.04,2.39,15.06,3.58ZM458.36,328.6c-.28.67-.59,1.04-.52,1.29.49,1.74,1.06,3.46,1.68,5.41.39-.74,1.17-1.54,1.01-2.05-.47-1.5-1.31-2.87-2.18-4.65ZM297.58,107.5h5.41c-2.93-1.13-4.68-1.15-5.41,0ZM336.08,142.18c-4-.78-5.03-.78-6.49,0h6.49ZM209.92,43.84c.06-.04.11-.07.17-.11-.98-1.16-1.94-2.34-2.97-3.45-.2-.21-.71-.14-1.07-.2-.03.13-.06.27-.09.4,1.32,1.12,2.64,2.24,3.96,3.36ZM96.97,20.15c-2.6-.64-5.24-.25-7.87,0h7.87ZM112.27,217.16c.12.15.23.3.35.45,1.47-1.16,2.94-2.32,4.41-3.49-.06-.08-.13-.17-.19-.25-1.52,1.1-3.05,2.19-4.57,3.29ZM130.46,19.88c.97,0,2.31.71,2.44-1.5-.98.6-1.71,1.05-2.44,1.5ZM257.03,104.77c.16-.03.32-.06.48-.09l-1.44-4.43c-.12.04-.24.08-.37.11.44,1.47.88,2.94,1.32,4.41Z"/><path class="cls-1" d="M317.68,411.81c1.71.3,3.34.57,4.97.87.46.08.97.11,1.35.34.48.29.86.77,1.28,1.17-.56.13-1.15.42-1.69.35-1.3-.16-2.58-.48-3.74-.72,0,.72.26,1.61-.06,1.96-.52.56-1.4.96-2.18,1.07-1.38.19-2.8.2-4.2.13-7.23-.33-14.44-.81-21.5-2.53-1.09-.27-2.11-.84-3.17-1.23-.39-.14-.81-.23-1.22-.25-6.42-.18-12.84-.34-19.25-.54-.62-.02-1.22-.26-1.95-.42.41-.82.68-1.36,1.07-2.13-5.62-.61-11.03-1.21-16.44-1.8-.03.08-.07.16-.1.25.98.74,1.96,1.49,2.94,2.23-.08.12-.16.23-.23.35-.33-.17-.72-.27-.98-.51-2.41-2.25-5.35-2.91-8.53-3.1-1.77-.1-3.54-.46-5.27-.88-.59-.14-1.06-.82-1.58-1.25.08-.12.15-.24.23-.36-.92-.11-1.86-.15-2.75-.36-.42-.1-.76-.52-1.14-.79.28-.31.61-.59.82-.94.36-.6.81-1.22.9-1.88.13-.92.67-1.23,1.4-1.6,1.57-.8,3.5-1.4,4.49-2.69,2.24-2.93,5.86-3.22,8.6-5.15,1.48-1.04,3.55-1.24,5.51-1.87-.79-1.64.3-2.07,1.29-2.47,6.8-2.7,13.6-5.39,20.41-8.05,3.96-1.54,7.91-3.14,11.94-4.5,9.58-3.22,19.17-6.43,28.84-9.38,3.71-1.13,7.64-1.52,11.47-2.27.33-.06.63-.25.95-.36,6.12-2.21,12.21-4.48,18.36-6.6,1.46-.5,3-1.32,4.66-.44.22.11.64-.15.96-.26,3.66-1.27,7.25-2.75,10.98-3.74,2.15-.57,4.26-1.12,6.3-2.02,1.08-.47,1.87-1.09,2.43-2.09.58-1.05,1.23-2.07,2.08-2.99-.09.34-.17.69-.26,1.03l.21.14c.59-.72,1.19-1.43,1.78-2.15,6.04-7.31,12.07-14.63,18.12-21.93.62-.75,1.32-1.46,2.09-2.05.32-.25.9-.16,1.37-.22.04.5.3,1.14.08,1.49-1,1.61-2.01,3.25-3.24,4.69-4.32,5.09-8.72,10.11-13.09,15.16-.5.58-.95,1.21-1.47,1.76-1.88,2-3.77,3.97-5.67,5.95-.62.64-.91,1.29-.75,2.26.18,1.14-.54,2.39.47,3.46.12.12-.07.56-.15.84-.25.81-.57,1.6-.78,2.43-1.96,7.68-4,15.35-5.84,23.06-1.54,6.49-2.85,13.04-4.25,19.56-.13.61-.16,1.25-.27,2.18.6-.41.96-.67,1.33-.92,5.22-3.52,10.43-7.04,15.67-10.54.67-.45,1.34-1.09,2.32-.55.18.1.62-.18.9-.35,2.55-1.53,5.1-3.07,7.65-4.61.33-.2.64-.51.99-.56.4-.06.83.12,1.24.19-.12.4-.11.95-.37,1.17-.82.67-1.8,1.14-2.62,1.81-1.55,1.26-2.92,2.78-4.56,3.9-7.06,4.8-14.2,9.5-21.31,14.24-1.79,1.2-3.62,2.35-5.35,3.63-.67.49-1.06,1.34-1.69,1.9-.39.35-1,.45-1.59.7-.38.86-.9,1.94-1.35,3.05-1.74,4.29-3.47,8.58-5.16,12.89-1.56,3.95-3.07,7.93-4.59,11.9-.41,1.06-.74,2.16-1.25,3.18-.22.44-.8.68-1.21,1.03-.29.25-.63.47-.83.77-.42.64-.68,1.38-1.17,1.96-.21.25-.8.18-1.22.25-.02-.41-.21-.92-.03-1.22,2.12-3.7,4.02-7.47,4.93-11.69.5-2.31,1.69-4.36,2.65-6.5,1.69-3.75,2.83-7.74,4.27-11.61.27-.72.83-1.33,1.24-2,.15-.25.44-.6.36-.77-.7-1.56.57-2.22,1.38-3.06.51-.53.91-.92.72-1.81-.14-.69.15-1.52.39-2.23,2.19-6.53,4.48-13.03,6.61-19.57,1.27-3.92,2.18-7.96,3.49-11.86,1.85-5.52,3.91-10.97,5.88-16.45.32-.89.52-1.68.29-2.74-.25-1.16.29-2.49.5-3.89-.32.09-.62.15-.9.26-6.16,2.34-12.28,4.81-18.49,6.99-3.49,1.23-7.14,1.99-10.71,2.99-.86.24-1.69.58-2.53.87-7.02,2.45-14.04,4.91-21.06,7.34-.91.32-1.9.88-2.83-.15-.14-.16-.79.08-1.18.22-1.62.59-3.25,1.14-4.83,1.82-6.32,2.73-12.63,5.49-18.94,8.25-7.44,3.26-14.87,6.54-22.32,9.78-1.28.56-2.62,1.25-3.97,1.35-3.88.28-7.05,2.47-10.61,3.58-1.37.43-2.78.73-4.14,1.19-.39.13-.66.6-1,.89-.62.53-1.17,1.25-1.89,1.54-2.56,1.03-5.18,1.92-7.78,2.85-.43.16-.88.28-1.31.42,0,.12,0,.24,0,.36.7,0,1.54.25,2.06-.05,1.62-.93,3.3-.77,4.97-.5,3.57.56,7.1,1.42,10.69,1.79,7.23.75,14.48,1.33,21.73,1.84,12.1.85,24.14,2.21,36.12,4.07.8.12,1.58.32,2.37.52.98.25,1.81.64,1.48,1.9ZM299.35,413.95c6.12.89,12.2,1.62,18.35,1.11-.44-.32-.89-.52-1.37-.57-1.18-.13-2.37-.26-3.56-.27-3.55-.04-7.11,0-10.66-.03-.92,0-1.84-.16-2.76-.24Z"/><path class="cls-1" d="M146.66,261.14c-.48.12-.97.33-1.45.34-.32,0-.83-.2-.92-.44-.12-.32-.04-.89.19-1.12.48-.46,1.08-.82,1.69-1.13,4.9-2.47,9.82-4.89,14.7-7.39.94-.48,1.72-1.27,2.65-1.8,1.25-.72,2.51-1.45,3.85-1.96,3.66-1.39,7.36-2.66,11.03-3.99,5.11-1.86,10.22-3.73,15.34-5.59.91-.33,1.84-.59,2.37.52,5.99-2.03,11.89-4.03,17.96-6.09-1.89-2.38-3.71-4.67-5.53-6.95-1.43-1.79-2.97-3.51-4.3-5.38-2-2.83-3.79-5.82-5.79-8.65-2.38-3.37-4.89-6.64-7.39-10.03-.33.24-.6.44-1.04.76.04-.49.07-.82.1-1.21-.12.12-.22.18-.28.27-5.5,7.98-10.98,15.98-16.52,23.94-.52.75-1.49,1.18-2.03,1.92-1.64,2.27-3.18,4.62-4.75,6.95-.45.67-.91,1.31-1.85.58-.48.9-.83,1.73-1.35,2.45-.23.31-.78.39-1.19.57-.09-.41-.38-.9-.25-1.22.37-.9.81-1.8,1.39-2.58,4.96-6.74,9.95-13.47,14.96-20.18,2.11-2.83,4.3-5.59,6.46-8.39,1.12-1.45,2.19-2.93,3.37-4.33.49-.58,1.2-.98,1.9-1.53.48-3.2-2.7-4.68-3.92-7.21-.11-.23-.39-.39-.44-.62-.09-.4-.06-.82-.08-1.24.42.05.96-.05,1.25.18.97.77,1.85,1.65,2.9,2.62.63-1.12,1.3-.87,2.1-.47,9.51,4.75,18.95,9.65,28.59,14.13,7.74,3.6,15.73,6.69,23.6,10,.24.1.56.13.69.3.3.38.51.84.76,1.26-.47.1-1.03.42-1.41.28-8.26-3.02-16.53-5.98-24.44-9.89-5.52-2.73-11.27-4.99-16.91-7.48-2.64-1.17-5.26-2.38-7.89-3.58-.82-.37-1.56-.8-.49-1.86-1.23-.62-2.35-1.19-3.75-1.9.24.56.33.86.48,1.11,5.96,9.78,12.44,19.2,19.89,27.92.44.51.82.95.33,1.68-.11.17.14.68.34.95,1.19,1.61,2.44,3.16,3.61,4.79.55.77.9,1.7,1.47,2.45.23.3.85.5,1.25.44,9.65-1.52,19.29-3.11,28.95-4.62,4.2-.66,8.43-1.15,12.64-1.71.38-.05.85-.23,1.12-.07.35.2.8.95.76.99-.72.68-.91,1.93-2.2,2-.72.04-1.42.24-2.23.39.03,1.4-.92,1.64-2.08,1.75-6.05.62-12.12,1.1-18.13,1.99-3.98.59-7.87,1.77-11.8,2.7-1.55.37-1.77.27-2.26-1.19-2.18.29-4.36.63-6.56.85-.53.05-1.09-.3-1.64-.46.3-.47.59-.93,1.02-1.6-.06-.07-.35-.41-.49-.58-2.44.88-4.74,1.72-7.05,2.53-4.41,1.56-8.86,3.01-13.22,4.71-1.94.75-3.64,2.11-5.54,2.97-4.26,1.92-8.64,3.59-12.88,5.57-13.22,6.16-26.4,12.41-39.6,18.61-.65.31-1.54,1.21-2.1.16-.6-1.15.7-1.35,1.37-1.69,3.55-1.82,7.13-3.59,10.71-5.38,0-.04-.02-.08-.03-.12Z"/><path class="cls-1" d="M217.89,324.5c.78-.26,1.49-.51,2.21-.73,7.61-2.32,15.04-5.15,22.32-8.35.64-.28,1.27-.72,1.98.02.18.19.79.04,1.18-.05,4.37-1.08,8.74-2.18,13.11-3.29.9-.23,1.73-.43,1.92.69,3.72-.94,7.35-1.86,10.97-2.77.33-.08.7-.2,1-.12.4.12.95.37,1.04.67.09.29-.25.88-.56,1.08-.7.45-1.51.73-2.22,1.28,1.33-.29,2.66-.61,4-.86.75-.14,1.71-.56,2,.55.05.19-.97.88-1.57,1.01-10.13,2.12-20.06,4.94-29.83,8.32-5.42,1.87-10.86,3.66-16.31,5.43-.53.17-1.19-.02-1.78-.05-.37-.02-.75-.12-1.11-.06-3.68.59-7.36,1.21-11.04,1.78-.45.07-.94-.12-1.41-.19.08-.46.22-.91.24-1.37.04-1.05.02-2.1.04-3.15.05-2.3-.04-4.61.2-6.89.19-1.78.31-3.49.15-5.29-.99-11.16-1.03-22.33-.15-33.51.44-5.59.74-11.2,1.14-16.8.08-1.18.29-2.36.57-3.51.09-.38.58-.66.89-.99.25.34.68.67.71,1.03.16,1.73.21,3.47.54,5,.39.46,1.08.9,1.12,1.39.31,4.57.51,9.15.74,13.73,0,.15-.08.3-.12.46l-.34.03-.34-3.86c-.05,0-.11,0-.16,0-.25,3.15-.56,6.3-.73,9.45-.47,9.04-.99,18.09-1.24,27.14-.11,3.93.39,7.87.63,11.81.02.28.12.56.22.98ZM230.71,322.07c.04.12.08.24.12.37,1.52-.49,3.04-.98,4.56-1.47-.04-.11-.07-.22-.11-.33-1.52.48-3.05.95-4.57,1.43Z"/><path class="cls-1" d="M419.88,362.62c2.69-2.7,5.38-5.4,8.06-8.11.51-.51.93-1.11,1.44-1.62.22-.23.68-.55.83-.46,1.21.63,1.65-.35,2.22-.99,2.26-2.49,4.49-5,6.74-7.49.44-.48.98-1.27,1.65-.59.29.3.14,1.23-.06,1.79-.54,1.49-1.2,2.94-1.84,4.38-.19.42-.46.82-.78,1.15-3.28,3.44-6.59,6.86-9.87,10.31-1.64,1.72-3.21,3.51-4.86,5.23-.86.9-1.22.81-1.99-.35-.76.69-1.5,1.39-2.27,2.04-.56.47-1.01,1.16-1.99.73-.18-.08-.71.66-1.08,1.01-.42.39-.89,1.14-1.25,1.1-.91-.12-.56-.89-.44-1.52.06-.34,0-.89-.22-1.05-.82-.62-.77-1.46-.74-2.3.12-3.42-.08-6.78-1.16-10.08-.38-1.16-.47-2.42-.66-3.63-.05-.29.03-.6.05-.91.11-.03.22-.06.33-.09.42.77.84,1.54,1.4,2.57.2-3.09.41-5.87.55-8.66.22-4.41.35-8.83.6-13.24.07-1.17.06-2.63.73-3.41.77-.89.77-1.78,1.01-2.71.04-.16.06-.34.06-.51,0-6.2-.02-12.4.01-18.6.01-1.91.14-3.81.33-5.71.04-.36.6-.66.92-.99.23.35.7.73.65,1.03-.55,4,.6,7.86.8,11.79.45,8.87.71,17.75,1.04,26.63.14,3.87.27,7.73.41,11.6.14,3.86.2,7.71-.9,11.49.09.06.19.12.28.18Z"/><path class="cls-1" d="M98.67,62.59c-.97.09-2.08.1-3.14.32-5.53,1.15-11.05,2.36-16.59,3.5-.43.09-.94-.25-1.42-.39.35-.39.63-1.02,1.05-1.14,3.33-.91,6.69-1.71,10.05-2.55.76-.19,1.63-.2,1.91-1.2.04-.13.24-.27.38-.3,1.37-.27,2.74-.58,4.12-.74.91-.11,1.85,0,2.78.02.3,0,.69-.07.87.08.94.82,2.02.85,3.17.71.17-.02.42.14.53.29,4.7,5.99,9.96,11.51,14.77,17.41,4.83,5.93,9.71,11.84,14.68,17.66,2.76,3.23,5.76,6.26,8.61,9.4,1.08,1.19,2.28,2.34,1.97,4.22-.04.25.27.6.48.85,2.27,2.7,4.56,5.39,6.83,8.08.22.26.5.51.6.81.09.28.11.74-.06.92-.22.23-.64.31-.99.35-.17.02-.4-.15-.55-.28-1.37-1.17-2.99-2.17-4.06-3.57-8.54-11.18-18.38-21.21-27.68-31.71-2.62-2.96-4.97-6.14-7.48-9.2-1.81-2.2-3.65-4.37-5.5-6.53-1.57-1.83-3.19-3.63-4.73-5.48-.29-.35-.35-.88-.6-1.52ZM117.66,83.68c.08-.08.16-.16.24-.24-1.29-1.53-2.57-3.06-3.86-4.59-.09.08-.18.16-.27.24,1.3,1.53,2.59,3.06,3.89,4.59Z"/><path class="cls-1" d="M130.3,409.13c1.64,1.97,3.02,3.63,4.41,5.28,2.16,2.55,4.34,5.08,6.45,7.67.25.31.1.94.14,1.43-.45-.1-1-.06-1.32-.31-4.39-3.52-8.18-7.62-11.6-12.07-.94-1.23-2.16-1.65-3.54-2.01-1.35-.35-3.04-.41-3.94-1.27-2.28-2.2-5.33-3.04-7.7-4.97-.42-.34-.56-1.01-.83-1.52.56-.07,1.21-.35,1.68-.17,2.85,1.11,5.63,2.38,8.48,3.49,1.41.54,2.91.84,4.41,1.26.03-.3.07-.39.04-.45-2.55-5.42-5.11-10.84-7.66-16.27-.11-.23-.32-.47-.3-.69.03-.38.2-.74.31-1.11.4.12,1,.12,1.17.4.79,1.23,1.48,2.54,2.19,3.82.9,1.64,1.72,3.32,2.7,4.91,1.58,2.57,3.26,5.08,4.91,7.61.46.7.88,1.33,1.94,1.34,1.35.02,2.7.62,3.96-.42.36-.3.95-.4,1.45-.44,3.07-.27,6.14-.48,9.21-.73,1.14-.09,2.28-.27,3.42-.37,4.91-.43,9.83-.83,14.74-1.28.97-.09,1.93-.33,2.9-.46.77-.1,1.58-.4,2.18.53.14.22.81.05,1.19.18.43.15.8.44,1.2.67-.31.33-.59.92-.94.96-4.76.6-9.36,2.15-14.24,2.02-1.49-.04-2.98.81-4.5,1.09-5.21.97-10.33,2.63-15.72,2.38-1.64-.08-3.26-.5-4.89-.7-.47-.06-.98.09-1.87.2Z"/><path class="cls-1" d="M213.46,145.66c-.5.23-1.07.76-1.5.66-3.14-.71-6.26-1.54-9.38-2.36-.25-.07-.46-.33-.68-.5.2-.23.41-.46.72-.8-4.45-1.61-8.9-3.25-13.37-4.83-4.57-1.61-9.13-3.22-13.73-4.73-2.5-.82-5.07-1.43-7.6-2.16-.57-.16-1.19-.31-1.65-.64-.37-.27-.55-.8-.82-1.22.47-.11,1-.41,1.41-.29,3.19.89,6.33,1.97,9.54,2.78,10.35,2.63,20.59,5.57,30.73,9.81-.39-.52-.62-.81-.85-1.11.05-.09.1-.18.14-.26,1.77.79,3.54,1.58,5.31,2.37.04-.06.08-.12.11-.17-.94-.76-1.85-1.58-2.83-2.29-5.16-3.74-10.38-7.41-15.51-11.19-1.53-1.13-2.91-2.49-4.25-3.85-.55-.56-.78-1.41-1.21-2.1-.19-.31-.49-.56-.77-.81-1.84-1.57-3.71-3.11-5.52-4.72-.32-.28-.63-.98-.49-1.26.16-.34.82-.43,1.27-.63-.61-.63-1.37-1.38-2.11-2.16-.32-.34-.72-.66-.88-1.07-.14-.37,0-.84,0-1.27.41.09.93.06,1.2.31,1.14,1.02,2.17,2.16,3.29,3.2,7.12,6.58,14.41,12.96,22.24,18.71.84.62,2.16,1.13,1.37,2.69-.06.12.36.53.6.76,2.33,2.17,4.68,4.32,7.01,6.49.53.49,1.1.96,1.5,1.55.21.31.25.93.08,1.26-.13.25-.76.4-1.1.33-.78-.17-1.52-.52-2.28-.79,0,.11,0,.21,0,.32Z"/><path class="cls-1" d="M303.01,446.57c2.31,0,4.64-.07,6.97.01,4.46.15,8.91.37,13.36.6.75.04,1.5.27,2.23.5.27.08.47.4.7.61-.29.18-.57.48-.88.53-.54.09-1.11.08-1.65.01-9.05-1.17-18.08-.55-27.11.21-9.32.78-18.64,1.44-28,1.41-3.5-.01-7,.77-10.51,1.15-1.9.21-3.81.39-5.72.44-.5.01-1.01-.5-1.51-.77.44-.36.84-.94,1.33-1.04,2.96-.56,5.95-1.02,8.92-1.5.8-.13,1.37-.39,2.03-1.09,1.11-1.17,2.86-1.3,4.51-1.04.27.04.57.14.81.07,5.1-1.38,10.33-1.62,15.55-1.68,5.82-.07,11.64.08,17.46.17,1.43.02,1.6.27,1.5,1.41ZM284.02,446.82c-4.73-.04-9.48.09-14.11,1.21.01.14.03.28.04.42,4.69-.54,9.38-1.09,14.07-1.63Z"/><path class="cls-1" d="M187.67,388.27c1.49.66,2.9,1.25,4.28,1.92.57.27,1.12.63,1.57,1.06.82.78.59,1.7-.44,2.1-1.11.43-3.77-.26-4.32-1.26-.69-1.24.65-.67,1.18-1.06-.98-.39-1.83-.76-2.7-1.06-10.5-3.57-21.01-7.09-31.5-10.7-4.54-1.56-9.03-3.25-13.53-4.92-.96-.36-1.83-.89-.94-2.25-2.62-.94-5.17-1.84-7.72-2.78-1.67-.61-3.35-1.21-4.96-1.96-.36-.17-.46-.92-.68-1.4.49-.06,1.07-.32,1.47-.16,17.68,7.1,36.01,12.34,53.96,18.67,1.24.44,2.49.87,3.69,1.4,1.48.65,1.57,1.09.63,2.4Z"/><path class="cls-1" d="M119.03,272.19c-1.68-3.51-3.23-6.66-4.69-9.85-.67-1.46-1.27-2.97-1.72-4.51-.39-1.36-.15-1.66,1.2-2.4-.7-1.75-1.4-3.52-2.12-5.29-.62-1.54-1.3-3.06-1.84-4.62-.14-.41.11-.97.18-1.46.48.23,1.18.34,1.39.72.8,1.45,1.44,2.98,2.14,4.48.21.45.38.92.74,1.32-.89-3.22-1.81-6.44-2.66-9.68-.44-1.68-.84-3.39-1.12-5.1-.06-.37.45-.83.7-1.25.33.33.85.6.95.98,1,3.82,1.92,7.66,2.87,11.49,1.28,5.11,2.44,10.26,3.91,15.32.87,3,2.22,5.88,3.4,8.78.77,1.9.51,2.12-1.36,3.03-1.82.89-3.16.17-4.78-.41-5.41-1.94-9.21-6-13.31-9.68-.58-.52-1.06-1.09-.69-2.01.07-.18-.29-.62-.54-.84-1.14-.96-2.35-1.83-3.44-2.84-.29-.27-.25-.91-.36-1.38.48.07,1.11-.04,1.43.22,5.26,4.31,10.45,8.7,15.75,12.96,1.07.86,2.5,1.28,3.96,1.99Z"/><path class="cls-1" d="M155.36,316.53c-1.3-.49-2.61-.96-3.9-1.48-5.63-2.24-11.15-4.76-17.07-6.21-.35-.08-.58-.66-.86-1.01.45-.17.98-.58,1.35-.48,2.9.81,5.78,1.71,8.66,2.62,10.01,3.14,20.02,6.3,30.03,9.44,1.53.48,1.54.47,1.65,1.87,1.54.55,3.1,1.1,4.66,1.66.44.16.95.28,1.26.58.31.3.42.82.62,1.24-.39.17-.8.52-1.17.48-1.05-.11-2.1-.34-3.13-.6-5.69-1.42-11.38-2.81-17.05-4.33-1.79-.48-3.51-1.27-5.23-2.01-.4-.17-.65-.69-.97-1.05.39-.25.77-.51,1.16-.76,4.05,2.3,8.6,3.05,13.02,4.17-3.55-1.27-7.13-2.44-10.73-3.57-.76-.24-1.55-.38-2.33-.56Z"/><path class="cls-1" d="M238.05,114.64c.64-.29.86-.38,1.14-.51-.15-.18-.26-.36-.42-.49-2.97-2.34-5.95-4.67-8.93-7-1.91-1.49-3.85-2.94-5.72-4.47-.37-.3-.49-.9-.75-1.34-.19-.33-.36-.72-.64-.96-2.11-1.72-4.24-3.4-6.37-5.1-.72-.58-1.35-1.16-.35-2.03-6.18-5.45-12.76-10.11-19.52-14.54-.58-.38-1.9-.56-1.24-1.63.66-1.06,1.53-.12,2.18.3,8.38,5.39,16.26,11.43,23.66,18.11,3.62,3.27,7.5,6.27,11.19,9.47.88.76,1.41,1.92,2.25,2.75,2.5,2.49,5.1,4.87,7.59,7.36.62.62,1.95,1.23,1.11,2.34-.8,1.06-1.7-.04-2.45-.43-.87-.45-1.65-1.09-2.73-1.83Z"/><path class="cls-1" d="M176.43,69.71c.92.08,1.56.14,2.2.2.03-.07.05-.14.08-.2-1.59-.96-3.17-1.91-4.89-2.95-.36,1.48-1.15,1.1-2.1.63-7.45-3.72-14.91-7.42-22.39-11.08-1.25-.61-2.64-.96-3.91-1.54-.4-.18-.64-.72-.95-1.1.47-.15,1.01-.53,1.39-.41,1.78.56,3.51,1.26,5.35,1.94.26-1.18.98-1.1,1.9-.69,11.28,5.1,22.27,10.74,32.59,17.63.49.33,1.01.66,1.39,1.1.2.23.28.77.14,1.03-.13.25-.7.52-.93.42-3.18-1.38-6.34-2.82-9.5-4.26-.11-.05-.15-.27-.37-.73Z"/><path class="cls-1" d="M220.89,410.58c-.38-1.29-.8-2.58-1.11-3.89-.07-.31.24-.71.38-1.07.26.24.63.43.77.72,1.19,2.59,2.42,5.16,3.49,7.8,2.17,5.36,4.22,10.77,6.38,16.13.97,2.4,2.13,4.72,3.1,7.12.28.69.2,1.53.34,2.29.09.49.24.97.43,1.43.32.79.76,1.53,1.02,2.33.1.31-.16.74-.26,1.11-.39-.13-.82-.21-1.17-.41-.19-.11-.26-.43-.37-.66-2.94-6.36-5.89-12.72-8.83-19.09-2.08-4.51-4.14-9.03-6.21-13.55-.21-.46-.47-.91-.69-1.37-.27-.58-.65-1.26.15-1.66.82-.42,1.09.35,1.41.89.38.65.75,1.32,1.12,1.98.02-.04.03-.08.05-.11Z"/><path class="cls-1" d="M340.6,289.82c-.32.45-.55.78-.97,1.36-.29-.64-.68-1.11-.66-1.57.04-1.08-.6-1.67-1.26-2.36-2.06-2.14-4.07-4.33-6.08-6.52-.31-.34-.63-.73-.77-1.16-.09-.28.05-.76.26-.98.15-.15.68-.13.91.02,2.97,1.87,5.43,4.26,7.44,7.15.72,1.03,1.52,2.03,2.37,2.95.75.81,1.29.59,1.74-.44.21-.48.59-.93.99-1.26,3.67-3.03,7.35-6.03,11.04-9.04.48-.39,1.03-.99,1.63-.3.68.78-.14,1.27-.59,1.67-3.74,3.34-7.51,6.64-11.27,9.96-.75.66-1.76,1.19-.41,2.36.44.38.18,1.46.48,2.1,1.38,2.96,2.86,5.88,4.29,8.82.42.88.89,1.76,1.13,2.69.13.49-.18,1.1-.28,1.65-.45-.29-1.07-.49-1.31-.9-2.02-3.54-4.02-7.1-5.93-10.7-.79-1.48-1.34-3.09-2.04-4.62-.15-.32-.45-.56-.73-.9Z"/><path class="cls-1" d="M298.41,247.05c.84,1.14,1.76,2.31,2.58,3.56.21.32.06.87.07,1.32-.46-.08-1.02,0-1.35-.26-1.27-.99-2.53-2.01-3.68-3.14-3.27-3.21-6.76-6.26-9.65-9.79-2.93-3.59-6.05-7-8.98-10.58-.13-.16-.34-.33-.36-.51-.06-.61-.06-1.22-.08-1.83.57.12,1.29.06,1.67.39,1.63,1.43,3.13,2.99,4.72,4.46,3.53,3.25,7.15,6.41,10.61,9.73,1.6,1.53,2.96,3.31,4.33,5.05.26.33.08,1,.11,1.61Z"/><path class="cls-1" d="M271.13,176.43c2.49-4.21,4.91-8.35,7.41-12.45.31-.52,1.27-1.24,1.49-1.11.98.56.25,1.35-.12,1.94-6.21,9.92-11.41,20.38-16.69,30.8-.84,1.67-1.5,3.42-2.34,5.09-.2.39-.81.9-1.13.84-.81-.16-.65-.87-.39-1.44,1.91-4.17,3.87-8.32,5.76-12.5,1.28-2.82,2.48-5.68,3.69-8.54.25-.58.44-1.2.54-1.82.24-1.46.49-1.6,1.77-.82Z"/><path class="cls-1" d="M253.62,147.8c-1.45-3.45-3.02-6.85-4.3-10.36-.72-1.97-.88-4.15-1.48-6.17-.62-2.07-1.49-4.07-2.23-6.11-.15-.4-.27-.82-.31-1.23-.02-.25.15-.52.24-.78.25.11.61.16.72.35.56.95,1.19,1.89,1.56,2.91,1.56,4.27,3.04,8.58,4.56,12.86.31.88.69,1.74,1.02,2.61,1.47,3.83,2.96,7.65,4.36,11.5.15.42-.18,1.02-.29,1.54-.49-.22-1.21-.31-1.45-.69-1.03-1.7-1.96-3.47-2.84-5.25-.15-.29.08-.77.13-1.17.11,0,.21-.02.32-.02Z"/><path class="cls-1" d="M194.92,64.76c-1.72-.95-1.72-1.36-.71-2.43,2.17-2.31,4.24-4.71,6.38-7.05.29-.31.72-.63,1.11-.66.24-.02.54.48.79.77,1.73,2.06.41,4.04-.68,5.52-1.97,2.67-4.4,5-6.72,7.39-.5.51-1.31.81-2.03.99-.44.1-1.2-.08-1.41-.39-.2-.31-.06-1.13.24-1.43.94-.97,2.01-1.81,3.04-2.7Z"/><path class="cls-1" d="M246.37,459.79c.25-.27.58-.82.77-.77.41.1.93.42,1.1.79,1.28,2.78,2.52,5.58,3.71,8.4,1.96,4.62,3.87,9.25,5.8,13.88.13.31.35.66.31.95-.05.36-.26.82-.55,1-.18.11-.75-.12-.94-.36-.37-.45-.63-1.01-.87-1.55-2.54-5.62-5.11-11.22-7.57-16.87-.74-1.7-1.14-3.54-1.75-5.46Z"/><path class="cls-1" d="M324.81,294.81c-.31-.09-.68-.09-.92-.27-.32-.25-.54-.63-.81-.95.35-.24.72-.71,1.04-.68,2.79.26,5.5-.16,8.2-.83.98-.24,1.68.1,1.77,1.36,1.84-.09,3.61-.24,5.38-.24.68,0,1.37.34,2.05.53-.64.36-1.25.85-1.94,1.05-.72.21-1.52.28-2.27.2-4.53-.44-8.83.75-13.14,1.83-.21.05-.52.03-.6.16-.95,1.59-2.13.23-3.18.23-.2,0-.61-.61-.54-.81.11-.32.51-.68.84-.74,1.36-.26,2.74-.42,4.12-.61,0-.07,0-.15,0-.22Z"/><path class="cls-1" d="M273.88,144.49c0-1.41.5-1.66,1.61-1.5,1.3.19,1.62.97,2.06,2.07,1.46,3.57,3.14,7.05,4.73,10.57.21.46.59.92.6,1.39.01.51-.22,1.11-.54,1.51-.1.13-.91-.13-1.25-.39-.42-.33-.64-.9-1.03-1.28-.44-.43-.99-.76-1.46-1.16-.2-.18-.38-.43-.47-.68-.3-.81-.5-1.67-.85-2.45-.97-2.16-2.03-4.29-3-6.46-.25-.57-.31-1.23-.4-1.6Z"/><path class="cls-1" d="M301.76,129.78c-.57-.57-1.25-1.07-1.69-1.74-1.39-2.11-1.81-4.54-2.15-7-.22-1.58-.66-3.13-1.06-4.96-.61.77-1,1.27-1.6,2.02.28-1.36.44-2.41.73-3.41.1-.33.5-.71.84-.79.25-.06.71.26.89.53.28.41.4.93.6,1.4,1.38,3.24,2.76,6.48,4.13,9.72.38.89,1.22,1.8-.27,2.57-.22.11-.09.91-.12,1.4-.1.09-.2.18-.31.27Z"/><path class="cls-1" d="M332.5,120.51c-.21.34-.36.64-.57.89-2.84,3.33-5.66,6.67-8.54,9.96-.71.81-1.56,1.51-2.41,2.17-.22.17-.8.16-1-.02-.2-.18-.14-.66-.18-1.01,0-.07.08-.15.13-.21,2.43-2.99,4.8-6.03,7.32-8.95,1.06-1.23,2.41-2.22,3.66-3.27.24-.2.69-.28,1.02-.23.2.03.35.4.57.67Z"/><path class="cls-1" d="M311.7,135.27c-.34-.08-.53-.07-.67-.15-1.72-1.01-3.83-1.24-5.32-2.75-.57-.58-1.47-.83-2.07-1.38-.41-.38-.57-1.03-.84-1.56.55-.12,1.18-.47,1.63-.31.86.31,1.64.88,2.42,1.39,1.67,1.09,3.33,2.2,4.96,3.35.28.2.46.64.54,1,.02.1-.49.31-.65.41Z"/></svg>