<?xml version="1.0" encoding="UTF-8"?><svg id="Layer_2" xmlns="http://www.w3.org/2000/svg" viewBox="0 0 500 500"><defs><style>.cls-1{fill:#000;stroke-width:0px;}</style></defs><path class="cls-1" d="M302.41,453.88c-.49,0-.94,0-1.39,0-14.18-.25-28.32.66-42.46,1.31-6.97.32-13.94.56-20.91.83-.76.03-1.53,0-2.3-.03-2.24-.11-2.88-.64-3.55-3.15-2.02,0-4.14.05-6.26,0-9.31-.24-18.62-.53-27.94-.76-2.04-.05-4.08.12-6.12.09-3.7-.07-7.35.8-11.12-.07-3.51-.81-7.05.74-10.6.92-9,.44-18.01.84-27.02,1.07-16.76.42-33.51.87-50.21,2.33-4.06.35-8.15.74-12.15,1.51-3.56.68-7.11.09-10.65.44-2.11.21-4.25.37-6.37.32-1.41-.03-2.86-.29-4.19-.76-1.68-.58-1.78-2.39-.4-4.24-.86-1.03-2.46-1.26-3.53-.49-.31.22-.57.5-.83.77-1.77,1.76-2.75,1.77-4.63.05-.28-.25-.63-.42-.95-.63-3.48-2.24-6.2-5.17-7.85-8.99-.91-2.1-.54-2.95,1.34-4.22.33-.23.37-1.07.34-1.62-.04-.7-.41-1.39-.42-2.08-.07-3.74-.05-7.48-.11-11.22-.08-5.32-.22-10.63-.3-15.95-.01-.72-.09-1.22-.85-1.63-1.26-.68-1.35-2.02-1.27-3.26.21-3.31.37-6.63.81-9.91,2.23-16.82,4.41-33.65,6.85-50.44,2.21-15.21,2.55-30.5,2.71-45.81.15-14.46.54-28.91,1.87-43.33.37-4.05.07-8.16-.01-12.24-.23-11.39-.59-22.78-.75-34.18-.09-6.21.2-12.42.17-18.63-.04-10.16-.19-20.33-.29-30.49-.02-1.91-.12-3.84.03-5.74.07-.85.68-1.65,1.03-2.48.2-.47.48-.96.51-1.45.53-9.85.96-19.71,1.55-29.56.22-3.69.81-7.35,1.2-11.03.1-.93.05-1.87.07-2.8.18-9.87-.2-19.73-.99-29.57-.11-1.36.41-2.28,1.71-2.8.32-.13.64-.5.78-.84,1.04-2.44,2.77-2.76,4.58-.86.2.21.67.35.96.28,2.77-.65,5.53-1.34,8.29-2.03.16-.04.37-.08.46-.2,1.45-2.02,3.73-1.99,5.78-2.1,8.36-.45,16.74-.74,25.1-1.07,3.99-.16,7.99-.31,11.98-.41,5.82-.14,11.65-.24,17.47-.35.46,0,.92,0,1.42,0,.28-1.22.57-2.32.78-3.45.05-.26-.08-.68-.28-.84-1.6-1.28-1.97-3.07-1.59-4.85.68-3.23,1.36-6.51,2.59-9.56,1.36-3.37,3.34-6.49,5.01-9.74.48-.93.9-1.91,1.22-2.9.65-2.07,1.14-4.19,1.84-6.24.84-2.45,2.07-2.89,4.43-1.76.31-.65.62-1.29.94-1.94,1.38-2.81,2.86-3.08,5.08-.84,1.78-1.42,3.58-2.83,5.35-4.28,1.71-1.41,2.69-1.65,3.85-.85,1.09.76,1.23,1.75.47,3.84.92-.08,1.81-.14,2.69-.22,5.5-.49,10.85.35,16.13,1.86,5.48,1.56,10.97,3.11,16.5,4.47,2.41.59,4.97.59,7.43,1.01,23.61,4.01,47.14,8.42,70.51,13.65.67.15,1.27.61,1.91.92.41.19.81.43,1.24.54,14.26,3.6,28.53,7.17,42.78,10.8,1.77.45,3.72.68,4.91,2.42.16.23.61.26.94.35,9.66,2.86,19.31,5.77,28.99,8.57,4.13,1.19,8.33.81,12.52.16,1.97-.3,3.94-.72,5.93-.85,2.48-.17,3.18.83,3.35,3.29.1,1.37.86,2.71,1.42,4.02.09.21.69.29,1.06.28,2.04-.05,4.07-.23,6.1-.18.84.02,1.72.42,2.47.85.94.54,1.19,1.49.97,2.56-.23,1.1.24,1.88,1.26,2.12,3.02.73,4.27,3.23,3.08,6.15-.09.23-.25.51-.19.7.58,1.95-.35,3.18-1.9,4.14-.11.07-.21.15-.29.24-.05.06-.07.15-.17.4.43.06.83.21,1.2.16,2.01-.26,3.91.14,5.73.91,7.57,3.21,14.87,6.96,21.77,11.44,1.31.85,2.29,2.22,3.45,3.32.36.34.79.62,1.22.87,7.29,4.21,14.58,8.41,21.87,12.63.7.4,1.36.87,1.98,1.39,1.24,1.05,1.33,2.26.41,3.6-.2.29-.31.75-.26,1.1.26,1.86-.31,2.81-1.88,3.76-1.84,1.11-3.75,2.24-4.83,4.23-.33.61-.63,1.3-.72,1.99-.43,3.24-.84,6.49-1.14,9.74-.05.57.43,1.19.63,1.8.28.83.49,1.69.8,2.52.23.61.44,1.28.85,1.77,2.12,2.54,4.29,5.05,6.48,7.54.78.89,1.7,1.66,2.5,2.53.68.74,1.26,1.57,1.96,2.29.36.37.84.74,1.32.86,1.88.47,2.31.99,2.31,3.02,0,.21.02.43.09.62.85,2.42.43,4.74-.76,6.89-.97,1.74-2.1,3.4-3.26,5.02-.7.98-1.72,1.48-3.01,1.24-.27-.05-.69.09-.87.29-3.98,4.47-8.22,8.75-11.28,13.95,1.4,2.42,1.42,3.01-.38,5.23-2.77,3.39-5.73,6.64-8.42,10.09-1.29,1.66-2.15,3.65-3.19,5.5-.09.16-.14.45-.06.6.81,1.54,0,2.7-.87,3.84-3.43,4.5-6.92,8.95-10.29,13.5-5.71,7.7-10.9,15.73-15.65,24.05-1.81,3.18-3.39,6.48-5.18,9.67-.77,1.37-1.39,2.96-3.13,3.54-.19.06-.31.39-.43.61-2.08,3.6-3.86,7.4-6.79,10.45-.19.19-.27.53-.31.81-.24,1.43-.51,2.85-.62,4.29-.04.5.2,1.16.55,1.52.96,1,.91,2.17.74,3.35-.99,7.04-.57,14.1-.29,21.15.51,12.62,1.29,25.23,1.77,37.85.29,7.62.2,15.25.35,22.88.07,3.27.3,6.54.51,9.81.08,1.28.15,2.51-1.18,3.23-1.24.67-2.28.18-3.34-.83,0,1.62-.04,3.05,0,4.48.27,7.44.6,14.87.83,22.31.03,1.1-.36,2.2-.53,3.31-.07.46-.13.92-.11,1.38.21,6.33.44,12.67.66,19,0,.21.03.42.03.64.07,2.33-.71,3.28-3.14,3.66.14,1.54.36,3.08.41,4.63.03.77-.24,1.55-.36,2.33-.06.41-.17.82-.15,1.23.08,1.78.18,3.57.31,5.35.09,1.3-.38,2.4-1.57,2.78-1.77.56-3.5,1.13-5.52.41-2.09-.74-4.43-.77-6.61-1.28-4.77-1.13-9.59-.73-14.41-.68-15.48.19-30.96.34-46.45.5-.21,0-.43,0-.64,0-2.91-.06-3.76-1.16-2.99-4.05ZM383.18,82.36c-.84.11-1.75-.05-2.1.32-1.22,1.28-3.23,2.19-2.64,4.56.08.31-.05.67-.09,1.01-.96,9.95-1.94,19.89-2.88,29.84-.99,10.48-.8,20.99-.86,31.49-.03,5.57-.32,11.13-.57,16.69-.04.92.12,2.36-1.36,2.32-1.5-.04-1.17-1.45-1.23-2.39-.39-6.45-.77-12.91-1.07-19.36-.23-5-.34-10.01-.51-14.92-.1.87-.25,1.84-.33,2.81-.78,9.75-1.55,19.49-2.33,29.24-.94,11.77-1.11,23.59-2.63,35.41,1.15.34,1.34,1.3,1.22,2.54-.35,3.55-.63,7.11-.92,10.67-.62,7.71-1.01,15.45-1.89,23.14-1.62,14.07-3.19,28.12-3.76,42.29-.48,11.72-1.16,23.46-2.47,35.12-1.53,13.68-1.78,27.41-2.51,41.12-.33,6.11-.45,12.24-.55,18.36-.09,5.92-.02,11.85-.02,17.78.08-5.17.26-10.36.62-15.53.22-3.13.7-6.25,1.09-9.37.09-.74.51-1.44,1.31-1.16.42.14.63.91.92,1.41.05.09,0,.25-.01.38-.32,6.88-.52,13.77-.98,20.65-.55,8.32-1.42,16.61-1.95,24.93-.47,7.43-.67,14.87-1,22.3-.04.99.08,2.07-1.05,2.7-.22.12-.23.64-.35,1.06,2.03-1.05,3.92-2.02,6.04-3.11,0-.15.06-.65.07-1.16.16-5.1.29-10.2.47-15.3.04-1.19.14-2.39.4-3.54.1-.45.69-1,1.13-1.08.3-.06.97.57,1.06.98.25,1.11.41,2.27.38,3.4-.12,5.36-.28,10.71-.49,16.07-.05,1.18-.17,2.41-.55,3.51-.24.71-.92,1.48-1.59,1.75-.46.19-1.25-.44-2.12-.8-.04.02-.36.22-.67.44-1.76,1.2-3.5,2.41-5.27,3.6-.82.55-1.72,1-2.47-.02-.75-1.02-.01-1.75.72-2.38.27-.23.64-.36.96-.54-.11-.16-.22-.33-.33-.49-.9.11-1.8.18-2.69.35-1.22.24-2.42.56-3.63.84-.63.15-1.25.34-1.88.43-.48.07-1.14.2-1.42-.05-1.01-.88-2.2-.77-3.37-.91-3.07-.38-6.15-.77-9.21-1.24-.95-.15-1.84-.83-2.77-.86-6.37-.24-12.76-.69-19.12-.47-7.85.26-15.64-.06-23.45-.64-6.41-.47-12.83-.77-19.21.37-.91.16-1.62-.15-1.94-1.05-.34-.95.02-1.75.93-2.09,1.86-.7,3.72-1.49,5.66-1.89,4.59-.97,9.23-.4,13.86-.2,6.84.31,13.67.56,20.51.76,3.14.09,6.29-.04,9.44,0,2.59.03,5.18.21,7.78.26,4.54.09,9.08.02,13.61.25,3.78.2,7.53.81,11.3,1.09,2.11.16,4.25.03,6.58.03-.13-1.25-.09-2.23-.36-3.13-.41-1.4-1.36-2.72-1.48-4.12-.36-4.32-.54-8.65-.59-12.98-.07-5.86.05-11.73.06-17.59,0-2.42-.16-4.85-.08-7.27.56-18.36,1.15-36.73,1.76-55.09.11-3.23.25-6.46.54-9.68.83-9.19,1.88-18.36,2.59-27.56,1.11-14.49,1.13-29.05,3-43.49.15-1.18.16-2.38.29-3.56.64-6,1.43-12,1.92-18.01.64-7.76,1.18-15.52,2.63-23.18.05-.28-.1-.62-.19-.92-.15-.51-.46-1-.48-1.5-.09-2.38-.24-4.77-.11-7.14.76-13.07,1.55-26.15,2.42-39.21.79-11.71,1.7-23.41,2.57-35.11.51-6.87,1.07-13.74,1.57-20.61.6-8.31,1.17-16.63,1.74-24.94.02-.3-.03-.61-.05-.92-.12-.02-.25-.03-.37-.05-1.5,2.96-1.18,6.35-2.12,9.46.39-4.53.77-9.05,1.15-13.43-.91.24-1.73.58-2.57.64-1.42.11-2.86,0-4.29.06-2.55.1-5.09.26-7.64.37-1.22.05-2.3-.26-2.84-1.5-.48-1.09-1.37-1.59-2.49-1.64-3.44-.15-6.89-.22-10.33-.36-11.05-.43-22.1-.8-33.14-1.33-9.9-.48-19.78-1.26-29.68-1.67-7.48-.31-14.97-.36-22.45-.31-10.42.07-20.84.17-31.24.56-6.62.25-13.22,1.11-19.84,1.59-11.03.8-22.08,1.33-33.09,2.31-8.61.77-17.2,1.45-25.85.98-1.86-.1-3.74.07-5.61.17-5.69.29-11.38.57-17.07.92-9.98.61-19.95,1.25-29.92,1.92-5.39.36-10.77.82-16.15,1.27-.98.08-1.95.38-2.93.54-.49.08-1.07.24-1.49.06-2.2-.9-4.3.32-6.48-.07-.03.45-.05.66-.05.87-.23,9.14-.41,18.28-.69,27.42-.18,5.73-.65,11.45-.75,17.17-.06,3.35.4,6.71.54,10.06.18,4.11.56,8.25.34,12.35-.49,8.83-1.3,17.64-2,26.46-.16,2.02-.36,4.03-.6,6.05-.21,1.8-.7,3.58-.72,5.37-.04,4.54.4,9.1.15,13.63-.94,17.03-2.36,34.03-3.08,51.07-.85,20.15-.46,40.32.36,60.47.07,1.65.05,3.32-.03,4.97-.31,5.86-.69,11.71-1.01,17.56-.15,2.8-.24,5.61-.33,8.41,0,.3.08.71.28.88.89.76,1,1.71.89,2.78-.12,1.14-.21,2.29-.29,3.43-.9,13.62-1.83,27.24-2.66,40.87-.23,3.85-.48,7.76-.13,11.58.79,8.57,1.5,17.12.98,25.73-.17,2.91-.16,5.86-1.58,8.59-.33.63-.05,1.58-.05,2.47,3.59-.65,6.79-1.5,10.03-1.77,8.56-.72,17.13-1.41,25.71-1.73,21.8-.8,43.6-1.49,65.38-2.86,8.78-.55,17.6-.6,26.4-.83,4.51-.12,9.01-.18,13.52-.16,8,.03,15.99.08,23.98.25,5.61.12,11.21.39,16.82.7,1.56.08,3.13.41,4.63.86.58.17,1.21.93,1.37,1.54.21.82-.44,1.4-1.28,1.63-.08.02-.16.05-.25.06-1.68.2-3.4.71-5.05.55-7.43-.7-14.87-.54-22.31-.52-10.76.03-21.52-.15-32.27-.06-7.95.06-15.91.29-23.85.65-16.27.75-32.53,1.69-48.8,2.46-12.49.59-24.99,1.01-37.48,1.54-1.89.08-3.77.34-5.51.51.22.68.62,1.27.47,1.65-.14.36-.85.67-1.33.71-2.67.21-5.34.32-8.02.47-.31.02-.61.04-.92.06-.04.1-.08.2-.12.3.94.76,1.86,1.57,2.84,2.28,3.38,2.43,6.81,4.8,10.18,7.23.88.64,1.6,1.58,2.83.73.12-3.13.56-3.49,3.74-3.46,1.57.02,3.14-.09,4.7-.26,3.17-.35,6.31-.94,9.49-1.16,8.06-.54,16.13-.89,24.2-1.4,6.28-.4,12.54-1.05,18.83-1.36,5.99-.3,11.99-.34,17.99-.42,12.89-.18,25.77-.3,38.66-.48.85-.01,1.87-.12,2.52-.58,1.64-1.15,3.38-1.46,5.31-1.39,2.38.09,4.76.12,7.14.1,1.63-.01,1.76.05,1.94,1.75,10.41,0,20.84.2,31.25-.05,16.88-.41,33.76-.92,50.65-.47.51.01,1.03-.24,1.53-.4,1.44-.45,2.9-1.34,4.33-1.31,6.8.17,13.59.51,20.38.94,3.77.24,7.52,1.06,11.28,1.07,4.41.01,8.82-.55,13.23-.91,2.12-.17,4.23-.43,6.34-.68.92-.11,1.26.26,1.16,1.14-.03.29,0,.6-.02.89-.07.76.26,1.07,1.02,1.1,1.02.03,2.04.15,3.05.23,2.36.19,4.65.81,7.02-.56,1.39-.8,3.3-.68,4.97-1,1.88-.37,3.78-.75,5.22-2.18.6-.59,1.1-1.28,1.54-1.81-.11-.67-.36-1.41-.32-2.13.11-2.46.31-4.92.5-7.38.99-13.36,1.98-26.72,2.96-40.08.06-.81.14-1.64,1.21-1.57.99.07.99.88.97,1.63-.07,2.89-.02,5.79-.24,8.67-.47,6.28-1.16,12.54-1.62,18.81-.49,6.57-.8,13.16-1.25,19.74-.06.91-.5,1.79-.81,2.81.63.54.52,1.33.04,2.22-1,1.83-2.46,3.13-4.31,4.01-.42.2-.84.41-1.19.58,3.4.91,6.73,1.81,10.13,2.72,0-.21.03-.58,0-.95-.5-6.26-.12-12.49.4-18.73.44-5.42.82-10.85,1.01-16.29.13-3.99-.19-7.99-.15-11.99.15-16.12.33-32.24.58-48.35.15-9.4.53-18.79.65-28.19.09-6.93-.13-13.86-.08-20.79.19-23.26.35-46.53.71-69.79.3-19.82.8-39.63,1.35-59.44.21-7.73.57-15.48,1.25-23.18.82-9.28,1.78-18.54,1.35-27.88-.03-.72,0-1.45.02-2.17.21-12.53,1.57-24.95,3.32-37.34.13-.91.24-1.83.39-2.94ZM141.89,68.74c.22.08.34.16.45.16,4.42.05,8.85.3,13.26.08,5.39-.26,10.76-.97,16.14-1.36,11.11-.81,22.23-1.51,33.35-2.29,6.96-.49,13.9-1.29,20.86-1.48,11.09-.31,22.19-.19,33.29-.31,14.18-.15,28.3,1.02,42.44,1.76,10.66.56,21.32,1.03,31.98,1.54.42.02.83,0,1.25,0-.21-.31-.4-.4-.6-.45-20.44-5.38-40.87-10.78-61.31-16.13-5.06-1.32-10.11-2.75-15.25-3.65-7.74-1.36-15.56-2.31-23.35-3.43-3.06-.44-6.13-.89-9.19-1.33-.64,1.79-1.86,2.47-3.61,2.31-.55-.05-1.11-.05-1.65-.15-4.77-.84-9.56-1.63-14.31-2.58-5.33-1.07-10.62-2.39-15.96-3.44-9.38-1.84-18.78-3.58-28.18-5.32-1.24-.23-2.53-.26-3.8-.3-.3,0-.67.25-.89.5-2.41,2.68-4.76,5.42-7.21,8.07-1.02,1.1-1.84,2.17-2.15,3.72-1.43,7.13-2.69,14.29-4.91,21.24-.29.92-.45,1.89-.67,2.84ZM437.08,123.91c-3.47-1.94-6.82-3.77-10.12-5.69-1.12-.65-2.32-1.31-2.59-2.81-.04-.22-.39-.42-.64-.55-8.99-4.9-17.98-9.83-27.01-14.67-1.46-.79-2.82-1.46-2.55-3.68-3.05,2.53-5.45,1.33-7.76-.9-.1.28-.18.43-.2.58-1.13,9.68-1.93,19.37-2.01,29.12-.05,6.46.05,12.95-.57,19.36-1.11,11.27-1.82,22.54-2.05,33.85-.28,14.11-.51,28.23-.75,42.34,0,.23.03.46.04.68l.31.1c1.33-2.35,2.75-4.65,3.96-7.06,2.47-4.9,4.74-9.89,7.24-14.77,2.71-5.29,5.56-10.52,8.4-15.74,1.1-2.01,2.34-3.95,3.53-5.91,4.1-6.76,8-13.65,12.37-20.23,3.69-5.57,7.33-11.14,10.36-17.11,1.96-3.86,4.22-7.57,6.41-11.3,1.14-1.94,2.43-3.78,3.63-5.62ZM444.92,166.12c-.89-.81-1.8-1.94-2.97-2.64-1.89-1.14-2.94-2.83-3.68-4.78-.31-.81-2.47-1.86-3.19-1.36-.77.55-1.56.98-2.46.44-.96-.58-1.08-1.54-.99-2.58.05-.6,0-1.2,0-2.12-1.01,1.93-1.78,3.58-2.7,5.15-7.66,13.01-15.35,26-23.05,38.98-1.06,1.79-2.18,3.55-3.36,5.27-.22.31-.83.35-1.26.52-.14-.47-.48-1-.37-1.41.21-.81.62-1.58,1.04-2.32,5.47-9.8,10.91-19.62,16.47-29.37,3.41-5.98,7.02-11.85,10.55-17.77,2.79-2.09,3.02-5.14,3.1-8.24,0-.17.06-.34.04-.51-.04-.3-.11-.59-.17-.88-.51.3-.71.65-.9,1-1.9,3.37-3.68,6.81-5.72,10.09-2.29,3.68-4.93,7.14-7.2,10.83-4.8,7.83-9.47,15.74-14.15,23.64-1.3,2.19-2.52,4.43-3.67,6.71-4.31,8.54-8.54,17.11-12.88,25.64-1.17,2.31-2.6,4.48-3.92,6.71-.66,1.12-1.16,2.43-2.07,3.28-.81.76-1.1,1.43-1.11,2.47-.09,12.54-.22,25.09-.34,37.63,0,.26.06.52.13,1.11.4-.79.63-1.28.88-1.76,2.44-4.67,4.78-9.4,7.34-14,3.46-6.22,6.96-12.42,10.92-18.34,2.62-3.92,4.98-8.01,7.55-11.97,3.75-5.77,7.77-11.39,11.36-17.26,5.96-9.76,11.91-19.53,18.56-28.85,2.39-3.35,4.34-7.01,6.49-10.53.52-.85,1.05-1.7,1.71-2.77ZM375.1,83.51c-.11-.1-.21-.2-.32-.29-.41.35-1.08.65-1.18,1.07-.41,1.84-.73,3.7-.92,5.58-.23,2.28-.31,4.58-.43,6.87-.2,3.82-.38,7.64-.57,11.45.01,0,.03,0,.04,0,1.13-8.23,2.25-16.45,3.38-24.68ZM449,169.52c-.49,1-.9,1.85-1.32,2.7.07.05.15.09.22.14.64-.72,1.28-1.44,1.98-2.22-.28-.2-.51-.36-.88-.62Z"/><path class="cls-1" d="M89.41,218.96c.37-.34.69-.88,1.11-.98,5.85-1.44,11.62-3.07,17.77-3.13,7.56-.08,15.12-.7,22.66-1.26,8.5-.62,16.98-.64,25.49-.45,8.5.19,17-.18,25.51-.23,16.75-.11,33.51-.2,50.26-.25,8.42-.02,16.85.43,25.25,0,11.54-.58,23.06-1.7,34.58-2.73,7.2-.64,14.37-1.55,21.56-2.32.75-.08,1.53-.08,2.29.02.99.12,1.84.57,2,1.66.15,1.05-.41,1.83-1.32,2.26-.76.35-1.58.69-2.41.77-10.02,1.07-20.02,2.43-30.07,3.04-8.05.49-16.15,0-24.23.06-7.82.06-15.65.25-23.47.4-2.55.05-5.1.13-7.65.18-22.02.42-44.05.76-66.07,1.27-21.34.49-42.68,1.13-64.02,1.72-2.55.07-5.1.23-7.65.35-.45.02-.9,0-1.35,0-.08-.12-.16-.25-.23-.37Z"/><path class="cls-1" d="M168.99,94.15c.89,1.02.84,2.65-.49,3.55-1.09.74-2.42,1.26-3.71,1.5-1.87.36-3.8.54-5.71.52-7.43-.08-14.74.98-22.07,2.06-10.26,1.52-20.55,2.9-30.85,4.08-7.98.91-16,1.4-24,2.11-.51.05-1.06.35-1.47.7-.85.73-1.88.55-2.19-.54-.17-.6-.17-1.26-.15-1.89.1-3.06.34-6.12.33-9.18,0-2.54-.33-5.08-.43-7.62-.02-.5.3-1.02.47-1.53.49.25,1.27.39,1.41.77.62,1.61,1.39,3.27,1.48,4.95.19,3.43-.02,6.88-.08,10.31-.01.75-.07,1.51-.1,2.18,13.46-2.67,26.89-4.98,40.19-6.43.14-3.33.27-6.35.41-9.47-.45,0-.95-.02-1.44,0-9.77.41-19.54,1.06-29.32.11-1.01-.1-2.03-.25-3.01-.5-.74-.19-1.4-.69-1.06-1.58.32-.84.93-.9,1.75-.42.47.27,1.15.19,1.74.2,10.14.11,20.21-.72,30.26-2.11,14.33-1.98,28.75-3.13,43.19-3.91,2.31-.12,4.66.2,6.96.54.8.12,1.93.78,2.13,1.44.2.64-.58,1.59-.96,2.39-.26.55-.64,1.06-.83,1.63-.53,1.62-.94,3.27-1.48,4.88-.15.44-.58.78-.96,1.26ZM167.77,94.11c-.08-2.13-.25-4.01-.19-5.89.04-1.23-.41-1.58-1.52-1.51-3.18.2-6.37.3-9.55.56-9.36.77-18.72,1.61-28.08,2.41-.61.05-1.13.08-1.3.89-.58,2.65-.59,5.29-.24,8.08.6-.08,1.14-.15,1.67-.24,4.99-.81,9.96-1.87,14.98-2.38,8.18-.84,16.39-1.32,24.23-1.92Z"/><path class="cls-1" d="M123.6,344.66c-1.91,0-3.83.06-5.74-.02-1.01-.05-2.19-.23-2.34-1.53-.15-1.23.73-2.01,1.76-2.38,1.02-.37,2.14-.56,3.22-.64,10-.77,20.01-1.53,30.01-2.25,6.91-.5,13.84-.84,20.75-1.4,7.84-.63,15.66-1.6,23.5-2.11,12.05-.78,24.11-1.42,36.18-1.9,19.16-.77,38.34-1.36,57.5-2.01.93-.03,1.91-.11,2.79.13.57.16,1.32.82,1.39,1.33.07.52-.49,1.45-.99,1.64-1.17.46-2.45.75-3.7.82-11.97.69-23.94,1.34-35.92,1.95-19.54.99-39.08,1.84-58.61,2.95-7.98.45-15.92,1.48-23.89,2.11-14.5,1.16-29,2.22-43.5,3.32-.81.06-1.61.08-2.42.13,0-.04,0-.09,0-.13Z"/><path class="cls-1" d="M79.78,273c1.64-.57,1.93.46,2.25,1.56,1.31,4.48,1.27,9.06,1.25,13.66-.09,17.51-.15,35.03-.16,52.54,0,4.44-.26,8.84-1.28,13.16-.12.5-.71.89-1.08,1.34-.37-.44-.94-.83-1.09-1.33-1.12-3.82-1.47-7.7-1.39-11.7.19-10.45.14-20.91.12-31.37,0-2.5-.27-5-.42-7.66-.15,1.48-.28,2.81-.42,4.2-1.28-.21-1.31-1.06-1.29-1.93.12-5.31.25-10.63.39-15.94.22-8.03.4-16.07.69-24.1.26-7.26.64-14.52,1-21.78.1-1.93.07-3.81-.78-5.62-.17-.37-.03-1,.17-1.42.54-1.15,1.14-2.28,1.83-3.35.25-.39.81-.84,1.22-.83,4.08.1,7.94-.7,11.87-1.84,6.12-1.79,12.4-3.06,18.87-1.98,1.09.18,2.2.21,3.3.28,2.04.12,1.67.47,2.04,2.52.22,1.23-.88,1.53-1.83,1.65-3.41.43-6.82.98-10.25,1.19-6.29.38-12.18,2.23-17.95,4.58-1.33.54-2.22,1.68-2.39,3.11-.51,4.26-.88,8.53-1.36,12.79-.25,2.23-.58,4.46-.95,6.67-.07.39-.44.99-.76,1.04-.88.16-.9.71-.95,1.37-.21,3-.43,6-.66,9.19Z"/><path class="cls-1" d="M123.85,368.79c-2.51.11-5.01.23-7.52.34-.51.02-1.06.14-1.52-.01-.48-.16-.87-.58-1.3-.89.4-.34.77-.93,1.2-.98,2.32-.27,4.66-.39,6.99-.6,9.91-.91,19.81-1.93,29.72-2.73,7.25-.58,14.51-1.01,21.78-1.26,10.13-.35,20.18-1.49,30.25-2.49,11.63-1.15,23.3-2.02,34.97-2.8,14.08-.95,28.18-1.74,42.28-2.45,4.28-.22,8.58.04,12.87.15.92.02,1.89.19,2.74.53.48.19,1.08.9,1.04,1.31-.04.42-.77,1.02-1.27,1.1-2.18.37-4.38.7-6.58.82-10.1.54-20.22.9-30.32,1.53-21.69,1.36-43.36,2.89-65.05,4.27-7.3.46-14.61.81-21.92.99-12.94.32-25.82,1.35-38.69,2.54-3.22.3-6.45.46-9.67.69,0-.01,0-.03,0-.04Z"/><path class="cls-1" d="M211.79,228.84c6.32-.19,13.5-.31,20.68-.64,13.42-.62,26.84-1.33,40.26-2.05,6.54-.35,13.07-.8,19.6-1.25.62-.04,1.21-.43,1.81-.68,1.09-.45,2.14-1.11,3.28-1.33,1.83-.35,3.7-.51,5.56-.56,2.41-.07,4.9-.28,7.24.16,3.27.62,6.5,1.62,9.63,2.78,1.63.6,3.07,1.8,4.47,2.9,1.78,1.39,2.93,3.28,3.75,5.38.78,2.02,1.5,4.07,2.38,6.05,2.45,5.51,2.72,11.36,2.8,17.24,0,.5-.17,1-.23,1.51-.27,2.62-.64,5.23-.78,7.85-.26,5.17-.42,10.35-.56,15.53-.23,7.82-.41,15.64-.61,23.46-.02.85.06,1.71-.05,2.55-.05.37-.45.68-.69,1.03-.26-.33-.7-.64-.75-1.01-.18-1.3-.31-2.63-.3-3.94.07-6.85.15-13.69.32-20.54.05-1.86.45-3.71.68-5.56.71-5.54-.17-11.04-.55-16.54,0-.13,0-.26-.06-.38-1.83-4.27-.91-8.93-1.92-13.31-.48-2.1-1.14-4.17-1.84-6.21-.69-2.01-1.54-3.96-2.3-5.94-.38-1-.72-1.9-2.1-2-.57-.04-1.35-.72-1.57-1.29-.65-1.71-2.03-2.45-3.56-2.75-6.83-1.33-13.64-2.47-20.69-2.46-6.62.01-13.15,1.16-19.79.74-8.07-.51-16.2-.19-24.17,1.18-10.44,1.8-20.85,1.15-31.3.59-3.18-.17-6.35-.35-8.67-.48Z"/><path class="cls-1" d="M366.61,332.2c.64-16.66,1.2-33.32,1.96-49.98.21-4.7,1.06-9.38,1.52-14.07.33-3.3.5-6.61.74-9.92.02-.3.04-.59.07-.89.15-1.52.65-2.18,1.65-2.16,1.01.02,1.58.72,1.5,2.22-.25,4.67-.58,9.33-.89,13.99-.42,6.36-1.04,12.72-1.25,19.08-.53,16.2-.75,32.4-1.35,48.59-.35,9.4-.54,18.79-.02,28.18.3,5.5.07,10.97-.99,16.39-.08.42-.09.92-.33,1.21-.32.37-.87.82-1.27.77-.4-.04-.76-.63-1.09-1.03-.11-.14-.06-.41-.07-.62-.23-11.14-.6-22.28-.65-33.42-.03-6.12.49-12.24.76-18.35-.09,0-.18,0-.28-.01Z"/><path class="cls-1" d="M359.64,351.23c.75-14.51,1.41-29.38,2.33-44.23.88-14.13,2.03-28.24,3.07-42.36.03-.47,0-1.01.23-1.37.33-.51.98-1.3,1.32-1.22.55.13,1.14.79,1.36,1.36.25.64.16,1.43.11,2.15-.45,6.92-.84,13.83-1.39,20.74-2.77,34.81-4.51,69.67-4.47,104.6,0,3.57-.17,7.14-.26,10.71-.02.74-.07,1.57-1.05,1.61-1.08.04-1.14-.87-1.16-1.63-.17-7.23-.45-14.45-.45-21.68,0-9.44.23-18.88.37-28.67Z"/><path class="cls-1" d="M212.62,410.35c-12.59,0-25.18,0-37.77,0-1.06,0-2.14-.01-3.18-.21-.46-.09-.82-.65-1.23-1,.36-.4.69-1.09,1.1-1.14,2.69-.35,5.4-.74,8.11-.78,12.33-.19,24.67-.29,37-.36,10.08-.06,20.16-.26,30.23.02,8.32.23,16.63,1.13,24.95,1.61,3.86.22,7.73.15,11.6.21.55,0,1.11-.04,1.66-.05.89-.01,1.5.39,1.6,1.3.1.91-.41,1.5-1.28,1.6-1.69.19-3.39.43-5.08.38-7.31-.19-14.64-.23-21.92-.79-12.02-.91-24.05-.82-36.09-.71-3.23.03-6.46,0-9.7,0,0-.02,0-.04,0-.07Z"/><path class="cls-1" d="M91.56,377.41c-.57-10.99.53-21.92,1.13-32.87.31-5.63-.02-11.3-.12-16.95-.06-3.1-.33-6.2-.37-9.3-.1-7.28,2.38-10.57,9.4-12.57,2.42-.69,4.89-1.26,7.42-.75,1.07.21,2.11.65,3.08,1.15.31.16.57.92.45,1.24-.12.32-.87.7-1.17.58-2.42-.93-4.61-.15-6.77.81-1.47.66-2.89,1.45-4.35,2.13-2.23,1.05-3.36,2.85-3.89,5.19-1.69,7.46-1.84,14.98-1.38,22.57.41,6.78.73,13.59.66,20.38-.1,10.09.54,20.14,1.16,30.19.27,4.4.22,8.83.25,13.25,0,1.24-.54,1.53-1.75,1.15-1.71-.54-2.58-1.72-2.68-3.9-.17-3.61-.22-7.22-.39-10.83-.18-3.82-.44-7.64-.67-11.46Z"/><path class="cls-1" d="M145.33,385.44c13.78-.22,27.54-.89,41.26-2.18,4.72-.45,9.42-.61,14.09.41.69.15,1.36.43,1.12,1.2-.12.39-.88.89-1.28.83-5.91-.78-11.69.59-17.53,1-10.05.71-20.11,1.38-30.16,2.01-12.73.79-25.47,1.51-38.2,2.25-1.06.06-2.13.11-3.18,0-1.36-.13-2.22-.99-2.23-2.04-.01-1.1.74-1.88,2.22-1.99,3.99-.29,7.98-.51,11.97-.71,5.82-.29,11.64-.54,17.45-.78,1.49-.06,2.98,0,4.46,0Z"/><path class="cls-1" d="M194.11,312.66c-5.74,0-11.48,0-17.22,0-.43,0-.92.12-1.26-.05-.42-.21-.93-.63-1.01-1.03-.06-.29.47-.89.85-1.02.67-.23,1.42-.23,2.14-.28,16.96-1.2,33.92-2.55,50.9-3.5,5.18-.29,10.42.54,15.64.84,1.44.08,2.89.05,4.32.22.53.06,1.37.53,1.4.89.05.52-.39,1.46-.8,1.58-1.29.36-2.65.53-4,.58-8.03.3-16.07.46-24.09.83-6.54.3-13.07.85-19.61,1.21-2.42.13-4.85.02-7.27.02,0-.1,0-.19,0-.29Z"/><path class="cls-1" d="M369.36,247.8c-.12.96-.1,1.88-.38,2.71-.18.53-.74,1.22-1.22,1.3-.86.14-1.23-.59-1.2-1.42.1-2.97.18-5.95.31-8.92.27-5.9.81-11.8.82-17.7,0-15.8,1.27-31.52,2.91-47.22.11-1.05.36-2.09.58-3.13.17-.83.61-1.47,1.56-1.33,1.02.15,1.21.9,1.13,1.81-.72,8.69-1.51,17.37-2.12,26.06-.42,5.98-.78,11.98-.8,17.97-.03,8.49.28,16.99.45,25.48.02.81.04,1.62.04,2.42-.01,1.6-.32,1.91-2.07,1.98Z"/><path class="cls-1" d="M247.31,383.49c-5.32,0-10.63,0-15.95,0-.55,0-1.13.05-1.65-.09-.37-.1-.67-.48-1.01-.74.34-.3.64-.78,1.02-.86.95-.18,1.94-.18,2.92-.24,8.53-.51,17.06-.93,25.59-1.56,6.57-.49,13.11-1.51,19.68-1.8,7.3-.33,14.62-.11,21.93-.12.85,0,1.56.29,1.58,1.27.02.99-.72,1.28-1.54,1.34-4.03.25-8.07.43-12.09.73-6.78.5-13.55,1.17-20.34,1.58-6.7.4-13.42.55-20.12.81,0-.11,0-.21-.01-.32Z"/><path class="cls-1" d="M281.44,311.58c-3.82,0-7.64.01-11.46-.01-.76,0-1.58.02-2.26-.25-.72-.29-1.62-.81-1.86-1.44-.37-1,.64-1.58,1.43-1.97.79-.39,1.66-.74,2.52-.84,1.94-.22,3.89-.42,5.83-.36,3.4.09,6.79.59,10.18.54,6.03-.1,12.05-.51,18.07-.75,1.48-.06,2.98-.02,4.45.1.83.07,1.75.21,2.43.64,1.05.67,2.1,1,3.33.98.36,0,.73.41,1.1.63-.29.35-.52.84-.9,1.03-1.1.53-2.25.97-3.4,1.37-.51.18-1.08.25-1.62.26-3.64.06-7.31-.15-10.93.18-5.65.51-11.28.63-16.93-.09Z"/><path class="cls-1" d="M321.65,356.35c0,8.08-.06,16.16.02,24.24.07,7.31.3,14.62.42,21.93,0,.44-.32.89-.49,1.34-.31-.44-.85-.86-.89-1.33-1.23-12.86-1.81-25.74-1.54-38.67.24-11.48.09-22.96.12-34.44,0-2.51.04-5.02.08-7.53.06-3.16-.12-6.28-.88-9.37-.22-.9-.11-1.94.09-2.86.08-.36.79-.6,1.21-.89.17.39.48.77.49,1.16.24,8.93.43,17.85.65,26.78.16,6.55.34,13.09.51,19.64.07,0,.13,0,.2,0Z"/><path class="cls-1" d="M125.32,415.89c-1.32-.08-3.11-.17-4.89-.3-.78-.06-1.58-.38-1.42-1.26.09-.51.76-1.2,1.27-1.29,2.51-.44,5.04-.77,7.58-1.01,11.18-1.03,22.36-2.02,33.54-3.02.25-.02.51-.06.76-.06.83-.02,1.43.35,1.54,1.2.11.84-.34,1.41-1.18,1.53-2.14.32-4.29.61-6.45.86-8.57,1.03-17.14,2.06-25.71,3.05-1.52.18-3.05.18-5.05.29Z"/><path class="cls-1" d="M331.35,399.18c-.05-.48-.12-.96-.14-1.44-.22-5.95-.48-11.9-.63-17.85-.24-9.39-.48-18.79-.6-28.18-.1-7.78-.04-15.56-.02-23.34,0-.67-.39-1.79.77-1.83,1.04-.04.84,1.05.87,1.69.29,5.99.55,11.97.77,17.96.11,2.97.16,5.95.15,8.93-.02,6.72-.13,13.43-.15,20.15-.03,6.46.01,12.93,0,19.39,0,1.15,0,2.3-.1,3.44-.03.41-.33.79-.51,1.19l-.42-.11Z"/><path class="cls-1" d="M165.77,229.88c-8.32.24-16.65.48-24.97.71-.59.02-1.22.09-1.77-.07-.44-.13-.8-.57-1.2-.87.37-.38.69-1.05,1.1-1.1,2.02-.28,4.05-.49,6.09-.58,14.3-.61,28.6-1.39,42.93-.72,1.52.07,3.05.21,4.55.49.47.09.83.74,1.25,1.13-.49.28-.98.8-1.47.8-8.33.04-16.65,0-24.98,0-.51,0-1.02,0-1.53,0,0,.07,0,.13,0,.2Z"/><path class="cls-1" d="M83,398.78c0,4.65,0,10.77,0,16.88,0,.25.05.55-.06.76-.26.5-.6.97-.91,1.45-.38-.42-1.03-.8-1.09-1.27-.73-5.17-1.55-10.33-1.99-15.53-.36-4.23-.43-8.49-.32-12.74.09-3.38.63-6.75.99-10.12.08-.75.3-1.51,1.26-1.45.96.06,1.03.81,1.07,1.58.32,6.32.65,12.64,1.05,20.43Z"/><path class="cls-1" d="M318.95,411.54c-.73,1.66-1.28,2.98-1.91,4.26-.14.29-.55.56-.89.63-6.06,1.24-12.12,1.72-18.18-.04-.64-.19-1.42-.36-1.82-.81-.51-.58-1.06-1.51-.93-2.15.14-.65.99-1.36,1.69-1.63.68-.27,1.61-.17,2.36.03,4.75,1.24,9.49,1.16,14.28.21,1.64-.32,3.35-.31,5.38-.49Z"/><path class="cls-1" d="M361.06,265.31c.45-5.67.89-11.35,1.35-17.02.06-.67.11-1.41.42-1.97.26-.46,1-1.05,1.36-.95.48.13,1.1.84,1.14,1.34.1,1.26-.07,2.54-.16,3.81-.57,7.92-1.15,15.85-1.73,23.77-.03.47.01,1.01-.22,1.37-.29.47-.82.79-1.25,1.17-.37-.44-1.05-.87-1.07-1.32-.06-2.38.03-4.76.09-7.13.03-1.02.11-2.04.17-3.05-.04,0-.07,0-.11,0Z"/><path class="cls-1" d="M105.33,418.12c-3.66.02-5.88-2.12-7.58-4.9-.52-.86-.52-2.11-.53-3.18,0-.41.63-.82.97-1.23.34.36.76.68,1,1.1.33.58.45,1.29.8,1.85.66,1.04,1.48,1.67,2.94,1.45,2.09-.31,4.22-.32,6.34-.42,1.35-.07,2.64.16,3.67,1.13,1.27,1.18,1.15,2.42-.51,2.87-2.31.63-4.73.9-7.1,1.33Z"/><path class="cls-1" d="M140.83,312.94c-3.48,0-6.96,0-10.44,0-.46,0-1.01.07-1.37-.14-.38-.22-.8-.73-.8-1.12,0-.38.47-.8.82-1.11.15-.14.49-.09.74-.1,7-.14,14.01-.28,21.01-.42.34,0,.68,0,1.02.03.71.04,1.61-.07,1.64.96.03,1.11-.92,1.04-1.67,1.09-2.63.16-5.26.3-7.89.45-1.02.06-2.04.09-3.05.14,0,.08,0,.16,0,.24Z"/><path class="cls-1" d="M158.48,46.32c-.18,3.95-.74,7.85-2.04,11.61-.18.5-.75.87-1.13,1.3-.34-.43-.87-.82-.99-1.3-1.16-4.52-.67-9,.53-13.44.11-.4.3-.88.61-1.09.55-.38,1.3-.9,1.82-.77.5.12.99.94,1.17,1.55.2.66.05,1.43.05,2.15Z"/><path class="cls-1" d="M432.86,161.56c-.15.42-.3,1.09-.61,1.69-1.09,2.11-2.22,4.21-3.37,6.3-9.91,18.08-21.41,35.15-33.14,52.08-1.91,2.76-3.8,5.54-5.78,8.26-.29.4-1.12.83-1.48.69-.81-.32-.43-1.08-.11-1.63,2.55-4.32,5.07-8.66,7.68-12.94,9.8-16.09,19.62-32.17,29.45-48.24,1.24-2.03,2.56-4.02,3.9-5.98.4-.59.91-1.15,1.49-1.55.93-.64,1.92-.05,1.95,1.33Z"/></svg>