<?xml version="1.0" encoding="UTF-8"?><svg id="Layer_3" xmlns="http://www.w3.org/2000/svg" viewBox="0 0 500 500"><defs><style>.cls-1{fill:#000;stroke-width:0px;}</style></defs><path class="cls-1" d="M35.75,297.8c-1.6.3-2.32-.09-2.77-1.87-.26-1.04-1.02-1.25-1.85-1.4-1.36-.24-1.83-.73-1.83-2.12,0-.77.12-1.54.03-2.29-.09-.72-.38-1.42-.59-2.12-.14-.48-.36-.96-.39-1.45-.07-1.14-.14-2.3-.06-3.44.43-6.17.09-12.32-.18-18.48-.2-4.57-.04-9.16-.04-13.58-.57-.41-1.64-.79-1.79-1.39-.18-.75.15-1.96.71-2.48,1.95-1.81,4.06-3.46,6.18-5.08,2.23-1.69,4.56-3.24,6.81-4.9,1.13-.83,2.18-1.77,3.26-2.66,1.02-.84,2.12-1.5,2.45-3.04.19-.87,1.17-1.64,1.92-2.3,2.53-2.22,5.48-3.71,8.63-4.84.69-.25,1.16-.46,1.29-1.41.09-.7.85-1.45,1.51-1.9,3.01-2.08,6.37-3.26,10.04-3.3,4.04-.04,8.08.11,12.12.17.33,0,.67,0,1.25,0,.08-1.82.13-3.62.26-5.42.12-1.74.24-3.48.49-5.2.92-6.44,1.82-12.88,2.87-19.3.37-2.25,1.06-4.47,1.77-6.64.22-.67,1.01-1.14,1.53-1.71.26-.29.61-.58.72-.93,1.59-5.12,3.13-10.25,4.72-15.36.43-1.38.96-2.73,1.51-4.07,2.76-6.77,5.52-13.55,8.33-20.29,2.56-6.12,5.17-12.21,9.03-17.69.95-1.34,1.32-3.08,1.99-4.62.22-.5.47-1.02.8-1.44,5.11-6.47,10.22-12.95,15.41-19.36.71-.88,1.85-1.41,2.79-2.11.14-.1.28-.19.41-.3,4.96-4.4,9.83-8.91,14.89-13.18,4.42-3.73,8.85-7.49,13.62-10.74,22.49-15.32,46.64-27.3,72.74-35.18,2.34-.71,4.7-1.55,7.24-1.21.39.05.82-.17,1.24-.27,4.22-.98,8.44-1.98,12.67-2.94,1.26-.29,2.49-.36,3.05,1.24.07.21.53.4.82.4,7.44.18,14.88.34,22.32.49.23,0,.59-.04.69-.19.74-1.14,1.85-1.01,2.97-.96,10.87.51,21.73,1.04,32.49,2.77,2.98.48,5.93,1.11,8.89,1.71.62.12,1.07.16,1.55-.43.65-.8,1.61-.74,2.47-.36,6.23,2.73,12.47,5.46,18.67,8.26.92.42,1.63,1.28,2.52,1.8.31.18.87-.06,1.31-.08.75-.04,1.55-.22,2.25-.04.71.18,1.33.73,1.99,1.13,4.11,2.54,8.37,4.53,13.21,5.44,5.4,1.01,10.02,3.76,13.55,8.04,2.44,2.97,5.76,4.22,9.21,5.33.89.28,1.82.45,2.71.73,1.28.41,1.98,1.32,1.76,2.3-.29,1.27-1.23,1.51-2.36,1.37-.16-.02-.33,0-.27,0,.44.53.94,1.19,1.51,1.78.15.15.55.17.8.1.98-.26,1.73.03,2.41.75,1.36,1.44,2.47,3.07,4.26,4.15,1.13.68,1.86,2.03,2.79,3.06.25.27.57.48.85.71,1.75-2.04,3.11-2.25,5.07-.36,2.17,2.09,4.18,4.36,6.07,6.7,7.96,9.9,14.34,20.75,19.38,32.43,2.34,5.42,5.42,10.52,7.73,15.94,2.51,5.88,4.5,11.98,6.76,17.97.22.59.77,1.04,1.11,1.59.28.45.57.93.67,1.44.42,1.98.68,4,1.15,5.96.6,2.48,1.38,4.91,2.01,7.38.29,1.13.38,2.27-.69,3.17-.21.18-.23.69-.19,1.03.93,7.98,2.1,15.94,2.75,23.95.5,6.12.38,12.3.43,18.46,0,1.1-.54,2.2-.82,3.3-.19.76-.46,1.52-.52,2.29-.21,2.5-.12,5.04-.57,7.5-.56,3.06-1.42,6.08-2.36,9.06-1.87,5.89-1.93,11.98-2.23,18.05-.15,2.97-.34,5.94-.52,8.91-.02.34-.07.68-.12,1.01-.16,1.06-.6,1.95-1.82,1.92-1.23-.03-1.74-.9-1.87-2.04-.02-.2-.06-.41-.23-.61-.53,3.34-1.05,6.68-1.61,10.02-.2,1.21-.49,2.42-.81,3.61-.29,1.06-.75,1.98-2.08,2.1-.3.03-.64.5-.83.84-2.25,3.91-4.47,7.83-6.7,11.74-1.94,3.41-4.12,6.64-6.8,9.53-1.11,1.2-2.35,2.64-2.66,4.14-.6,2.9-2.94,4.46-4.39,6.66-4.39,6.63-9.07,13.05-13.64,19.56-.11.16-.21.34-.43.7.6-.11,1.01-.17,1.41-.25,6.29-1.32,12.52-2.82,18.59-4.98,2.04-.73,4.13-1.31,6.22-1.9,2.38-.67,3-.24,3.28,2.2,2.08-.39,4.15-.73,5.84-2.17.79-.67,1.63-1.29,2.77-.73.12.06.38.04.46-.05.98-1.07,2.11-.56,3.22-.37,1.16.21,2.33.37,3.49.56.25.04.51.09.74.19,2.09.87,4.17,1.75,6.26,2.63.19.08.4.19.6.2,3.43.08,3.47,2.18,2.85,4.96-.5,2.26-1.25,4.4-.2,6.7.25.55.26,1.25.23,1.88-.05,1.57-.09,3.1.51,4.63.51,1.31-.18,2.45-.94,3.54-.33.47-.56,1.11-.57,1.68-.02,1.4.16,2.8.16,4.2,0,1.36-.62,1.96-1.96,1.94-.98-.01-1.19.56-1.2,1.34-.01.79.09,1.59-.04,2.36-.23,1.38-.58,2.75-.92,4.11-1.06,4.23-1.6,8.51-1.41,12.88.09,2.08,0,4.17-.15,6.25-.05.69-.37,1.6-.88,1.97-.8.57-.83,1.2-.75,1.97.19,1.77.4,3.54.6,5.32.12,1.01.56,1.63,1.7,1.61,1.14-.02,2.31-.05,3.43.14,1.87.32,2.55,1.61,1.87,3.38-1.24,3.25-1.54,6.57-1.12,10.02.12,1-.23,2.07-.39,3.1-.15.94-.47,1.89-.46,2.83.03,2.08.25,4.16.33,6.24.03.76.07,1.62-.25,2.25-.32.64-1,1.33-1.65,1.5-.47.12-1.2-.53-1.71-.96-.54-.45-.95-1.04-1.49-1.65-2.28.95-4.55,1.9-6.82,2.83-1.14.47-2.27.96-3.44,1.37-.55.19-1.3.47-1.72.25-1.42-.73-2.64-.07-3.9.31-4.44,1.33-8.87,2.69-13.3,4.05-1.22.37-2.39.66-3.41-.51-.14-.16-.63-.13-.91-.05-1.06.33-2.09.73-3.14,1.08-5.19,1.74-10.33,3.48-15.81,4.31-7.39,1.11-14.68,2.91-22.03,4.28-7.03,1.31-14.13,2.37-21.29,2.27-25.54-.37-51.12.56-76.6-2.17-3.04-.33-6.07-.78-9.1-1.22-.96-.14-1.79-.55-2.08-1.62-.05-.19-.22-.48-.34-.48-1.84-.07-3.56-1.23-5.55-.35-1.02.45-2.37.44-3.5.25-6.03-1.03-12.11-1.89-18.04-3.34-13.03-3.18-25.69-7.57-38.27-12.18-3.51-1.29-7.1-2.35-10.65-3.53-5.36-1.79-10.72-3.59-16.09-5.38-.38-.13-.77-.26-1.35-.45.3.87.54,1.53.75,2.2.36,1.18.41,2.33-.29,3.44-.39.62-.39,1.02.4,1.5.57.35,1.02,1.26,1.11,1.98.26,2.02.3,4.07.44,6.1.12,1.7.22,3.39.38,5.09.22,2.21-.29,2.86-2.55,3.04-.32,2.33-.63,4.67-.97,7.02-.21,1.43-.51,2.85-.71,4.28-.08.61.11,1.27,0,1.87-.19.97-.27,2.12-.85,2.82-2.19,2.64-4.47,5.23-6.91,7.65-2.44,2.42-5.06,4.67-7.69,6.89-8.3,7.01-17.41,12.46-28.29,14.42-1.46.26-2.95.51-4.43.52-1,0-2-.45-3.01-.65-.43-.08-.9-.06-1.34-.02-10.14,1.13-20.27,2.3-30.41,3.36-1.54.16-3.16-.02-4.68-.32-.69-.14-1.23-.98-1.85-1.49-.29-.24-.58-.64-.9-.67-5.54-.54-10.83-2.16-16.17-3.58-6-1.59-12.05-2.96-18.01-4.66-5.46-1.55-10.63-3.88-15.47-6.87-1.3-.8-2.51-1.75-3.69-2.72-1.08-.9-1.65-2.06-1.13-3.58-1-.59-1.78-1.49-3.2-1.19-.52.11-1.35-.47-1.79-.96-1.5-1.66-2.91-3.41-4.32-5.16-.22-.28-.34-.69-.38-1.06-.22-1.79-.48-3.5-1.29-5.22-.77-1.62-.83-3.63-.97-5.49-.35-4.66-.53-9.34-.86-14-.16-2.29-.52-4.56-.78-6.84-.01-.13,0-.29-.08-.37-1.6-1.6-.54-2.93.43-4.27.65-.89,1.53-1.63.96-3.02-.18-.45.25-1.39.69-1.82,3.11-3.05,4.89-7.04,7.48-10.45,1.15-1.51,2-3.44,4.26-3.75.15-.02.33-.47.35-.73.2-2.28.42-4.56.51-6.84.09-2.12.08-4.25.03-6.38-.1-4.07-.32-8.15-.37-12.22-.05-4.63.01-9.26.1-13.89.02-1.17.19-2.38,1.28-3.2.23-.18.22-.69.29-1.06,1.57-8.63.76-17.29.39-25.96-.16-3.82-.09-7.66.12-11.47.24-4.35.77-8.69,1.11-13.04.03-.34-.34-.8-.64-1.07-1.1-.99-2.24-1.91-3.57-3.04ZM355.05,343.01c.25.04.41.08.57.09,5.02.07,10.04.14,15.06.18.36,0,.73-.15,1.07-.3,1.13-.49,2.19-1.16,3.36-1.49,3.31-.94,6.67-1.72,9.99-2.61.63-.17,1.4-.38,1.79-.84,3.25-3.87,6.75-7.58,9.56-11.76,6.57-9.74,11.31-20.45,15.84-31.24,1.32-3.13,2.59-6.29,3.75-9.49,3.11-8.58,5.28-17.42,6.88-26.39,1.23-6.9,2.12-13.87,3.4-20.76,1.17-6.31,1.15-12.7,1.62-19.05.22-2.91.26-5.89-.16-8.77-.79-5.46-2.14-10.85-2.93-16.31-.79-5.46-2.05-10.76-3.84-15.96-.6-1.77-1.05-3.59-1.43-5.42-.09-.43.36-.98.57-1.47.4.3.83.58,1.19.92.17.16.21.46.29.7,1.25,3.71,2.57,7.39,3.73,11.13.59,1.9.94,3.88,1.29,5.84.87,4.85,1.54,9.75,2.57,14.56,1.02,4.81,1.67,9.59,1.26,14.54-.38,4.57-.26,9.17-.37,13.76-.03,1.36,0,2.73-.19,4.08-1.01,7.33-1.89,14.68-3.16,21.96-2.16,12.43-5.48,24.54-10.43,36.2-5.08,11.95-10.41,23.76-17.58,34.65-.1.15-.16.33-.36.74,4.05-3.24,7.84-6.34,11.7-9.32,2.06-1.59,3.77-3.4,4.88-5.78.41-.88.95-1.73,1.57-2.47.37-.45,1.02-.67,1.55-.98.44-.26,1.04-.4,1.3-.77,2.11-3.03,4.13-6.13,6.24-9.16,1.56-2.24,3.37-4.33,4.79-6.66,1.65-2.72,2.81-5.75,4.52-8.42,3.39-5.29,5.93-10.99,8.54-16.67.68-1.47,1.05-2.94,1.21-4.59.84-8.59,1.73-17.18,2.92-25.73,1.06-7.62,2.54-15.17,3.79-22.76,1-6.05,1.7-12.1.9-18.27-.84-6.44-.68-13-2.38-19.34-.78-2.91-1.45-5.87-1.99-8.83-1.66-9.1-3.94-17.99-7.73-26.5-5.65-12.69-12.34-24.83-18.89-37.04-1.26-2.35-2.85-4.53-4.42-6.69-3.54-4.89-7.13-9.75-10.78-14.56-1.01-1.34-2.16-2.64-3.48-3.68-2.97-2.34-6.08-4.51-9.16-6.71-.61-.44-1.3-.82-2.01-1.05-13.04-4.16-25.3-9.98-36.89-17.24-.84-.53-1.81-.92-2.76-1.19-3.44-.97-6.91-1.81-10.34-2.8-4.12-1.2-7.95-2.99-11.26-5.8-.33-.28-.81-.44-1.24-.56-2.21-.63-4.42-1.24-6.63-1.84-.36-.1-.75-.27-1.1-.23-3.59.45-7-.38-10.1-2.01-2.48-1.3-5.08-2.12-7.71-2.94-1.78-.56-3.57-1.11-5.36-1.68-1.18-.38-2.33-1.04-3.52.07-.3.28-.88.34-1.33.36-1.99.13-3.99.31-5.98.29-7.88-.09-15.72-.47-23.61.78-6.99,1.11-14.15,1.2-21.21,1.9-4.39.44-8.83.83-12.98,2.51-4.97,2-9.9,4.08-14.84,6.13-7.39,3.06-14.72,6.23-21.64,10.29-3.89,2.28-7.75,4.62-11.74,6.72-6.44,3.39-12.06,7.98-17.78,12.34-9.07,6.93-17.08,15.06-24.98,23.31-7.92,8.27-14.6,17.44-19.79,27.58-3.76,7.35-6.72,15.11-9.84,22.77-1.26,3.1-1.99,6.41-2.96,9.63-.05.17,0,.36,0,.56,1.17-.38,1.75-1.14,2.17-2.21,2.5-6.33,5.1-12.61,7.6-18.94,2.05-5.18,5.17-9.77,8.06-14.47,1.69-2.74,4.21-4.77,7.06-6.33.66-.36,1.45-.77,1.88.07.21.42-.01,1.39-.38,1.74-4.04,3.77-6.97,8.35-9.61,13.12-1.64,2.97-3.17,6.02-4.52,9.12-2.63,6.04-5.07,12.17-7.68,18.22-.49,1.13-1.41,2.09-2.19,3.09-.52.66-1.3,1.14-1.69,1.86-1.96,3.57-4.21,7.05-5.66,10.83-2.22,5.78-3.99,11.74-5.72,17.7-1.47,5.05-2.67,10.19-3.85,15.32-.38,1.65-.29,3.41-.39,5.12-.09,1.63-.07,1.63,1.52,1.48,2.16-.21,4.32-.47,6.48-.58,2.76-.15,5.52-.24,8.28-.18.67.01,1.57.54,1.92,1.1.39.62.71.79,1.36.76,3.14-.13,6.29-.26,9.44-.33.6-.01,1.22.22,1.81.39.61.17,1.2.57,1.8.56,5.83-.08,11.65-.25,17.48-.34,2.37-.04,2.7.32,2.95,2.79,3.88.89,7.81,1.8,11.74,2.69,1.17.26,2.39.37,2.76,1.85.06.24.53.37.8.56,2.68,1.9,6.28,2.16,8.47,5.02,1.01,1.31,2.56,2.21,3.88,3.28.28.22.68.53.95.47,1.23-.27,2.04.36,2.54,1.27,1,1.81,2.67,2.81,4.33,3.83.29.18.86.17,1.18.01.84-.41,1.69-.64,2.35.1.59.66,1.01.43,1.64.16,2.17-.96,4.32-1.99,6.57-2.72,1.82-.59,2.58.01,3.41,1.73,1.36,2.83,2.68,5.69,4.24,8.42,2.37,4.13,5.05,8.08,7.37,12.24,3.02,5.41,5.9,10.91,8.62,16.48.59,1.21.67,3.03.21,4.29-.66,1.83-1.97,3.44-3.11,5.07-1.23,1.77-2.57,3.46-3.87,5.18-.72.95-1.45,1.89-2.17,2.83-1.12,1.44-2.23,2.89-3.36,4.33-.55.7-1.11,1.4-1.67,2.09-1.12,1.37-2.23,2.74-3.36,4.1-.43.52-.89,1.02-1.41,1.46-1.78,1.53-3.6,3.03-5.49,4.62.38.25.51.35.66.43,7.94,3.96,16.47,6.41,24.69,9.64.93.37,1.97.52,2.97.64,1.01.12,2.08-.07,3.07.15,2.06.46,4.08,1.1,6.08,1.66.15-.27.24-.37.26-.49.13-.67.26-1.34.36-2.01.57-4.17,1.86-8.1,3.86-11.82,1.24-2.32,2.25-4.76,3.5-7.08.61-1.13,1.3-2.5,2.34-3.08,4.7-2.6,9.49-4.91,15.19-4.19,7.25.91,14.5.61,21.75-.33,2.49-.33,5.09-.1,7.61.16,1.11.11,2.27.76,3.18,1.46,1.15.9,2.09,2.09,3.07,3.2.45.5.88,1.05,1.19,1.65,3.07,6.09,4.15,12.65,3.51,19.33-.37,3.88-.66,7.69-.12,11.54.05.37.22.95.45,1.01.42.12.94-.03,1.41-.13.76-.17,1.5-.55,2.25-.57.83-.02,1.68.22,2.51.43,12.47,3.14,25.17,4.57,37.98,5.23,4.84.25,9.68.53,14.52.88,1.79.13,2.16.68,2.15,2.59ZM163.19,330.23c-.4.13-.56.18-.71.22-3.13.76-6.25,1.62-9.41,2.24-2.09.41-3.1-.73-3.05-2.81.04-1.99-.02-3.98-.13-5.96-.14-2.45.85-3.54,3.29-3.65,3.29-.16,6.57-.39,9.99-.6-.18-3.45-.35-6.73-.53-10.14-.54.16-.98.29-1.42.42-7.61,2.32-15.23,4.6-23.11,5.81-.94.14-1.99-.15-2.93-.43-.77-.23-.95-.98-.34-1.5.81-.68,1.73-1.5,2.71-1.68,8.65-1.54,17.03-4.07,25.4-6.67.28-.09.54-.33.75-.55.59-.62,1.06-1.42,1.75-1.88,2.16-1.44,4.39-2.76,6.6-4.11,1.82-1.1,3.61-2.25,5.5-3.21.63-.32,1.57-.32,2.29-.15,1.08.25,1.64.03,1.62-1.1-.01-1.01-.3-2.02-.25-3.02.26-6.16.58-12.32.87-18.48.03-.52.05-1.04.08-1.74-1.09.89-1.89,1.74-2.86,2.32-3.46,2.07-6.89,4.21-10.48,6.03-7.51,3.81-15.42,6.57-23.73,8-6.41,1.1-12.89,1.8-19.29,2.93-7.86,1.39-15.74,1.31-23.66.9-1.42-.07-2.49-.8-3.42-1.77-.6-.63-.46-1.23.37-1.42,1.15-.26,2.33-.51,3.49-.52,4.89-.03,9.81.44,14.65-.03,7.9-.77,15.74-2.22,23.63-3.2,5.83-.73,11.44-2.23,16.92-4.23,6.89-2.51,13.58-5.47,19.52-9.86,2.15-1.59,4.11-3.53,4.37-6.31.17-1.92-.26-3.92-.63-5.85-.49-2.55-1.85-4.76-3.39-6.79-1.76-2.32-3.47-4.8-5.69-6.62-3.1-2.55-6.74-4.43-9.99-6.82-1.83-1.35-3.68-2.52-5.89-3.05-4.39-1.05-8.6-2.69-13.2-3.1-5.66-.5-11.27-1.65-16.89-2.57-5.12-.83-10.22-1.83-15.45-1.59-5.61.26-11.25.25-16.81.9-5.25.61-10.47,1.12-15.76,1.13-1.8,0-3.61.44-5.39.68-.27,3.38-3.29,3.21-5.38,4.31.17.03.21.06.25.05,6.39-1.1,12.8-1.72,19.27-.66.33.05.62.31.93.47-.25.29-.44.71-.76.83-.62.25-1.31.38-1.98.48-5.79.92-11.58,1.87-17.39,2.68-.9.13-1.9-.43-2.85-.67.37-.85.74-1.7,1.11-2.56.02-.06.02-.13.02-.14-2.27.27-4.61-.07-6.81.82-.94.38-1.93.66-2.91.9-.68.16-1.4.16-2.09.25-.37.05-.75.09-1.09.23-1.38.56-2.76,1.13-4.1,1.76-.52.24-1.09.58-1.39,1.04-2.38,3.55-4.49,7.25-7.27,10.58-1.71,2.05-2.69,4.9-1.85,7.95.51,1.87.32,1.92-1.57,2.03-.01.29-.04.58-.04.87.05,7.53.15,15.05.12,22.58,0,1.99.64,3.56,2.03,4.88,2.73,2.62,5.38,5.34,8.26,7.78,2.34,1.98,4.86,3.76,7.72,5.05,7.96,3.57,16.65,4.77,24.8,7.72.67.24,1.42.25,2.12.42,2.06.51,4.21.8,6.14,1.62,2.7,1.14,5.42,1.59,8.31,1.62,5.55.06,11.02.78,16.39,2.22.34.09.6.49.9.74-.27.28-.49.72-.81.81-2.42.69-4.84,1.12-7.42.81-3.67-.44-7.37-.54-11.05-.91-1.89-.19-3.79-.52-5.61-1.03-6.04-1.69-12.05-3.48-18.08-5.24-.04-.01-.08-.02-.12-.03-7.78-1.38-14.99-4.33-21.95-7.82-.98,5.89-.57,11.99-.48,18.32.96-.5,1.67-.87,2.38-1.24,1.01-.52,2.48-.79,2.91-1.62.47-.9-.06-2.31-.05-3.49,0-.8-.36-1.15-1.07-1.33-.87-.21-1.75-.38-2.59-.68-.93-.34-1-1.15-.2-1.74,2.53-1.88,6.76-.15,7.15,2.96.18,1.39.28,2.79.32,4.2.03,1.46-.27,2.84-1.73,3.58-1.97,1.01-3.93,2.02-5.96,2.9-.89.38-1.19.82-1.17,1.78.24,8.99.42,17.99.64,26.98.13,5.36.32,10.71.42,16.07.01.7-.39,1.42-.62,2.12-.16.48-.51.95-.49,1.42.14,3.23.41,6.45.52,9.68.03.79-.4,1.6-.64,2.39-.14.45-.48.89-.48,1.34,0,4.21.11,8.42.07,12.63,0,.76-.53,1.51-.76,2.28-.17.58-.42,1.22-.32,1.77.15.79.79,1.5.89,2.29.36,2.96,1.15,5.73,2.71,8.3.68,1.12,1.14,2.38,1.56,3.62.15.43.04,1.27-.25,1.45-.39.24-1.25.24-1.58-.04-1.04-.91-2.08-1.89-2.85-3.03-1.77-2.65-2.82-5.61-3.16-8.8-.11-.99-1.23-1.44-2.05-.85-.3.22-.54.54-.8.81-1.78,1.82-3.5,3.7-5.34,5.46-1.35,1.28-2.08,2.76-2.09,4.6-.02,1.96-.06,3.91-.05,5.87.03,6.82.05,13.64.15,20.46.02,1.64.32,3.26-1.95,3.63.5,2.1,1.55,3.68,3.02,4.83,1.62,1.27,3.51,2.19,5.21,3.38,6.13,4.27,12.59,7.81,19.8,9.99,2.06.62,4.2,1.5,5.3,3.69.06.13.26.21.42.27,2.12.88,4.19,1.91,6.37,2.59,7.73,2.42,15.65,3.96,23.68,5.03,1.39.19,2.94.17,3.89,1.56.08.12.39.13.59.11,3.98-.32,7.99-.47,11.94-1,8.43-1.15,16.81-2.58,25.24-3.72,3.57-.48,7.03-1.19,10.32-2.63.31-.13.7-.21.89-.45,2.23-2.73,5.38-4.27,8.1-6.35,4.08-3.12,8.06-6.39,12.12-9.62-.68-1.17-.29-2.15.43-3.09,1.83-2.39,3.7-4.77,5.48-7.2.52-.72,1.15-1.66,1.09-2.44-.61-7.42-1.36-14.82-2.09-22.23-.21-2.13-.9-4.11-2.44-5.63-1.38-1.36-3.07-2.42-4.38-3.84-1.18-1.29-2.27-1.08-3.53-.48,1.33,3.34.28,6.38-.99,9.4-.8,1.9-2.28,3.02-4.11,3.78-.24.1-.7.13-.79,0-.16-.23-.22-.63-.14-.9.37-1.17.76-2.34,1.21-3.49,1.14-2.92,2.32-5.82,3.63-9.09-2.29.39-4.43.62-6.5,1.12-2.76.66-5.52.95-8.35.65-3.45-.37-5.03-1.66-5.93-4.98-1.2-4.43-1.46-8.96-1.26-13.53.08-1.83.14-3.66.13-5.48-.12-12.54-.26-25.09-.39-37.63-.02-1.86,0-3.73,0-5.59-.17.05-.34.11-.51.16-.36-.34-1-.66-1.04-1.03-.12-1.1,1.12-3.07,1.91-3.2,2.24-.37,2.55,1.44,3.02,2.7,2.57-.89,5.1-1.62,7.51-2.64,3.91-1.65,7.75-3.46,11.58-5.29.55-.26,1.07-1,1.22-1.61.21-.84.05-1.76.05-2.83ZM166.84,308.62c0,.58,0,1.05,0,1.51.05,5.78.1,11.57.16,17.35.02,2.04,0,4.08.09,6.12.04,1,.12,1.93-.77,2.68-.23.2-.22.78-.18,1.16.72,6.12,1.51,12.23,2.17,18.36.75,6.86,1.21,13.72.56,20.63-.58,6.22-1.09,12.45-1.62,18.68-.13,1.48.07,1.54,1.54,1.85,2.02.44,4.03.97,5.96,1.67,2.35.86,4.63,1.93,6.93,2.93.3.13.57.35.85.54.79.53,1.51,1.21,2.37,1.58,1.67.73,3.4,1.36,5.14,1.9,7.91,2.47,15.84,4.88,23.76,7.35,1.12.35,2.19.87,3.27,1.36.64.29,1.21.78,1.87.95,8.97,2.32,17.96,4.57,26.93,6.89,12.72,3.3,25.54,6.13,38.49,8.38,14.8,2.56,29.61,5.01,44.66,5.31,7.3.15,14.61-.3,21.91-.5,4.52-.12,9.04-.27,13.55-.42,1.23-.04,2.46-.23,3.69-.24,9.18-.07,18.19-1.59,27.26-2.76,8.99-1.16,17.73-3.22,26.34-5.93,4.78-1.51,9.53-3.14,14.3-4.69.72-.24,1.48-.4,2.23-.5,1.23-.17,2.48-.2,3.71-.39.92-.14,1.81-.5,2.73-.64.51-.07,1.2-.07,1.55.22.63.51,1.13.35,1.75.15,2.3-.77,4.56-1.79,6.92-2.18,2.05-.34,3.4-1.32,4.62-2.9-1.01-.29-1.67-.88-1.63-1.99.11-3.57.21-7.13.38-10.7.03-.69-.1-1.08-.7-1.44-1.13-.68-2.2-1.45-3.29-2.19-.84-.57-1.7-1.29-1.31-2.37.27-.75,1.04-1.32,1.72-2.13,0-2.39-.03-5.17.01-7.94.03-1.9.22-3.8.26-5.7.11-5.66-1.02-11.32,0-16.99.03-.17.02-.34,0-.51-.12-2.23-.33-4.38.34-6.65.5-1.68,1.02-3.16,2.14-4.49.61-.73,1.32-1.59,1.44-2.46.48-3.66.77-7.36,1.07-11.04.04-.49-.18-1.08-.46-1.51-1.06-1.69-2.26-3.3-3.27-5.02-.48-.82-.91-.89-1.73-.55-2.74,1.15-5.45,2.43-8.29,3.27-4.03,1.19-8.15,2.06-12.24,3.04-8.31,1.98-16.62,3.94-24.93,5.93-.34.08-.81.38-.89.67-.3,1.11-1.06,1.46-2.07,1.55-.93.08-1.86.19-2.79.26-9.45.75-18.91,1.46-28.36,2.26-1.73.15-3.44.88-5.15.85-4.97-.09-9.95-.28-14.91-.71-11.48-.99-22.94-2.17-34.41-3.22-6.23-.58-12.4-1.45-18.49-2.93-3.08-.75-6.27-1.06-9.4-1.61-.74-.13-1.44-.44-2.16-.62-1.25-.31-2.51-.68-3.78-.84-.34-.04-.73.69-1.17.92-.47.24-1.03.39-1.55.4-.67.01-1.35-.15-2.02-.24-6.9-.92-13.7-2.39-20.7-2.88-12.19-.85-24.2-3.17-36.16-5.57-8.46-1.7-16.86-3.68-25.27-5.61-2.02-.46-2.21-.88-2.26-2.6-4.79-2.41-9.53-4.61-14.09-7.15-3.37-1.87-6.54-4.12-9.72-6.31-1.8-1.24-3.39-2.86-5.86-1.77-.26.11-.58.11-1.01.18ZM290.03,334.05c-.08-.89-.19-1.64-.2-2.38-.02-2.46-.32-4.96.05-7.36.98-6.44.38-12.67-2.29-18.58-1.77-3.91-4.62-6.67-9.48-6.01-.38.05-.76.05-1.14.1-7.44.94-14.91,1.67-22.37.57-4.76-.71-8.85.86-12.97,2.76-1.16.54-1.82,1.4-2.32,2.55-.91,2.1-1.84,4.22-2.99,6.19-2.41,4.13-3.6,8.6-4.18,13.28-.04.3.07.89.17.9,1.26.21,2.53.41,3.81.44.8.02,1.65-.48,2.41-.35,3.81.67,7.58,1.57,11.39,2.2,7.07,1.18,14.15,2.28,21.24,3.33,3.87.57,7.76.96,11.65,1.43,2.35.29,4.7.6,7.24.92ZM143.25,346.38c0,5.14-.02,10.45,0,15.75.05,10.45.17,20.9.18,31.36,0,4.14.14,8.24,1.3,12.24.29.99.87,1.59,1.86,1.62,1.9.05,3.83.18,5.71-.03,3.45-.38,6.88-.99,10.32-1.49.78-.11,1.21-.33,1.11-1.3-.22-2.05-.38-4.11-.42-6.17-.08-4.39.96-8.7.42-13.18-.46-3.75.01-7.63.18-11.44.05-1.05-.21-2.41,1.33-2.85.08-.02.16-.21.16-.32-.03-1.95-.06-3.91-.11-5.86,0-.15-.16-.28-.23-.43-.32-.7-.84-1.39-.92-2.12-.18-1.68-.27-3.39-.19-5.08.25-5.2.01-10.37-.9-15.5-.16-.9-.34-1.79-.55-2.89-6.16,3.41-12.67,5.41-19.25,7.68ZM185.45,246.33c.25.6.41.98.58,1.37,1.53,3.51,3.02,7.08,3.4,10.89.25,2.51.28,4.99,1.27,7.37.39.95-.07,1.82-.97,2.4-.22.14-.51.35-.56.56-.26,1.28-.53,2.57-.65,3.86-.37,4.06-.68,8.13-.99,12.2-.02.33.08.85.3,1,1.06.69,1.04,1.66.9,2.71-.36,2.82-.76,5.64-1.04,8.48-.06.63.39,1.3.49,1.97.1.71.13,1.46.04,2.17-.05.42-.38.8-.64,1.29,2.47.37,4.8.72,7.17,1.07.55-.69,1.17-1.5,1.82-2.28,2.68-3.23,5.48-6.37,8.03-9.69,2.26-2.95,4.21-6.13,6.41-9.14.79-1.08.78-1.98.13-3.02-.25-.4-.48-.81-.65-1.24-2.13-5.41-5.09-10.37-8.16-15.28-3.81-6.09-7.75-12.11-10.64-18.73-.1-.22-.27-.41-.51-.78-1.89.92-3.75,1.83-5.73,2.8ZM154.06,329.04c.91-.1,1.74-.18,2.58-.3,1.72-.24,3.45-.43,5.15-.77.5-.1,1.25-.62,1.31-1.03.17-1.24.06-2.52.06-3.68-3.19.33-6.25.65-9.34.97.08,1.53.16,3.08.25,4.81ZM190.94,306.92c-1.84-.27-3.62-.53-5.41-.78-.15-.02-.36.03-.48.13-1.05.87-2.09,1.75-3.17,2.66,4.69,3.16,7.16.99,9.05-2ZM322.86,38.34c-.05-.18-.11-.36-.16-.54-.63.17-1.25.34-1.88.5-.61.15-1.21.38-1.82.4-.87.04-1.75-.08-2.62-.13-.03.08-.05.16-.08.24,1.17.51,2.33,1.03,3.64,1.6.26-1.8,1.57-1.98,2.93-2.08ZM392.71,337.04c2.08.44,2.73-1.07,3.28-3.61-1.17,1.29-2.21,2.42-3.28,3.61ZM438.89,132.22c-.14.07-.28.13-.42.2.45.94.9,1.89,1.35,2.83.13-.06.27-.12.4-.19-.44-.95-.88-1.89-1.32-2.84Z"/><path class="cls-1" d="M311.87,174.5c-2.49.1-3.16-1-2.32-3.24,1.19-3.17,3.12-5.67,5.83-7.71,1.4-1.06,2.48-2.54,3.7-3.84,1.71-1.82,3.43-3.63,5.12-5.47,1.48-1.62,3.13-3.14,4.35-4.94,1.79-2.65,3.89-4.89,6.44-6.82,1.82-1.37,3.49-2.97,5.05-4.63,1.83-1.95,3.82-3.59,6.25-4.75,1.64-.79,3.17-1.81,4.8-2.63,1.62-.82,3.28-1.59,4.98-2.24,1.46-.56,3.02-.87,4.51-1.38,2.82-.96,5.2-.36,7.41,1.63,3.68,3.32,6.5,7.32,9.04,11.49,4.33,7.12,8.52,14.32,12.64,21.57,1.74,3.06,3.33,6.23,4.68,9.49,1.13,2.73,2.24,5.6,2.59,8.5.43,3.54-.36,7.04-2.18,10.29-1.54,2.74-3.69,4.49-6.35,6.13-8.48,5.22-17.66,8.92-26.66,13.04-4.57,2.09-9.55,2.74-14.39,3.84-2.73.62-5.51,1.09-8.29,1.44-3.27.41-6.27-.25-8.15-3.28-5.07-8.17-11.57-15.36-16.1-23.88-.76-1.42-1.47-2.88-2.09-4.37-.86-2.07-1.3-4.22-.87-6.48.1-.53.01-1.09.01-1.75ZM336.39,146.36l-.46-.21c-1.28,1.55-2.7,3.01-3.81,4.68-1.64,2.47-3.44,4.73-5.81,6.54-.94.72-1.82,1.54-2.6,2.43-2.22,2.54-4.37,5.14-6.54,7.71.11.1.51.38.76.75.55.79.52,1.61-.44,2.02-1.42.6-1.76,1.73-1.79,3.08-.02.89.1,1.81-.08,2.67-.55,2.68.22,5.09,1.48,7.34,1.84,3.3,3.73,6.58,5.83,9.73,3.18,4.77,6.68,9.33,9.79,14.15,1.83,2.84,4.06,3.74,7.3,3.17,9.7-1.71,19.28-3.72,28.09-8.4.8-.42,1.05-1.02.98-1.73-.16-1.81-.42-3.62-.7-5.42-.37-2.43-.78-4.86-1.22-7.28-.26-1.42-.52-2.84-.91-4.23-2.01-7.07-5.85-13.28-9.33-19.65-.69-1.27-1.82-2.35-2.89-3.37-1.66-1.58-3.41-3.08-5.2-4.51-3.26-2.62-6.24-5.68-10.49-6.81-1.24-.33-2-1.26-1.97-2.68ZM338.27,145.11c1.08.21,2.29.27,3.36.69,6.96,2.76,12.45,7.55,16.92,13.37,3.78,4.91,6.98,10.26,9.41,16.03.8,1.9,2.05,3.61,3.14,5.38.19.3.69.68.97.62,1.59-.35,3.2-.71,4.73-1.27,1.66-.61,3.18-1.68,4.88-2.12,3.32-.88,5.04-3.02,5.8-6.22.25-1.04.76-2.01,1.16-3.02.17.02.33.04.5.06-.85-1.66-1.62-3.36-2.55-4.97-4.25-7.32-8.45-14.67-12.85-21.89-2.32-3.8-4.88-7.48-8.25-10.5-1.18-1.06-2.36-1.38-3.84-.82-.99.38-2.01.72-3.04.97-5.11,1.24-9.16,4.56-13.7,6.93-.44.23-.77.67-1.12,1.03-1.82,1.89-3.63,3.79-5.5,5.75ZM371.03,188.73c.66,3.88,1.27,7.46,1.89,11.13.5-.21.82-.32,1.12-.48,5.04-2.73,10.07-5.46,15.09-8.22.39-.21.71-.61.96-.98,1.71-2.57,2.98-5.29,3.19-8.47.09-1.47-.24-2.7-.77-3.77-1.03.7-1.99,1.35-2.95,2.01-.21.14-.44.28-.6.47-2.46,2.99-5.78,4.68-9.26,6.14-1.21.51-2.47.98-3.56,1.7-1.58,1.05-3.1,1.79-5.12.48Z"/><path class="cls-1" d="M215.93,227.34c1.46-13.02,6.54-24.1,17.78-31.85,4.51-3.11,9.3-5.66,14.39-7.61,1.93-.74,3.98-1.2,6.01-1.62,3.25-.66,6.5-1.35,9.79-1.73,5.56-.65,11.01,0,16.26,2.04,1.11.43,2.22.86,3.3,1.36,1.69.79,2.87,1.93,2.58,4.03-.03.23.3.55.52.76,2.44,2.37,4.89,4.72,7.32,7.1.42.41.83.88,1.1,1.4,1.89,3.56,3.75,7.13,5.6,10.7.51.98.85,2.05,1.43,2.99,2.17,3.53,2.67,7.38,2.39,11.42-.07.93-.16,1.87-.11,2.8.29,5.74-1.43,11.05-3.94,16.04-3.5,6.96-8.64,12.72-15.16,16.93-6.14,3.97-13.08,5.82-20.5,5.44-.68-.04-1.37-.08-2.04.03-6.09,1.05-12.18.68-18.1-.79-5.25-1.3-10.19-3.64-14.31-7.22-3.09-2.68-5.59-5.94-7.48-9.61-.92-1.78-1.88-3.52-2.83-5.29-2.87-5.36-3.41-11.24-3.99-17.31ZM251.32,190.7c-.5.16-.91.24-1.28.41-3.12,1.44-6.35,2.7-9.34,4.4-7.13,4.05-13.09,9.18-16.8,16.87-3.96,8.22-5.03,16.46-2.71,25.24,1,3.77,3.09,6.98,4.79,10.39,1.67,3.36,3.97,6.29,6.74,8.74,3.52,3.1,7.82,5.07,12.27,6.26,5.6,1.5,11.4,1.83,17.2.83.79-.13,1.61-.14,2.41-.09,6.68.42,12.96-1.2,18.45-4.79,6.57-4.3,11.58-10.22,14.89-17.44.16-.35.26-.74.4-1.13-1.61.78-3.04,1.62-4.58,2.2-4.56,1.74-9.3,2.64-14.16,3.07-3.35.29-6.5-.17-9.59-1.48-2.22-.94-4.53-1.68-6.78-2.57-4.97-1.97-9.39-4.81-12.83-8.93-3.77-4.5-6.19-9.62-7.27-15.51-1.34-7.33-.43-14.01,3.96-20.13,1.45-2.02,2.75-4.15,4.2-6.34ZM300.44,227.68c.07,0,.14,0,.21,0,0-1.61.15-3.25-.04-4.84-.18-1.54-.48-3.14-1.13-4.53-2.09-4.45-4.3-8.85-6.61-13.2-.76-1.44-1.77-2.83-2.96-3.94-3.16-2.95-6.49-5.72-9.72-8.6-.41-.37-.83-.95-.87-1.45-.05-.74-.35-1.06-.97-1.27-.88-.3-1.74-.75-2.65-.88-2.73-.41-5.48-.92-8.22-.98-3.15-.08-6.27.35-8.91,2.41-1.7,1.33-3.77,2.34-5.08,3.97-2.06,2.57-3.7,5.49-5.36,8.36-.68,1.19-1.13,2.59-1.35,3.95-1.29,7.88.38,15.13,5.04,21.61,1.23,1.71,2.6,3.42,4.24,4.7,3.42,2.66,6.97,5.18,11.4,6,.7.13,1.38.47,2,.82,3.81,2.13,7.82,2.5,12.1,1.9,6.01-.85,11.79-2.14,16.66-6.04.3-.24.62-.47.97-.61.94-.37,1.24-1.1,1.25-2.01.01-1.79,0-3.57,0-5.36Z"/><path class="cls-1" d="M213.29,166.53c-.09,3.26-1.13,6.28-2.5,9.16-2.75,5.8-5.54,11.58-8.52,17.26-2.31,4.4-4.88,8.67-7.46,12.91-1.03,1.7-2.31,3.27-3.63,4.75-1.47,1.65-3.61,1.85-5.63,1.9-1.37.04-2.75-.45-4.13-.67-.45-.07-.92-.05-1.38-.07-.68-.03-1.37.04-2.03-.09-6.17-1.32-12.13-3.32-17.91-5.83-.93-.4-1.79-.98-2.64-1.54-2.81-1.84-5.6-3.7-8.4-5.55-3.94-2.6-7.95-5.09-11.8-7.81-2.11-1.49-3.99-3.3-5.89-5.06-1.32-1.22-1.83-2.81-1.65-4.63.24-2.4.32-4.83.65-7.22.95-6.73,4.37-12.41,8.1-17.85,4.59-6.7,9.42-13.24,14.31-19.72,1.99-2.63,4.33-5.02,6.66-7.37,2.58-2.59,5.97-3.89,9.36-5.02,1.75-.58,3.39-.36,4.52,1.53.46.77,1.48,1.25,2.29,1.78,3.49,2.28,7.01,4.51,10.49,6.79.92.6,1.83,1.27,2.62,2.03,4.78,4.64,9.94,8.87,14.33,13.95,3.2,3.71,6.51,7.29,8.75,11.69.74,1.44,1.22,3.01,1.82,4.53-.11.05-.23.09-.34.14ZM196.49,148.59c-.42.33-.74.59-1.08.84-4.47,3.36-8.61,7.06-12.17,11.39-6.35,7.74-12.16,15.84-17,24.64-2.7,4.91-5.46,9.79-7.52,15.32,1.33.7,2.64,1.47,4.01,2.09,1.19.55,2.49.87,3.69,1.42,5.59,2.57,11.57,3.45,17.58,4.26.46.06.95.24,1.38.15,1.08-.22,2.41-.26,3.15-.92,1.28-1.14,2.32-2.61,3.21-4.09,2.51-4.19,5.03-8.39,7.3-12.71,2.47-4.7,4.71-9.52,6.97-14.32,1.12-2.38,2.24-4.78,3.01-7.27.43-1.38.69-3.25.09-4.44-1.46-2.9-3.31-5.64-5.27-8.24-1.71-2.26-3.79-4.25-5.71-6.35-.54-.59-1.09-1.17-1.66-1.77ZM155.6,198.34c3.84-9.44,9.24-17.84,14.42-26.46-.61-.5-1.18-1-1.78-1.46-3.53-2.68-6.91-5.48-9.43-9.23-1.56-2.31-2.39-4.91-2.48-7.52-.08-2.29.6-4.74,1.5-6.89,1.4-3.36,3.21-6.56,4.95-9.77,1.52-2.81,3.17-5.54,4.77-8.3-.06-.1-.13-.21-.19-.31-1.8,1.16-3.81,2.09-5.34,3.52-2.35,2.2-4.56,4.6-6.49,7.17-4.76,6.32-9.46,12.68-13.92,19.21-3.4,4.98-6.63,10.14-7.49,16.31-.31,2.22-.49,4.47-.55,6.71-.02.75.3,1.76.83,2.22,2.23,1.95,4.53,3.84,6.94,5.57,2.62,1.89,5.37,3.59,8.08,5.34,2.02,1.31,4.08,2.56,6.2,3.88ZM171.83,169.24c3.38-4.24,6.61-8.46,10.02-12.52,3.45-4.11,7.61-7.49,11.88-10.75-1.69-1.56-3.28-3.15-4.99-4.58-2.34-1.95-4.72-3.88-7.2-5.63-3.02-2.13-6.18-4.04-9.25-6.1-1.27-.85-1.39-.88-2.1.45-2.3,4.31-4.72,8.56-6.84,12.96-1.41,2.93-2.38,6.07-3.57,9.11-.97,2.5.02,4.74,1.22,6.74,2.64,4.39,6.8,7.28,10.84,10.33Z"/><path class="cls-1" d="M271,161.71c-4.49-.15-9.01-.07-13.47-.54-3.47-.36-7.03-.55-10.33-2.02-.8-.36-1.72-.44-2.59-.63-2.16-.46-4.35-.78-6.46-1.4-2.03-.6-2.75-2.53-3.53-4.25-.8-1.77-1.5-3.59-2.21-5.4-.45-1.14-.79-2.33-1.26-3.46-1.13-2.7-1.73-5.51-2.37-8.36-.63-2.81-1.39-5.58-1.58-8.47-.01-.17-.02-.35-.07-.5-1.4-4.2-2.07-8.57-3.03-12.87-.78-3.48-.77-6.83-.21-10.23.92-5.59,1.91-11.21,5.99-15.58.9-.97,2-1.97,3.21-2.4,5.5-1.94,11.1-3.75,16.98-3.75,4.83,0,9.68.44,14.49.93,7.78.79,15.55,1.68,23.29,2.74,2.83.39,5.55,1.48,8.37,2.04,2.12.42,2.39,1.86,3.05,3.6,1.71,4.54,1.63,9.17,1.51,13.84-.03,1.31-.17,2.64-.43,3.92-.82,4-1.35,8.1-2.68,11.93-1.6,4.63-2.69,9.35-3.85,14.08-.18.74-.5,1.48-.52,2.23-.08,2.87-.99,5.48-2.08,8.09-.84,2.03-1.43,4.18-2.02,6.31-1.76,6.32-5.89,9.65-12.44,9.91-1.91.08-3.82.01-5.74.01,0,.08,0,.16,0,.23ZM291.65,127.13c-4.13-.85-7.94-1.72-11.78-2.42-6.04-1.09-12.11-1.8-18.26-1.17-4.95.51-9.94.71-14.83,1.5-4.98.81-9.87,2.18-14.8,3.28-.68.15-.98.49-.81,1.16.49,1.88,1.22,3.74,1.45,5.65.29,2.43.82,4.71,1.87,6.92.74,1.56,1.21,3.25,1.83,4.87.58,1.54,1.12,3.11,1.83,4.59.38.8.94,1.82,1.66,2.08,1.74.62,3.63.82,5.45,1.25,1.4.33,2.78.75,4.16,1.15.53.15,1.04.43,1.57.48,3.58.33,7.1,1.41,10.76.97.33-.04.68.02,1.02.07,5.09.71,10.17.46,15.26.02,3.65-.32,5.91-2.37,7.11-5.7,1.31-3.64,2.55-7.29,3.77-10.96.28-.84.34-1.74.52-2.62.33-1.66.67-3.32,1-4.98.41-2.03.82-4.06,1.24-6.15ZM292.9,123.69c.43-1.44.98-2.96,1.34-4.52.8-3.43,1.62-6.87,2.24-10.33.8-4.41.96-8.85.09-13.29-.25-1.3-.98-2.34-1.59-3.47-.63-1.15-1.33-1.69-2.43-1.9-2.17-.41-4.34-.81-6.52-1.08-7.08-.87-14.17-1.7-21.26-2.5-2.72-.31-5.44-.5-7.92-.73,0,1.3.17,2.36-.03,3.33-.8,3.83-1.15,7.67-.27,11.51.64,2.77,1.42,5.51,2.22,8.24,1.04,3.55,2.16,7.08,2.78,10.75,10.54-.83,20.8,1.52,31.35,3.98ZM258.18,120.12c-.23-.66-.41-1.13-.55-1.61-1.1-3.66-2.34-7.29-3.25-11-.86-3.5-1.74-7.05-1.97-10.63-.25-3.81-.42-7.85,3.08-11.09-2.17-.09-4.12-.33-6.05-.22-5.09.31-9.94,1.79-14.75,3.38-.72.24-1.37.83-1.92,1.39-2.57,2.59-3.55,5.95-4.31,9.37-1.02,4.56-2.1,9.13-.47,13.82.34.98.25,2.11.48,3.14.6,2.71,1.27,5.4,1.94,8.23,9.26-2.8,18.38-4.31,27.79-4.79Z"/><path class="cls-1" d="M395.58,276.74c-.78,3.07-1.48,6.17-2.36,9.21-.5,1.71-1.33,3.31-1.95,4.99-.9,2.47-2.14,4.69-4.11,6.51-.75.69-1.16,1.75-1.75,2.63-.93,1.41-1.88,2.8-2.82,4.2-.85,1.26-1.72,2.5-2.53,3.79-1.1,1.76-2.11,3.57-3.2,5.34-.42.68-1.02,1.26-1.43,1.95-2.87,4.83-7.18,8.11-11.78,11.08-3.03,1.95-6.46,2.9-9.98,3.25-2.67.26-5.29-.44-7.36-2.29-9.53-8.54-19.21-16.91-27.05-27.16-2.54-3.33-5.72-6.16-8.54-9.29-1.24-1.38-2.44-2.84-3.4-4.42-1.34-2.2-1.18-4.46.02-6.79.84-1.63,1.43-3.45,1.8-5.25.54-2.62,1.31-5.02,3.6-6.65.19-.14.36-.37.43-.6.56-1.8,1.86-2.97,3.22-4.17,1.02-.9,1.76-2.12,2.65-3.18.89-1.05,1.79-2.12,2.76-3.1,1.24-1.26,2.58-2.42,3.85-3.66,1.69-1.66,3.35-3.35,5.03-5.02.66-.66,1.41-1.24,1.99-1.96,1-1.21,2.24-1.9,3.76-2.2,3.32-.65,6.61-1.07,9.87.39.95.42,2.09.39,3.1.68,1.91.55,3.81,1.16,5.69,1.8,1.08.37,2.09,1.01,3.19,1.29,6.09,1.54,11.25,4.94,16.45,8.24,3.66,2.32,7.33,4.63,10.98,6.97,2.85,1.83,5.31,4.09,7.41,6.76,1.54,1.95,2.49,4.05,2.05,6.62.14.03.27.05.41.08ZM370.04,257.67c-1.81-1-3.62-1.99-5.43-2.99-4.71-2.6-9.98-3.8-14.91-5.83-.15-.06-.33-.06-.5-.1-2.15-.52-4.28-1.08-6.44-1.53-.8-.17-1.66-.09-2.5-.08-2.75.02-4.98,1.08-6.61,3.34-.1.13-.27.21-.39.33-1.67,1.68-3.31,3.38-5.01,5.03-1.33,1.3-2.74,2.52-4.06,3.82-.74.73-1.39,1.55-2.05,2.35-.96,1.17-1.7,2.63-2.88,3.49-1.87,1.38-2.87,3.04-3.06,5.3-.16,1.88-1.2,3.21-2.74,4.23-.34.22-.6.65-.75,1.03-.71,1.81-1.27,3.68-2.09,5.44-.54,1.16-.73,2.22-.02,3.25.86,1.25,1.8,2.47,2.82,3.6,2.91,3.21,6.17,6.15,8.79,9.58,7.66,10.01,17.14,18.16,26.43,26.53,1.4,1.26,3.21,1.74,5,1.46,3.23-.52,6.31-1.49,9.13-3.36,4.1-2.73,7.57-6.01,10.2-10.18.52-.82,1.25-1.51,1.76-2.34.83-1.36,1.55-2.79,2.39-4.3-.66-.2-1.06-.3-1.45-.45-3.1-1.17-6.29-2.15-9.26-3.58-3.64-1.76-7.35-3.57-9.49-7.55-2.28,3.45-4.56,6.74-6.67,10.12-2.41,3.87-5.91,6.66-9.24,9.61-1.16,1.02-2.56.83-3.29-.15-.66-.89-.2-1.67,1.03-2.85,2.7-2.58,5.62-5.03,7.8-8,4.15-5.65,7.95-11.56,11.69-17.5,4.13-6.54,8.19-13.17,8.95-21.16.13-1.31.31-2.61.47-3.92.17-1.39.7-2.45,2.39-2.64ZM379.86,301.98c.72-1.13,1.34-2.17,2.02-3.18,1.06-1.57,2.16-3.12,3.23-4.68.69-1.01,1.59-1.94,2.01-3.05,1.46-3.93,2.89-7.89,4.06-11.92.78-2.68.68-5.43-1.63-7.55-1.84-1.69-3.6-3.52-5.63-4.95-3.23-2.27-6.65-4.27-9.99-6.38-.83-.53-1.65-1.06-2.55-1.64.05.63.16,1.1.11,1.54-.28,2.23-.42,4.5-.95,6.67-.79,3.2-1.44,6.55-2.91,9.45-2.57,5.06-5.72,9.83-8.63,14.72-.22.37-.44.74-.52.88.82.46,1.56.74,2.14,1.21.91.74,1.64,1.73,2.59,2.41,3.78,2.69,8.01,4.45,12.41,5.84.27.09.67.2.84.07,1.17-.88,2.15-.38,3.4.54Z"/><path class="cls-1" d="M240.59,55.01c8.01.17,15.86,1.35,23.63,3.13,1.81.41,3.56,1.14,5.28,1.87.45.19.69.89,1.03,1.36-.53.23-1.09.72-1.58.66-5.4-.66-10.8-1.32-16.17-2.16-6.77-1.05-13.54-1.01-20.35-.57-14.62.95-28.52,4.85-42.14,9.97-1.7.64-3.5,1.03-5.28,1.42-.43.1-.96-.26-1.45-.41.18-.51.2-1.24.56-1.5,1.36-1,2.73-2.1,4.27-2.72,11.47-4.67,23.36-7.9,35.59-9.72,5.49-.82,11.09-.91,16.64-1.34Z"/><path class="cls-1" d="M280.8,62.48c10.01.38,19.72,2.44,29.3,5.24,10.47,3.06,20.53,7.22,30.48,11.64,2.52,1.12,4.91,2.54,7.4,3.74,1.64.79,3.34,1.47,5.03,2.13,1.02.4,1.58,1.25,1.34,2.28-.24,1.02-1.16,1.7-2.22,1.38-1.45-.44-2.9-.94-4.24-1.63-19.36-9.96-39.44-17.77-61.18-20.73-3.54-.48-7.04-1.21-10.55-1.83-.73-.13-1.55-.25-1.46-1.24.08-.99.92-.98,1.65-.98,1.49-.01,2.98,0,4.46,0Z"/><path class="cls-1" d="M419.34,167.31c-.14.15-.3.49-.55.57-.19.06-.51-.18-.71-.35-.15-.13-.18-.38-.28-.57-4.24-8.8-8.4-17.64-12.77-26.38-2.15-4.28-4.94-8.19-8.11-11.81-1.34-1.52-2.62-3.17-3.58-4.94-2.38-4.38-5.68-8.03-8.81-11.83-1.08-1.31-2.22-2.57-3.27-3.91-.23-.3-.2-.8-.28-1.21.39.02.83-.07,1.16.08,3.31,1.56,6.19,3.63,8.45,6.59,2.14,2.8,4.33,5.54,6.11,8.61,1.4,2.4,3.17,4.63,5.03,6.72,2.44,2.74,4.13,5.95,5.71,9.16,4.4,8.91,8.87,17.81,11.45,27.48.14.53.28,1.07.46,1.79Z"/><path class="cls-1" d="M179.72,78.14c0,.92-1.16,2.07-2.15,2.22-.6.1-1.27.2-1.76.52-2.56,1.67-5.28,3.18-7.57,5.17-7.6,6.61-15.08,13.37-22.53,20.15-2.32,2.11-4.37,4.52-6.6,6.74-.84.83-1.79,1.59-2.79,2.21-.42.26-1.12.07-1.69.09.04-.54-.11-1.21.15-1.59,2.75-4,5.67-7.88,9.3-11.13,7.09-6.36,14.1-12.82,21.35-18.99,2.95-2.51,6.43-4.42,9.72-6.52.72-.46,1.66-.69,2.52-.8,1.17-.15,2.05.77,2.05,1.93Z"/><path class="cls-1" d="M436.18,230.52c.25,1.93.53,3.86.75,5.8.8,6.9-.24,13.67-1.68,20.36-.94,4.35-2.3,8.61-3.52,12.9-.25.86-.46,1.82-1.6,2.12-.26.07-.45.68-.54,1.07-.97,4.13-1.91,8.28-2.88,12.41-.28,1.2-.63,2.39-1.03,3.55-.21.61-.48,1.51-1.35,1.1-.35-.16-.58-1.1-.48-1.6.52-2.49,1.17-4.96,1.77-7.44,1.57-6.48,3.26-12.94,4.69-19.45,2.14-9.81,3.1-19.81,4.11-29.78.09-.84.19-1.7.46-2.5.13-.39.64-.66.97-.98.21.38.51.73.62,1.14.11.4.02.84.02,1.27-.1.01-.2.03-.3.04Z"/><path class="cls-1" d="M439.55,206.57c-.05.93-.08,1.87-.18,2.8-.03.28-.31.54-.48.81-.25-.19-.63-.33-.72-.58-.95-2.62-2.15-5.2-2.73-7.91-1.64-7.68-2.65-15.51-5.63-22.87-1.45-3.58-3-7.13-4.41-10.73-.51-1.29-.83-2.68-1.06-4.06-.14-.86-.02-1.78.13-2.65.05-.31.5-.7.83-.78.25-.06.6.33.89.54.09.07.11.23.17.34,6,12.47,10.92,25.28,12.65,39.13.25,1.97.51,3.95.77,5.92l-.22.03Z"/><path class="cls-1" d="M276.43,52.21c2.7.5,5.22.75,7.61,1.46,5.58,1.64,11.09,3.53,16.65,5.27,5.6,1.75,11.21,3.45,16.82,5.13,7.2,2.15,14.22,4.67,20.4,9.11.45.32.96.58,1.34.97.25.25.3.69.44,1.05-.37.06-.81.28-1.11.16-2.06-.8-4.08-1.71-6.14-2.51-4.32-1.67-8.6-3.44-12.99-4.9-5.56-1.85-11.25-3.33-16.81-5.15-2.86-.94-5.55-2.37-8.36-3.44-5.2-1.98-10.33-4.17-15.83-5.25-.71-.14-1.41-.34-2.07-.63-.25-.11-.48-.55-.49-.85,0-.16.45-.35.56-.42Z"/><path class="cls-1" d="M354.96,80.61c1.15.42,2.17.71,3.14,1.15,6.52,2.97,12.59,6.59,18.02,11.38,4.89,4.32,9.39,8.99,13.79,13.76,2.01,2.18,3.7,4.64,5.48,7.02.23.31.11.88.16,1.33-.44-.13-1.01-.13-1.31-.42-4.5-4.26-8.98-8.55-13.45-12.85-6.27-6.05-12.61-12.03-19.97-16.76-1.63-1.05-3.46-1.81-5.2-2.7-.34-.17-.74-.28-1.01-.53-.2-.19-.36-.6-.3-.85.06-.24.44-.39.65-.55Z"/><path class="cls-1" d="M354.76,90.71c6.11.03,11.04,2.75,15.45,6.66.69.61.5,1.55-.44,1.68-.75.1-1.63-.03-2.32-.36-4.42-2.07-8.8-4.21-13.17-6.37-.41-.21-.66-.75-.98-1.14l1.36-.79.1.32Z"/><path class="cls-1" d="M422.11,292.15c1.09.2,1.32.65,1.2,1.43-.76,5.27-3.33,9.78-6,14.24-.41.69-.89,1.36-1.44,1.94-.32.35-.84.51-1.28.75.01-.5.03-1.01.04-1.51,0-.04.03-.08.05-.12,2.12-5.11,4.22-10.23,6.37-15.33.24-.56.75-1.01,1.05-1.4Z"/><path class="cls-1" d="M263.74,52.28c-.51-.03-1.05.05-1.52-.1-7.52-2.29-15.12-1.75-22.76-.82-1.75.21-3.55.11-5.32.01-.38-.02-.74-.62-1.11-.95.43-.14.85-.38,1.28-.41,3-.22,6.01-.43,9.02-.59,5.68-.31,11.39-.88,16.96.9.89.29,1.78.59,2.64.93.34.14.62.42.93.63l-.13.39Z"/><path class="cls-1" d="M418.63,149.81c-.18.2-.36.56-.54.56-.29,0-.7-.17-.83-.4-.84-1.51-2.07-2.99-2.33-4.61-.83-5.19-4.03-9.08-6.66-13.31-.42-.68-1.03-1.25-1.43-1.95-.2-.36-.11-.88-.16-1.32.44.11,1.06.08,1.3.36,1.2,1.42,2.39,2.87,3.43,4.41,1.12,1.65,2.14,3.37,3.06,5.14.64,1.23,1.09,2.56,1.57,3.87.7,1.94,1.34,3.91,2.01,5.86.15.44.35.86.58,1.39Z"/><path class="cls-1" d="M111.25,420.85c-4.31.24-8.64.81-12.94.62-3.86-.17-7.7-1.12-11.53-1.85-1.49-.29-2.96-.81-4.36-1.42-1.81-.79-3.58-1.71-5.29-2.71-2.42-1.41-4.78-2.91-7.13-4.44-1.85-1.2-3.79-2.32-5.38-3.82-.86-.81-1.29-2.28-1.49-3.52-.36-2.17-.49-4.39-.56-6.6-.14-4.63-.4-9.28-.2-13.9.26-6.15.27-12.31,1.3-18.42,1.11-6.53,1.77-13.14,2.67-19.71.2-1.47.55-2.93.97-4.35.25-.84.7-1.66,1.24-2.35.33-.42,1.04-.82,1.52-.77.32.03.71.87.78,1.39.11.79.04,1.62-.08,2.41-1.31,9.09-2.73,18.16-3.91,27.26-.52,3.99-.73,8.05-.73,12.08-.01,6.8.32,13.6.35,20.4.01,2.94,1.55,4.68,3.9,5.85,3.56,1.77,6.94,3.78,10.05,6.26.46.36,1.01.65,1.56.85,4.65,1.67,9.37,3.09,14.3,3.61,1.54.16,3.13-.15,4.7-.23,2.08-.09,4.15-.18,6.23-.24,4.63-.12,9.26-.07,13.88-.38,2.34-.16,4.64-.92,6.94-1.46.96-.22,1.86-.49,2.41.65.46.96.07,2.17-.99,2.72-.66.34-1.44.45-2.18.62-1.28.29-2.56.55-3.84.83-.58.13-1.15.35-1.73.39-3.48.22-6.96.41-10.44.6l-.03-.39Z"/><path class="cls-1" d="M56.63,407.82c1.19.65,2.61,1.41,4.02,2.18,1.84,1.01,2.74,2.54,2.3,4.65-.28,1.37-.63,2.73-1.09,4.05-.44,1.24-1.74,2.04-3.05,1.86-2.82-.39-5.29-1.43-6.4-4.33-.6-1.58-1.05-3.23-1.49-4.87-.09-.34.04-.93.29-1.14.73-.61.51-1.08.07-1.74-.24-.36-.31-.99-.15-1.37.08-.2.81-.22,1.24-.2.61.03,1.21.17,1.81.26l.21-.46c-1.18-.77-2.38-1.5-3.52-2.32-.84-.6-1.74-1.22-2.34-2.02-.3-.4-.17-1.36.11-1.87.15-.28,1.1-.35,1.57-.19,1.63.57,3.2,1.29,4.87,1.98.25-2.71.53-5.48.77-8.25.12-1.39.18-2.8.28-4.19.19-2.75.55-5.5.57-8.26.09-13.96.99-27.88,2.28-41.77.11-1.18.42-2.34.67-3.67-1.58-.43-3.18-.81-4.74-1.31-1.21-.39-2.41-.83-3.52-1.43-.4-.22-.54-.94-.8-1.43.49-.25.99-.72,1.47-.7,3.31.12,6.46.96,9.51,2.21,1.09.45,1.49,1.3,1.3,2.47-2.42,14.78-2.78,29.7-3.01,44.63-.05,3.26-.43,6.52-.66,9.78-.08,1.14-.13,2.29-.23,3.43-.34,3.97-.63,7.95-1.09,11.91-.09.75-.84,1.43-1.27,2.13ZM56.22,417.43c.82-.29,1.44-.5,2.05-.73.79-.29,1.33-2.89.62-3.34-1.77-1.13-3.6-2.16-5.71-3.42,0,.73-.12,1.18.02,1.51.49,1.17,1.05,2.31,1.62,3.44.45.89.96,1.75,1.39,2.53Z"/><path class="cls-1" d="M136.59,378.54c-.52,6.95-1.07,13.89-1.54,20.84-.25,3.77-.33,7.56-.56,11.33-.07,1.18-.37,2.34-.64,3.5-.05.23-.46.38-.71.56-.15-.26-.41-.52-.43-.79-.21-3.43-.43-6.87-.54-10.31-.07-2.08-.02-4.16.1-6.24.73-12.87.87-25.73-.53-38.58-.34-3.08-.67-6.17-.9-9.26-.06-.85.07-1.82.44-2.58.67-1.39,2.1-1.33,2.81.05.23.44.36.96.4,1.46.64,7.24,1.32,14.47,1.85,21.72.2,2.75.03,5.52.03,8.28.07,0,.15.01.22.02Z"/><path class="cls-1" d="M124.84,346.24c-3.14.4-6.23-.66-9.4-1.22-2.58-.45-5.21-.61-7.82-.86-1.94-.19-3.89-.37-5.84-.47-2.49-.12-5.01-.43-7.46-.14-4.54.53-8.98.04-13.45-.58-1.79-.25-3.63-.22-5.45-.21-1.39,0-2.25-.47-2.38-1.55-.12-1.01.65-2.07,1.9-2.16,1.81-.13,3.67-.22,5.45.06,5.15.8,10.25,1.21,15.47.49,2.3-.32,4.72.27,7.08.46,1.31.11,2.63.4,3.93.33,3.78-.2,7.46.32,11.08,1.33,2.87.8,5.76.93,8.72.67,1.38-.12,2.79,0,4.17.2.53.08.98.67,1.47,1.03-.38.48-.67,1.16-1.16,1.39-1.02.47-2.13.79-3.24,1.01-.95.19-1.95.14-3.08.21Z"/><path class="cls-1" d="M77.19,289.35c-7.06-.14-13.59-2.1-19.66-5.6-4.75-2.74-9.46-5.58-13.43-9.41-2.23-2.15-4.28-4.48-6.35-6.78-.98-1.08-.91-2.16,0-2.91.88-.73,1.87-.54,2.88.55,1.81,1.97,3.48,4.1,5.46,5.87,6.49,5.79,13.66,10.49,22.03,13.17.49.16.97.31,1.47.42,3.84.91,7.68,1.81,11.5,2.75.33.08.58.48.87.72-.28.26-.54.7-.86.76-1.29.22-2.61.32-3.91.47Z"/><path class="cls-1" d="M115.39,446.67c-.14-.01-.32,0-.48-.05-4.71-1.53-9.6-.84-14.41-1.03-4.11-.17-7.9-1.07-11.38-3.23-.38-.23-.61-.7-.91-1.06.47-.16.97-.52,1.4-.44,5.85,1.09,11.67,2.33,17.53,3.33,1.85.32,3.8.06,5.71.06.16,0,.37-.04.48-.14,1.76-1.61,4.05-1.6,6.19-2.07,3.82-.83,7.7-1.48,11.42-2.64,3.26-1.02,6.34-2.63,9.49-4,.7-.3,1.33-.78,2.04-1.05,4.49-1.75,8.34-4.56,12.21-7.34.38-.28,1-.23,1.5-.34-.2.45-.28,1.06-.62,1.34-3.34,2.77-6.88,5.2-10.8,7.17-5.46,2.74-11.21,4.84-16.53,7.92-2.57,1.49-5.77,1.91-8.7,2.73-1.34.38-2.75.55-4.15.83Z"/><path class="cls-1" d="M118.19,280.31c-2.74-.7-5.5-1.35-8.21-2.14-.39-.11-.6-.84-.9-1.28.49-.2,1.05-.66,1.47-.56,3.97.89,7.86.28,11.75-.5,3.54-.71,7.1-1.31,10.65-1.95,6.06-1.09,11.78-3.24,17.46-5.53,1.18-.48,2.53-.67,3.82-.73,1.12-.05,1.53.89.75,1.71-.83.87-1.76,1.81-2.84,2.27-6.92,2.99-13.99,5.5-21.54,6.42-3.54.43-7.03,1.21-10.55,1.82-.58.1-1.18.1-1.78.14l-.09.34Z"/><path class="cls-1" d="M74.19,427.57c.44-1.36.83-2.56,1.29-3.97-2.76-1.11-5.57-2.29-8.44-3.33-.48-.18-1.22.17-1.78.4-.91.38-1.83.78-2.49-.26-.62-.97-.26-1.89.51-2.64,1.34-1.3,3.03-1.77,4.71-1.1,3.62,1.44,7.18,3.05,10.71,4.7,1.28.6,1.64,1.96.86,3.14-.97,1.47-1.4,3.02-1.64,4.74-.33,2.38-2.19,3.38-4.31,2.27-2.93-1.53-5.75-3.29-8.6-4.97-.28-.17-.52-.44-.73-.7-.66-.84-.73-1.75-.05-2.57.67-.8,1.54-.59,2.32-.14,2.21,1.27,4.41,2.56,6.61,3.84.33.19.66.37,1.03.58Z"/><path class="cls-1" d="M114.33,453.12c-.85-.33-2.04-.71-3.16-1.25-.31-.15-.59-.82-.51-1.16.07-.28.67-.55,1.07-.62,5.85-1.08,11.75-1.93,17.55-3.25,2.59-.59,5-2.05,7.45-3.2,2.61-1.22,5.18-2.55,7.79-3.77.37-.17.9.04,1.36.07-.19.42-.3.91-.59,1.23-.52.56-1.2.95-1.73,1.51-5.23,5.51-11.81,8.14-19.21,9.06-3.21.4-6.4.88-10.03,1.39Z"/><path class="cls-1" d="M91.6,453.25c-7.36-.18-14.2-.97-20.8-3.07-2.03-.65-3.93-1.78-5.79-2.86-.67-.39-1.18-1.22-1.51-1.96-.33-.75.07-1.46.91-1.67.67-.17,1.31-.24,1.55.78.09.39.75.73,1.22.94,3.59,1.64,7.43,2.44,11.3,3.02,6.43.97,12.88,1.85,19.31,2.78.21.03.46,0,.62.1.39.24.73.54,1.1.81-.36.22-.71.6-1.09.64-2.41.22-4.83.36-6.81.5Z"/><path class="cls-1" d="M91.1,282.5c-6.93-.76-13.24-1.76-18.96-4.85-1.48-.8-2.71-2.13-3.9-3.37-.51-.54-.73-1.44-.86-2.21-.06-.35.33-.97.68-1.15.26-.13.98.15,1.15.44,1.01,1.81,2.69,2.65,4.5,3.36,6.76,2.64,13.75,4.11,21.02,4.25,1.23.02,2.48-.01,3.69.14.42.05.78.59,1.17.91-.33.38-.6,1.02-.99,1.1-2.65.55-5.33.99-7.5,1.38Z"/><path class="cls-1" d="M55.86,443.96c-1.53-.55-3.27-.84-4.64-1.72-5.18-3.32-9.71-7.43-13.54-12.25-1.63-2.05-2.59-4.38-2.25-7.09.04-.33.06-.71.23-.98.2-.32.54-.74.85-.76.3-.02.69.35.94.64.21.25.26.62.39.93,1.33,3.02,3.13,5.71,5.46,8.08,4.05,4.11,8.53,7.63,13.45,10.64.58.35.96,1.03,1.44,1.56-.69.28-1.38.57-2.33.95Z"/><path class="cls-1" d="M94.65,431c.08-1.24.16-2.33.24-3.5-.8.09-1.72.17-2.63.29-2.65.35-5.17-.29-7.61-1.18-.47-.17-.97-.99-.98-1.52-.02-.8.73-.92,1.5-.98,3.45-.28,6.68.88,10.01,1.39,1.94.3,2.82,1.36,3.12,3.33.06.38.15.75.24,1.12.57,2.33-.51,4.3-2.88,4.64-3.91.57-7.71-.11-11.3-1.77-.51-.23-1.04-.72-1.24-1.22-.22-.56-.22-1.33,0-1.87.1-.24,1.02-.27,1.54-.18,2.51.44,5,.99,7.51,1.41.82.14,1.68.02,2.5.02Z"/><path class="cls-1" d="M77.08,439.29c-1.35-.35-2.76-.53-4.03-1.07-4.43-1.88-8.66-4.14-12.36-7.3-1.45-1.24-3.02-2.34-4.53-3.52-.37-.29-.75-.57-1.07-.9-.85-.91-.95-1.99-.28-2.75.65-.75,1.73-.76,2.75,0,1.23.91,2.5,1.78,3.65,2.78,3.88,3.37,8.18,6.06,12.9,8.12,1.75.76,3.41,1.71,5.09,2.63.27.15.57.6.54.87-.03.28-.42.65-.72.74-.6.17-1.26.17-1.89.24-.02.05-.04.11-.06.16Z"/><path class="cls-1" d="M119.95,426.43c-2.6.18-5.08.38-7.57.52-.32.02-.65-.24-.98-.38.2-.33.33-.84.63-.97.73-.32,1.52-.57,2.31-.65,1.77-.16,3.55-.27,5.33-.23.5.01,1.22.48,1.46.94,1.52,2.93.64,6.84-2.62,8.41-3.54,1.7-7.3,1.97-11.06.84-3.06-.92-5.1-4.66-4.33-7.75.12-.49.69-.86,1.04-1.29.29.34.64.66.87,1.04.71,1.16,1.27,2.43,2.12,3.47.48.59,1.4,1.1,2.16,1.16,1.85.12,3.72.05,5.57-.12,1.5-.14,2.7-.88,3.46-2.3.29-.54.8-1,1.31-1.36.65-.46.68-.89.31-1.34Z"/><path class="cls-1" d="M100.01,330.73c1.2.1,2.32.22,3.44.3,2.37.18,4.75.28,7.1.55.55.06,1.03.67,1.54,1.02-.42.47-.75,1.13-1.27,1.38-.74.36-1.63.56-2.45.58-2.46.06-4.96.26-7.37-.09-1.91-.28-3.78-1.16-5.56-1.99-1.31-.61-1.41-2.47-.12-2.96,2.4-.92,2.62-3.17,3.52-4.98.54-1.09,1.2-1.65,2.36-1.39,1.23.28,2.48.59,3.63,1.1.65.29,1.31.9,1.6,1.53.25.54.21,1.54-.14,1.93-.35.39-1.29.44-1.92.34-.64-.1-1.22-.57-1.82-.88-.69-.36-1.11-.13-1.37.57-.34.91-.72,1.8-1.19,2.98Z"/><path class="cls-1" d="M80.82,334.56c-2.08-.15-4.12-.4-4.94-2.59-.95-2.52-1.51-5.26.65-7.43,1.18-1.19,2.83-1.95,4.36-2.73.5-.25,1.35-.07,1.94.17,1.25.5,2.44,1.16,3.66,1.76,1.3.64,1.76,1.91,1.11,3.05-.57,1-1.52,1.07-2.85.35-1-.55-2.05-1.27-3.12-1.35-.77-.05-2.03.65-2.32,1.33-.4.94-.14,2.18-.04,3.28.02.16.73.38,1.1.36,1.44-.07,2.88-.24,4.31-.36.76-.06,1.54-.2,2.28-.11.43.05,1.03.4,1.16.75.13.36-.09,1.04-.4,1.33-.51.48-1.16.92-1.83,1.09-1.68.44-3.39.72-5.09,1.07Z"/><path class="cls-1" d="M133.86,428.2c.31-1.2.58-2.27.89-3.5-1.28.22-2.47.49-3.68.6-1.09.1-2.23.19-3.28-.03-.55-.11-1.23-.84-1.34-1.39-.07-.37.68-1.21,1.19-1.34,2.59-.67,5.2-1.27,7.84-1.71,1.84-.31,3.13.86,3.2,2.76.03.87-.28,1.75-.39,2.63-.13.99-.31,1.98-.28,2.97.04,1.38-.61,2.34-2.05,2.62-2.21.43-4.41.86-6.63,1.25-1.91.34-3.38-1.29-2.63-3.01.24-.56,1.05-1.06,1.7-1.22.86-.22,1.81-.01,2.71-.11.92-.1,1.83-.34,2.75-.52Z"/><path class="cls-1" d="M59.57,268.14c-1.08-.37-2.03-.54-2.82-.99-5.58-3.16-8.37-8.14-9.07-14.37-.11-1,.13-2.15.56-3.06.32-.67,1.14-1.26,1.87-1.56,1.05-.43,1.83.35,1.67,1.48-.84,6.34,1.58,11.23,7.14,14.46.55.32,1.07.7,1.55,1.11.58.5,1.32,1.11.77,1.91-.34.5-1.12.69-1.67,1.01Z"/><path class="cls-1" d="M139.03,331.83c1.47-.09,2.75-.31,4-.22,1.2.09,2.39.46,3.55.82.28.09.61.68.56.99-.05.3-.52.7-.85.76-2.43.44-4.86.87-7.3,1.17-2,.24-2.79-.46-3-2.51-.18-1.78-.37-3.56-.4-5.34-.04-2.22,1.18-3.31,3.36-3.15,1.19.08,2.38.16,3.55.39,1.8.35,2.43,1.67,1.73,3.36-.3.72-1.03,1.02-1.33.39-.57-1.19-1.5-.84-2.36-.92-.5-.05-1.01-.06-1.7-.09.06,1.45.12,2.82.19,4.34Z"/><path class="cls-1" d="M122.45,336.12c-.55,0-1.11.04-1.66,0-2.06-.16-2.69-1.11-2.35-3.15.1-.59-.2-1.29-.45-1.89-.94-2.2-.49-3.91,1.44-5.22,2.14-1.46,4.39-1.42,5.96.14.69.69,1.3,1.51.67,2.48-.65,1.01-1.64.79-2.63.46-.51-.17-1.1-.11-1.65-.11-.14,0-.41.21-.4.27.21,1.05.42,2.1.74,3.12.07.21.59.38.91.4,1.31.1,2.65.01,3.93.26.55.1,1.25.79,1.36,1.32.07.36-.69,1.19-1.2,1.32-1.51.39-3.08.53-4.63.77,0-.05-.01-.11-.02-.16Z"/><path class="cls-1" d="M62.21,320.56c-.31,1.31-.67,2.32-.73,3.35-.03.43.56.91.92,1.33.78.91,1.72,1.72,2.35,2.72.27.43.12,1.47-.24,1.82-.28.28-1.23.06-1.8-.17-.86-.34-1.64-.88-2.46-1.34-2.26-1.27-3.07-3.33-2.34-5.79.25-.85.33-1.75.55-2.62.51-2.07,2.94-3.57,5.02-3.14,1.31.27,3.08,3.01,2.79,4.32-.29,1.27-1.81,1.69-2.98.78-.38-.3-.65-.75-1.09-1.28Z"/><path class="cls-1" d="M169.77,256.57c-.05,3.68-2.56,7.1-5.41,7.73-.63.14-1.37-.26-2.06-.41.15-.65.14-1.4.47-1.93.49-.77,1.21-1.41,1.87-2.07,1.64-1.67,1.82-3.04.53-5-.49-.73-1.13-1.37-1.75-2.01-.99-1.04-1.49-2.8-.95-3.45.55-.66,2.31-.35,3.47.69,2.12,1.89,3.71,4.08,3.83,6.46Z"/><path class="cls-1" d="M150.99,416.75c-.74.36-1.32.74-1.96.94-.88.27-1.8.54-2.71.55-.48,0-.96-.52-1.45-.8.36-.29.7-.62,1.09-.87.96-.62,1.96-1.18,2.92-1.81.71-.46,1.37-1,2.07-1.49.89-.62,1.85-1.18,2.95-.57,1.14.63,1.25,1.74,1.1,2.89-.12.93-.28,1.85-.41,2.77-.13,1-.26,1.99-.36,2.99-.1.95-.56,1.62-1.5,1.83-1.04.23-2.09.39-3.14.52-.89.11-1.77,0-2.08-1.02-.31-.98.17-1.72.98-2.28.1-.07.21-.14.32-.2,1.87-.96,1.94-1.07,2.18-3.46Z"/><path class="cls-1" d="M108.54,234.25c2.42.18,4.87.16,7.24.6,2.31.43,4.55,1.33,6.8,2.06.26.08.62.49.59.69-.05.31-.36.75-.63.81-1.19.26-2.42.63-3.61.54-3.68-.26-7.37-.63-11.03-1.13-1.45-.2-2.85-.81-4.25-1.29-.26-.09-.64-.49-.6-.68.06-.3.37-.7.66-.77,1.58-.43,3.19-.77,4.79-1.14.02.1.04.2.06.3Z"/><path class="cls-1" d="M153.11,245.54c-.67-.08-1.36-.11-2.02-.25-3.7-.78-7.4-1.55-11.08-2.42-.97-.23-1.89-.76-2.76-1.27-.86-.5-.86-1.28.04-1.6,1.13-.39,2.42-.81,3.54-.64,3.9.6,7.82,1.23,11.32,3.29.65.38,1.45.48,2.13.83.43.22.74.65,1.11.99-.42.34-.8.74-1.26.98-.27.14-.67.03-1.01.03,0,.02,0,.05,0,.07Z"/><path class="cls-1" d="M173.37,427.08c-.19.56-.24.82-.36,1.04-.3.51-.52,1.14-.96,1.49-3.75,3.04-7.53,6.07-11.36,9.02-.55.43-1.5,1.1-2.17.24-.77-.98.44-1.35.91-1.9,2.6-3.06,5.41-5.9,8.8-8.09,1.21-.78,2.49-1.46,3.79-2.07.32-.15.86.16,1.35.27Z"/><path class="cls-1" d="M50.79,247.06c-.46-.3-1.14-.5-1.35-.93-.24-.48-.2-1.22-.02-1.76.14-.42.61-.91,1.03-1.05,3.74-1.23,6.9-3.88,10.9-4.42.49-.07,1.03.2,1.54.31-.32.42-.58.91-.97,1.25-.86.75-1.9,1.32-2.65,2.15-1.39,1.53-3.03,2.54-4.99,3.15-1.13.35-2.22.82-3.48,1.3Z"/><path class="cls-1" d="M122.84,317.84c-.85-.22-1.67-.33-2.39-.64-.97-.43-1.06-1.64-.1-1.93,1.88-.57,3.83-.94,5.78-1.18.42-.05,1.3.74,1.33,1.18.04.54-.48,1.42-.98,1.63-1.15.48-2.43.65-3.64.95Z"/><path class="cls-1" d="M273.49,403.54c0-2.85-.09-5.34.03-7.82.1-2.24.19-4.53.71-6.7,1.29-5.43,2.28-10.89,2.43-16.49.03-1.05.21-2.12.48-3.15.63-2.39.74-4.76.26-7.19-.2-1.01-.03-2.09-.03-3.33-.09-.03-.38-.2-.69-.23-11.97-.97-23.26-4.9-34.72-8.07-7.05-1.95-14.13-3.72-21.33-5.05-2.75-.51-5.35-1.84-7.98-2.89-.42-.17-.65-.85-.96-1.29.51-.2,1.05-.63,1.51-.55,7.2,1.27,14.46,2.28,21.55,4,9.91,2.41,19.66,5.48,29.54,8.01,3.97,1.02,8.12,1.34,12.18,2.04,1.07.19,2.17.46,3.14.94.5.25,1.11,1.07,1.05,1.56-.26,2.03.65,3.89.65,5.86,0,1.77,0,3.55-.17,5.31-.27,2.79-.67,5.56-1.05,8.34-.39,2.86-.77,5.71-1.25,8.56-.43,2.56-1.04,5.08-1.44,7.64-.18,1.16.01,2.37-.04,3.55-.12,2.75-.16,5.51-.47,8.24-.2,1.8-1.44,2.45-3.46,2.37-6.71-.28-13.24-1.62-19.72-3.24-10.19-2.54-20.4-4.97-30.57-7.6-2.53-.65-5-1.7-7.34-2.88-1.47-.74-2.66-2.05-3.9-3.19-.28-.26-.42-1.03-.24-1.3.2-.29.89-.44,1.31-.35,1.08.22,2.2.45,3.16.95,5.11,2.66,10.63,4.07,16.17,5.39,10.55,2.51,21.09,5.02,31.67,7.38,3.01.67,6.13.8,9.54,1.22Z"/><path class="cls-1" d="M357.21,367.07c-2.64,0-5.49.15-8.31-.03-12.77-.8-25.53-1.7-38.3-2.55-1.53-.1-3.06-.13-4.59-.12-3.51.02-7.06.56-10.19-.89-.36,1.65-.78,3.19-1.02,4.76-.13.85-.16,1.81.11,2.61.94,2.89,1.01,5.75.13,8.65-.78,2.54-.7,5.1-.19,7.69.19.97.15,2.03-.04,3.01-.19,1-.88,1.83-1.99,1.86-.6.02-1.4-.21-1.76-.63-.32-.37-.22-1.16-.2-1.76.03-.73.38-1.49.24-2.17-.62-3.02-.57-6.01.32-8.96.67-2.24.67-4.43-.12-6.63-.64-1.79-.61-3.58.08-5.37.2-.51.37-1.05.43-1.6.41-3.38,1.95-4.31,5.32-4.38,5.47-.12,10.96.06,16.43.42,7.38.48,14.75,1.15,22.1,1.96,3.75.41,7.42,1.47,11.17,1.96,3.57.46,7.19.62,10.79.79,1.97.09,2.67.48,2.84,2.43.15,1.73.12,3.48.07,5.22,0,.36-.44.7-.68,1.05-.33-.27-.86-.48-.95-.81-.58-2.03-1.05-4.09-1.66-6.53Z"/><path class="cls-1" d="M355.28,418.98c-2.36.29-4.71.61-7.07.87-11.76,1.31-23.36.4-34.77-2.67-6.11-1.65-12.16-3.54-18.26-5.25-3.04-.85-4.64-2.8-5.02-5.87-.13-1.05-.35-2.1-.52-3.15-.05-.34-.12-.68-.1-1.01.08-1.07.11-2.34,1.39-2.58,1.25-.23,1.77.95,2.04,1.9.45,1.55.72,3.15.98,4.74.2,1.18.78,1.86,1.94,2.24,11.25,3.69,22.58,7.1,34.43,8.16,6.74.6,13.5.39,20.23-.6,2.46-.36,5-.22,7.5-.21,1.08,0,1.74.72,1.76,1.81.02,1.09-.63,1.77-1.7,1.87-.93.09-1.87.02-2.8.02,0-.09-.02-.18-.03-.27Z"/><path class="cls-1" d="M385.24,421.72c-3.4-.17-6.79-.34-10.18-.52-.34-.02-.68-.07-1.01-.16-1.29-.34-1.95-1.23-1.73-2.28.21-1.01,1.07-1.44,2.38-1.41,5.52.14,11.04.4,16.56.32,8.08-.13,15.77-2.38,23.4-4.8,8.92-2.82,17.83-5.66,26.74-8.48.81-.26,1.64-.45,2.48-.58,1.08-.17,1.85.31,2.12,1.38.25,1.01-.2,1.77-1.16,2.13-.75.28-1.56.41-2.33.65-8.76,2.76-17.52,5.49-26.26,8.32-10.09,3.28-20.3,5.72-31.02,5.42Z"/><path class="cls-1" d="M194.56,384.18c-.07-.92-.15-1.75-.18-2.59-.13-2.89.44-5.55,1.81-8.2.91-1.76,1.25-4,1.26-6.02,0-7.01-.24-14.02-.41-21.03-.04-1.53-.26-3.06-.2-4.58.03-.79.34-1.68.8-2.31.29-.4,1.15-.64,1.67-.53.43.09.97.77,1.03,1.25.24,1.98.37,3.98.45,5.97.09,2.21.08,4.42.12,6.63.08,4.2.08,8.41.3,12.61.21,4.1-.4,7.92-2.46,11.54-1.06,1.87-.84,4.07-.38,6.1.4,1.78-.29,3.18-1.17,4.49-.33.49-1.3.73-1.99.76-.68.04-1.41-.26-2.09-.51-5.8-2.07-11.59-4.17-17.39-6.23-.83-.29-1.72-.41-2.59-.58-.97-.19-1.85-.52-2.02-1.63-.14-.86.84-1.96,1.93-2.02.95-.05,1.98.03,2.87.34,6.02,2.09,12.01,4.25,18.01,6.39.19.07.39.08.65.13Z"/><path class="cls-1" d="M380.27,371.41c-1.11-.03-1.82-.5-2-1.52-.19-1.07.29-1.87,1.35-2.14,4.44-1.15,8.86-2.38,13.33-3.36,5.23-1.14,10.48-2.24,15.78-3.01,6.46-.94,12.72-2.6,18.98-4.37,3.46-.98,7.06-1.5,10.61-2.18.28-.05.63.23.95.36-.19.29-.32.74-.58.83-8.43,2.87-16.5,6.8-25.36,8.4-7.7,1.39-15.4,2.72-23.07,4.24-2.82.56-5.56,1.57-8.33,2.36-.57.16-1.16.27-1.65.39Z"/><path class="cls-1" d="M373.63,402.29c-.57-7.37-1.09-14.14-1.61-20.92-.22-2.94-.24-5.89.65-8.72.33-1.05.98-2.05,1.66-2.94.5-.65,1.18-.53,1.34.4.21,1.2.59,2.46.42,3.63-.87,6.14-.02,12.21.45,18.3.35,4.57.58,9.16.83,13.74.03.54-.04,1.12-.2,1.63-.3.96-.91,1.72-2.02,1.59-1.06-.12-1.47-1-1.5-1.94-.06-1.78-.02-3.57-.02-4.77Z"/><path class="cls-1" d="M169.48,321.84c.6.12.86.14,1.09.23,7.26,3.11,14.54,6.19,21.78,9.37,2.09.92,4.08,2.11,6.07,3.25,1.23.7,1.56,1.79.99,2.78-.54.94-1.63,1.2-2.66.61-4.33-2.45-8.73-4.73-13.43-6.46-4.62-1.7-9.13-3.72-13.68-5.61-1.51-.63-2.27-1.89-1.63-2.94.35-.57,1.08-.92,1.47-1.24Z"/><path class="cls-1" d="M442.84,386.69c-.38-3.97-.82-7.93-1.13-11.91-.16-1.98-.3-4-.05-5.96.14-1.17.91-2.33,1.64-3.32.64-.87,1.4-.68,1.83.34.24.57.47,1.27.36,1.84-.78,3.94.17,7.78.56,11.66.55,5.49.43,10.95-.97,16.33-.02.08-.01.19-.06.24-.42.39-.85.77-1.27,1.15-.31-.44-.85-.87-.89-1.33-.25-2.99-.39-5.99-.57-8.99.19-.02.38-.03.57-.05Z"/><path class="cls-1" d="M359.21,403.65c1.43-7.45-1.41-14.89-1.21-22.5.02-.73-.53-1.87.55-2.09,1.09-.22,1.05,1.04,1.32,1.71,3.21,7.99,4.09,16.29,2.95,24.79-.3,2.21-1.1,4.36-1.76,6.51-.11.36-.68.75-1.07.79-.23.02-.65-.58-.76-.97-.13-.47-.03-1.01-.03-1.52,0-2.17,0-4.33,0-6.72Z"/><path class="cls-1" d="M210.69,373.32c.48-.51.75-.91,1.11-1.14.27-.17.71-.23.99-.13.15.05.27.66.15.87-.57.99-1.14,2.01-1.89,2.85-.8.9-2.03.82-2.78-.14-.48-.61-.88-1.39-1.04-2.15-1.28-6.04-1.93-12.15-.35-18.2.68-2.59,2.05-5.01,3.15-7.48.11-.25.65-.53.87-.46.26.08.56.56.55.85-.09,1.82,0,3.71-.46,5.45-1.43,5.41-1.51,10.84-.67,16.32.16,1.01.21,2.03.35,3.36Z"/><path class="cls-1" d="M440.79,358.19c.08-.98.01-1.98.26-2.9.4-1.5,1.64-1.7,2.65-.54,1.3,1.5,1.38,5.98.13,7.49-.87,1.06-2.03.98-2.44-.32-.38-1.18-.41-2.48-.6-3.73Z"/><path class="cls-1" d="M213.16,385.91c-.45.59-.8,1.54-1.4,1.74-1.07.35-1.76-.55-1.97-1.52-.18-.84-.19-1.77-.04-2.62.08-.42.65-.98,1.06-1.04.41-.06,1.1.31,1.33.69.43.75.63,1.63,1.02,2.76Z"/></svg>